<svg width="24" height="24" viewBox="0 0 24 24" fill="none" xmlns="http://www.w3.org/2000/svg">
<g clip-path="url(#clip0_1_1486)">
<path d="M8.09135 8.09135V11.3221H11.3221V8.09135H8.09135ZM12.7067 8.09135V11.3221H15.9375V8.09135H12.7067ZM17.3221 8.09135V11.3221H20.5529V8.09135H17.3221ZM17.3221 12.7067V15.9375H20.5529V12.7067H17.3221ZM12.7067 12.7067V15.9375H15.9375V12.7067H12.7067ZM12.7067 17.3221V20.5529H15.9375V17.3221H12.7067ZM8.09135 17.3221V20.5529H11.3221V17.3221H8.09135ZM8.09135 12.7067V15.9375H11.3221V12.7067H8.09135ZM3.47596 17.3221V20.5529H6.70673V17.3221H3.47596ZM3.47596 12.7067V15.9375H6.70673V12.7067H3.47596ZM7.38462 3.5625V0.591346C7.38462 0.4375 7.33894 0.300481 7.2476 0.180288C7.15625 0.0600962 7.04808 0 6.92308 0H6C5.875 0 5.76683 0.0600962 5.67548 0.180288C5.58413 0.300481 5.53846 0.4375 5.53846 0.591346V3.5625C5.53846 3.72596 5.58413 3.86298 5.67548 3.97356C5.76683 4.08413 5.875 4.14423 6 4.15385H6.92308C7.05769 4.14423 7.16827 4.08413 7.25481 3.97356C7.34135 3.86298 7.38462 3.72596 7.38462 3.5625ZM1.84615 24H22.1538C22.6538 24 23.0817 23.8269 23.4375 23.4808C23.7933 23.1346 23.9808 22.7115 24 22.2115V3.63462C24 3.14423 23.8173 2.72356 23.4519 2.3726C23.0865 2.02163 22.6538 1.84615 22.1538 1.84615H19.3846V3.23077C19.3846 3.83654 19.2837 4.29567 19.0817 4.60817C18.8798 4.92067 18.5192 5.07692 18 5.07692H17.0769C16.1538 5.06731 15.6923 4.45673 15.6923 3.24519V1.84615H8.30769V3.24519C8.30769 4.45673 7.84615 5.06731 6.92308 5.07692H6C5.48077 5.07692 5.12019 4.92067 4.91827 4.60817C4.71635 4.29567 4.61538 3.83654 4.61538 3.23077V1.84615H1.84615C1.34615 1.84615 0.913462 2.02163 0.548077 2.3726C0.182692 2.72356 0 3.14423 0 3.63462V22.2115C0 22.7019 0.180288 23.1202 0.540865 23.4663C0.901442 23.8125 1.33654 23.9904 1.84615 24ZM1.84615 6.46154H22.1538V22.1538H1.84615V6.46154ZM18.4615 3.5625V0.591346C18.4615 0.4375 18.4159 0.300481 18.3245 0.180288C18.2332 0.0600962 18.125 0 18 0H17.0769C16.9519 0 16.8438 0.0600962 16.7524 0.180288C16.6611 0.300481 16.6154 0.4375 16.6154 0.591346V3.5625C16.6154 3.72596 16.6611 3.86298 16.7524 3.97356C16.8438 4.08413 16.9519 4.14423 17.0769 4.15385H18C18.1346 4.14423 18.2452 4.08413 18.3317 3.97356C18.4183 3.86298 18.4615 3.72596 18.4615 3.5625Z" fill="#8093A5"/>
</g>
<defs>
<clipPath id="clip0_1_1486">
<rect width="24" height="24" fill="white"/>
</clipPath>
</defs>
</svg>
