<svg width="360" height="210" viewBox="0 0 360 210" fill="none" xmlns="http://www.w3.org/2000/svg">
<g filter="url(#filter0_d_39_3)">
<rect x="30" y="20" width="300" height="150" rx="20" fill="#369FFF"/>
</g>
<path opacity="0.2" fill-rule="evenodd" clip-rule="evenodd" d="M110.619 20C109.598 26.9096 103.345 46.3399 77.5834 55.1535C52.5887 63.7047 36.123 60.7638 30 58L30 40C30 28.9543 38.9543 20 50 20L110.619 20Z" fill="#006ED3"/>
<path opacity="0.2" fill-rule="evenodd" clip-rule="evenodd" d="M194.308 170H310C321.037 170 329.986 161.059 330 150.025C330 150.017 330 150.008 330 150L330 90C329.231 101.667 315.969 125 269.077 125C222.185 125 199.692 155 194.308 170Z" fill="#006ED3"/>
<defs>
<filter id="filter0_d_39_3" x="0" y="0" width="360" height="210" filterUnits="userSpaceOnUse" color-interpolation-filters="sRGB">
<feFlood flood-opacity="0" result="BackgroundImageFix"/>
<feColorMatrix in="SourceAlpha" type="matrix" values="0 0 0 0 0 0 0 0 0 0 0 0 0 0 0 0 0 0 127 0" result="hardAlpha"/>
<feOffset dy="10"/>
<feGaussianBlur stdDeviation="15"/>
<feColorMatrix type="matrix" values="0 0 0 0 0.211765 0 0 0 0 0.623529 0 0 0 0 1 0 0 0 0.4 0"/>
<feBlend mode="normal" in2="BackgroundImageFix" result="effect1_dropShadow_39_3"/>
<feBlend mode="normal" in="SourceGraphic" in2="effect1_dropShadow_39_3" result="shape"/>
</filter>
</defs>
</svg>
