<svg width="90" height="81" viewBox="0 0 90 81" fill="none" xmlns="http://www.w3.org/2000/svg">
<g clip-path="url(#clip0_1_278)">
<path d="M45.0047 28.4785H5.55137V31.7528H45.0047V28.4785Z" fill="#7C563E"/>
<path d="M44.7538 31.7598L84.2072 31.7598V28.4855L44.7538 28.4855V31.7598Z" fill="#7C563E"/>
<path d="M5.55137 29.8777V28.4785H84.2036V30.9056L5.55137 29.8777Z" fill="#CCC1B9"/>
<path d="M55.8415 20.5977L82.3071 20.5977V19.8648L55.8415 19.8648V20.5977Z" fill="#8B5C38"/>
<path d="M55.8555 25.0787L82.208 25.0787V20.5956L55.8555 20.5956V25.0787Z" fill="#B0865D"/>
<path d="M33.9208 19.8645H7.45523V20.5974H33.9208V19.8645Z" fill="#8B5C38"/>
<path d="M33.902 20.5974H7.54948V25.0805H33.902V20.5974Z" fill="#B0865D"/>
<path d="M34.2884 19.2173H6.29594V19.8645H34.2884V19.2173Z" fill="#D1B79F"/>
<path d="M7.54948 21.5683V19.8645H82.2055V22.8247L7.54948 21.5683Z" fill="#CCC1B9"/>
<path d="M8.09614 19.8645H7.45523V21.2256H8.09614V19.8645Z" fill="#B0865D"/>
<path d="M8.98209 19.8645H8.34119V21.2256H8.98209V19.8645Z" fill="#B0865D"/>
<path d="M11.3478 19.8645H10.7069V21.2256H11.3478V19.8645Z" fill="#B0865D"/>
<path d="M12.2432 19.8645H11.6023V21.2256H12.2432V19.8645Z" fill="#B0865D"/>
<path d="M14.6089 19.8645H13.968V21.2256H14.6089V19.8645Z" fill="#B0865D"/>
<path d="M15.4948 19.8645H14.8539V21.2256H15.4948V19.8645Z" fill="#B0865D"/>
<path d="M17.8605 19.8645H17.2196V21.2256H17.8605V19.8645Z" fill="#B0865D"/>
<path d="M18.7559 19.8645H18.115V21.2256H18.7559V19.8645Z" fill="#B0865D"/>
<path d="M21.1216 19.8645H20.4807V21.2256H21.1216V19.8645Z" fill="#B0865D"/>
<path d="M22.0075 19.8645H21.3666V21.2256H22.0075V19.8645Z" fill="#B0865D"/>
<path d="M24.3827 19.8645H23.7418V21.2256H24.3827V19.8645Z" fill="#B0865D"/>
<path d="M25.2686 19.8645H24.6277V21.2256H25.2686V19.8645Z" fill="#B0865D"/>
<path d="M27.6343 19.8645H26.9934V21.2256H27.6343V19.8645Z" fill="#B0865D"/>
<path d="M28.5297 19.8645H27.8888V21.2256H28.5297V19.8645Z" fill="#B0865D"/>
<path d="M30.8954 19.8645H30.2545V21.2256H30.8954V19.8645Z" fill="#B0865D"/>
<path d="M31.7813 19.8645H31.1404V21.2256H31.7813V19.8645Z" fill="#B0865D"/>
<path d="M55.4661 19.8599L83.4585 19.8599V19.2127L55.4661 19.2127V19.8599Z" fill="#D1B79F"/>
<path d="M81.6601 21.2223H82.3011V19.8612H81.6601V21.2223Z" fill="#B0865D"/>
<path d="M80.7757 21.2223H81.4166V19.8612H80.7757V21.2223Z" fill="#B0865D"/>
<path d="M78.4062 21.2223H79.0471V19.8612H78.4062V21.2223Z" fill="#B0865D"/>
<path d="M77.5124 21.2223H78.1533V19.8612H77.5124V21.2223Z" fill="#B0865D"/>
<path d="M75.1524 21.2223H75.7933V19.8612H75.1524V21.2223Z" fill="#B0865D"/>
<path d="M74.2584 21.2223H74.8994V19.8612H74.2584V21.2223Z" fill="#B0865D"/>
<path d="M71.8891 21.2223H72.53V19.8612H71.8891V21.2223Z" fill="#B0865D"/>
<path d="M71.0046 21.2223H71.6455V19.8612H71.0046V21.2223Z" fill="#B0865D"/>
<path d="M68.6353 21.2223H69.2762V19.8612H68.6353V21.2223Z" fill="#B0865D"/>
<path d="M67.7414 21.2223H68.3823V19.8612H67.7414V21.2223Z" fill="#B0865D"/>
<path d="M65.3719 21.2223H66.0128V19.8612H65.3719V21.2223Z" fill="#B0865D"/>
<path d="M64.4875 21.2223H65.1284V19.8612H64.4875V21.2223Z" fill="#B0865D"/>
<path d="M62.118 21.2223H62.7589V19.8612H62.118V21.2223Z" fill="#B0865D"/>
<path d="M61.2241 21.2223H61.865V19.8612H61.2241V21.2223Z" fill="#B0865D"/>
<path d="M58.8642 21.2223H59.5051V19.8612H58.8642V21.2223Z" fill="#B0865D"/>
<path d="M57.9703 21.2223H58.6112V19.8612H57.9703V21.2223Z" fill="#B0865D"/>
<path d="M43.0066 11.5837C43.0066 11.5837 43.3647 11.498 43.7795 11.2029C44.1942 10.9079 43.525 9.60388 43.6758 8.75676C43.8266 7.91915 44.7314 6.5866 44.8728 6.74841C45.0141 6.91022 45.3534 7.31951 44.9953 7.37662C44.6371 7.43373 44.0999 8.24277 44.2319 8.46169C44.3638 8.68061 44.8539 9.22315 44.8728 9.06134C44.8916 8.89953 45.1555 8.84242 45.1555 8.84242C45.1555 8.84242 44.5146 7.1577 45.4477 7.18625C46.3713 7.21481 45.7681 8.78531 45.7681 8.78531C45.7681 8.78531 45.9755 9.0423 46.0509 9.15652C46.1263 9.27074 46.4656 9.33737 46.7955 9.72762C47.1159 10.1179 48.1527 16.1429 48.1527 16.1429H42.4788L43.0066 11.5837Z" fill="#142023"/>
<path d="M10.066 35.7504H5.55137V72.0053H10.066V35.7504Z" fill="#BC9875"/>
<path d="M6.29594 71.1391C6.15457 71.1391 6.04147 71.0249 6.04147 70.8821V36.4928C6.04147 36.3501 6.15457 36.2358 6.29594 36.2358C6.43732 36.2358 6.55042 36.3501 6.55042 36.4928V70.8726C6.55984 71.0154 6.43732 71.1391 6.29594 71.1391Z" fill="#B0865D"/>
<path d="M7.32328 71.1391C7.1819 71.1391 7.0688 71.0249 7.0688 70.8821V36.4928C7.0688 36.3501 7.1819 36.2358 7.32328 36.2358C7.46465 36.2358 7.57775 36.3501 7.57775 36.4928V70.8726C7.57775 71.0154 7.46465 71.1391 7.32328 71.1391Z" fill="#B0865D"/>
<path d="M8.34119 71.1391C8.19981 71.1391 8.08671 71.0249 8.08671 70.8821V36.4928C8.08671 36.3501 8.19981 36.2358 8.34119 36.2358C8.48256 36.2358 8.59566 36.3501 8.59566 36.4928V70.8726C8.59566 71.0154 8.48256 71.1391 8.34119 71.1391Z" fill="#B0865D"/>
<path d="M9.36852 71.1391C9.22714 71.1391 9.11404 71.0249 9.11404 70.8821V36.4928C9.11404 36.3501 9.22714 36.2358 9.36852 36.2358C9.5099 36.2358 9.623 36.3501 9.623 36.4928V70.8726C9.623 71.0154 9.5099 71.1391 9.36852 71.1391Z" fill="#B0865D"/>
<path d="M10.0754 72.1957H5.58906C5.39114 72.1957 5.23091 72.0338 5.23091 71.834V71.8054C5.23091 71.6055 5.39114 71.4437 5.58906 71.4437H10.0754C10.2733 71.4437 10.4335 71.6055 10.4335 71.8054V71.834C10.4335 72.0338 10.2733 72.1957 10.0754 72.1957Z" fill="#BC9875"/>
<path d="M10.7823 72.1956H4.83506V73.0333H10.7823V72.1956Z" fill="#B0865D"/>
<path d="M10.0754 35.7504H5.55137C5.37229 35.7504 5.22149 35.5981 5.22149 35.4173V35.3887C5.22149 35.2079 5.37229 35.0556 5.55137 35.0556H10.0754C10.2545 35.0556 10.4053 35.2079 10.4053 35.3887V35.4173C10.3959 35.5981 10.2545 35.7504 10.0754 35.7504Z" fill="#BC9875"/>
<path d="M10.6686 34.3417H4.86271V35.0556H10.6686V34.3417Z" fill="#B0865D"/>
<path d="M24.8916 35.7504H20.377V72.0053H24.8916V35.7504Z" fill="#BC9875"/>
<path d="M21.131 71.1296C20.9896 71.1296 20.8765 71.0154 20.8765 70.8726V36.4928C20.8765 36.3501 20.9896 36.2358 21.131 36.2358C21.2724 36.2358 21.3855 36.3501 21.3855 36.4928V70.8726C21.3855 71.0154 21.2724 71.1296 21.131 71.1296Z" fill="#B0865D"/>
<path d="M22.1489 71.1296C22.0075 71.1296 21.8944 71.0154 21.8944 70.8726V36.4928C21.8944 36.3501 22.0075 36.2358 22.1489 36.2358C22.2903 36.2358 22.4034 36.3501 22.4034 36.4928V70.8726C22.4034 71.0154 22.2903 71.1296 22.1489 71.1296Z" fill="#B0865D"/>
<path d="M23.1762 71.1296C23.0349 71.1296 22.9218 71.0154 22.9218 70.8726V36.4928C22.9218 36.3501 23.0349 36.2358 23.1762 36.2358C23.3176 36.2358 23.4307 36.3501 23.4307 36.4928V70.8726C23.4307 71.0154 23.3082 71.1296 23.1762 71.1296Z" fill="#B0865D"/>
<path d="M24.1942 71.1296C24.0528 71.1296 23.9397 71.0154 23.9397 70.8726V36.4928C23.9397 36.3501 24.0528 36.2358 24.1942 36.2358C24.3355 36.2358 24.4486 36.3501 24.4486 36.4928V70.8726C24.4486 71.0154 24.3355 71.1296 24.1942 71.1296Z" fill="#B0865D"/>
<path d="M24.901 72.1861H20.4147C20.2168 72.1861 20.0565 72.0243 20.0565 71.8244V71.7959C20.0565 71.596 20.2168 71.4342 20.4147 71.4342H24.901C25.099 71.4342 25.2592 71.596 25.2592 71.7959V71.8244C25.2592 72.0243 25.099 72.1861 24.901 72.1861Z" fill="#BC9875"/>
<path d="M25.6079 72.1861H19.6607V73.0237H25.6079V72.1861Z" fill="#B0865D"/>
<path d="M24.901 35.7504H20.377C20.1979 35.7504 20.0471 35.5981 20.0471 35.4173V35.3887C20.0471 35.2079 20.1979 35.0556 20.377 35.0556H24.901C25.0801 35.0556 25.2309 35.2079 25.2309 35.3887V35.4173C25.2309 35.5981 25.0801 35.7504 24.901 35.7504Z" fill="#BC9875"/>
<path d="M25.5047 34.3417H19.6989V35.0556H25.5047V34.3417Z" fill="#B0865D"/>
<path d="M39.7173 35.7409H35.2026V71.9958H39.7173V35.7409Z" fill="#BC9875"/>
<path d="M35.9566 71.1296C35.8153 71.1296 35.7022 71.0154 35.7022 70.8726V36.4928C35.7022 36.3501 35.8153 36.2358 35.9566 36.2358C36.098 36.2358 36.2111 36.3501 36.2111 36.4928V70.8726C36.2111 71.0154 36.098 71.1296 35.9566 71.1296Z" fill="#B0865D"/>
<path d="M36.9746 71.1296C36.8332 71.1296 36.7201 71.0154 36.7201 70.8726V36.4928C36.7201 36.3501 36.8332 36.2358 36.9746 36.2358C37.1159 36.2358 37.229 36.3501 37.229 36.4928V70.8726C37.229 71.0154 37.1159 71.1296 36.9746 71.1296Z" fill="#B0865D"/>
<path d="M38.0019 71.1296C37.8605 71.1296 37.7474 71.0154 37.7474 70.8726V36.4928C37.7474 36.3501 37.8605 36.2358 38.0019 36.2358C38.1433 36.2358 38.2564 36.3501 38.2564 36.4928V70.8726C38.2564 71.0154 38.1433 71.1296 38.0019 71.1296Z" fill="#B0865D"/>
<path d="M39.0198 71.1296C38.8784 71.1296 38.7653 71.0154 38.7653 70.8726V36.4928C38.7653 36.3501 38.8784 36.2358 39.0198 36.2358C39.1612 36.2358 39.2743 36.3501 39.2743 36.4928V70.8726C39.2743 71.0154 39.1612 71.1296 39.0198 71.1296Z" fill="#B0865D"/>
<path d="M39.7267 72.1861H35.2498C35.0518 72.1861 34.8916 72.0243 34.8916 71.8244V71.7959C34.8916 71.596 35.0518 71.4342 35.2498 71.4342H39.7361C39.934 71.4342 40.0943 71.596 40.0943 71.7959V71.8244C40.0943 72.0243 39.9246 72.1861 39.7267 72.1861Z" fill="#BC9875"/>
<path d="M40.4336 72.1861H34.4863V73.0237H40.4336V72.1861Z" fill="#B0865D"/>
<path d="M39.7267 35.7409H35.2026C35.0236 35.7409 34.8728 35.5886 34.8728 35.4078V35.3792C34.8728 35.1984 35.0236 35.0461 35.2026 35.0461H39.7267C39.9058 35.0461 40.0566 35.1984 40.0566 35.3792V35.4078C40.0566 35.5981 39.9058 35.7409 39.7267 35.7409Z" fill="#BC9875"/>
<path d="M40.3304 34.3417H34.5245V35.0556H40.3304V34.3417Z" fill="#B0865D"/>
<path d="M45.0047 32.0859H5.55137V34.3512H45.0047V32.0859Z" fill="#BC9875"/>
<path d="M45.0047 31.7623H5.03299V32.0859H45.0047V31.7623Z" fill="#D1B79F"/>
<path d="M8.08671 28.4785H6.29594V31.7528H8.08671V28.4785Z" fill="#B0865D"/>
<path d="M12.8181 28.4785H11.0273V31.7528H12.8181V28.4785Z" fill="#B0865D"/>
<path d="M17.5401 28.4785H15.7493V31.7528H17.5401V28.4785Z" fill="#B0865D"/>
<path d="M22.2714 28.4785H20.4807V31.7528H22.2714V28.4785Z" fill="#B0865D"/>
<path d="M26.9934 28.4785H25.2026V31.7528H26.9934V28.4785Z" fill="#B0865D"/>
<path d="M31.7154 28.4785H29.9246V31.7528H31.7154V28.4785Z" fill="#B0865D"/>
<path d="M41.1687 28.4785H39.3779V31.7528H41.1687V28.4785Z" fill="#B0865D"/>
<path d="M36.4468 28.4785H34.656V31.7528H36.4468V28.4785Z" fill="#B0865D"/>
<path d="M45.9001 28.4785H44.1093V31.7528H45.9001V28.4785Z" fill="#B0865D"/>
<path d="M44.8822 27.1935H3.32705V28.4785H44.8822V27.1935Z" fill="#B0865D"/>
<path d="M44.9199 26.5463H2.84637V27.1935H44.9199V26.5463Z" fill="#BC9875"/>
<path d="M44.9293 26.5939H2.84637L2.11121 25.5564H44.9293V26.5939Z" fill="#B0865D"/>
<path d="M44.9293 25.0805H2.11121V25.5659H44.9293V25.0805Z" fill="#D1B79F"/>
<path d="M26.098 20.5689V21.3208H23.4402V22.0727H19.8963V22.8247H16.4656V23.5766H11.4703V24.3286H5.91895V25.0805H33.9397V24.3286V23.5766V22.8247V22.0727V21.3208V20.5689H26.098Z" fill="#BC9875"/>
<path d="M44.8822 16.8758H32.3657V17.4183H44.8822V16.8758Z" fill="#BC9875"/>
<path d="M44.9859 17.4183H44.7691H32.639V19.2173H44.7691H44.9859H57.1159V17.4183H44.9859Z" fill="#7C563E"/>
<path d="M44.8916 16.1429H33.902V16.8758H44.8916V16.1429Z" fill="#D1B79F"/>
<path d="M34.5806 17.4183H33.9397V18.7794H34.5806V17.4183Z" fill="#B0865D"/>
<path d="M35.4665 17.4183H34.8256V18.7794H35.4665V17.4183Z" fill="#B0865D"/>
<path d="M38.0019 17.4183H37.361V18.7794H38.0019V17.4183Z" fill="#B0865D"/>
<path d="M38.8973 17.4183H38.2564V18.7794H38.8973V17.4183Z" fill="#B0865D"/>
<path d="M41.4326 17.4183H40.7917V18.7794H41.4326V17.4183Z" fill="#B0865D"/>
<path d="M42.328 17.4183H41.6871V18.7794H42.328V17.4183Z" fill="#B0865D"/>
<path d="M79.6882 72.0038H84.2028V35.7489H79.6882V72.0038Z" fill="#BC9875"/>
<path d="M83.4496 71.1391C83.591 71.1391 83.704 71.0249 83.704 70.8821V36.4928C83.704 36.3501 83.591 36.2358 83.4496 36.2358C83.3082 36.2358 83.1951 36.3501 83.1951 36.4928V70.8726C83.1951 71.0154 83.3176 71.1391 83.4496 71.1391Z" fill="#B0865D"/>
<path d="M82.4317 71.1391C82.573 71.1391 82.6861 71.0249 82.6861 70.8821V36.4928C82.6861 36.3501 82.573 36.2358 82.4317 36.2358C82.2903 36.2358 82.1772 36.3501 82.1772 36.4928V70.8726C82.1772 71.0154 82.2903 71.1391 82.4317 71.1391Z" fill="#B0865D"/>
<path d="M81.4138 71.1391C81.5551 71.1391 81.6683 71.0249 81.6683 70.8821V36.4928C81.6683 36.3501 81.5551 36.2358 81.4138 36.2358C81.2724 36.2358 81.1593 36.3501 81.1593 36.4928V70.8726C81.1593 71.0154 81.2724 71.1391 81.4138 71.1391Z" fill="#B0865D"/>
<path d="M80.3864 71.1391C80.5278 71.1391 80.6409 71.0249 80.6409 70.8821V36.4928C80.6409 36.3501 80.5278 36.2358 80.3864 36.2358C80.2451 36.2358 80.132 36.3501 80.132 36.4928V70.8726C80.132 71.0154 80.2451 71.1391 80.3864 71.1391Z" fill="#B0865D"/>
<path d="M79.6795 72.1957H84.1659C84.3638 72.1957 84.524 72.0338 84.524 71.834V71.8054C84.524 71.6055 84.3638 71.4437 84.1659 71.4437H79.6795C79.4816 71.4437 79.3214 71.6055 79.3214 71.8054V71.834C79.3214 72.0338 79.4816 72.1957 79.6795 72.1957Z" fill="#BC9875"/>
<path d="M78.9718 73.0334H84.919V72.1958H78.9718V73.0334Z" fill="#B0865D"/>
<path d="M79.6795 35.7504H84.2036C84.3826 35.7504 84.5335 35.5981 84.5335 35.4173V35.3887C84.5335 35.2079 84.3826 35.0556 84.2036 35.0556H79.6795C79.5005 35.0556 79.3497 35.2079 79.3497 35.3887V35.4173C79.3591 35.5981 79.5005 35.7504 79.6795 35.7504Z" fill="#BC9875"/>
<path d="M79.0836 35.0618H84.8894V34.3479H79.0836V35.0618Z" fill="#B0865D"/>
<path d="M64.859 71.9969H69.3736V35.742H64.859V71.9969Z" fill="#BC9875"/>
<path d="M68.624 71.1296C68.7653 71.1296 68.8784 71.0154 68.8784 70.8726V36.4928C68.8784 36.3501 68.7653 36.2358 68.624 36.2358C68.4826 36.2358 68.3695 36.3501 68.3695 36.4928V70.8726C68.3695 71.0154 68.4826 71.1296 68.624 71.1296Z" fill="#B0865D"/>
<path d="M67.606 71.1296C67.7474 71.1296 67.8605 71.0154 67.8605 70.8726V36.4928C67.8605 36.3501 67.7474 36.2358 67.606 36.2358C67.4647 36.2358 67.3516 36.3501 67.3516 36.4928V70.8726C67.3516 71.0154 67.4647 71.1296 67.606 71.1296Z" fill="#B0865D"/>
<path d="M66.5787 71.1296C66.7201 71.1296 66.8332 71.0154 66.8332 70.8726V36.4928C66.8332 36.3501 66.7201 36.2358 66.5787 36.2358C66.4373 36.2358 66.3242 36.3501 66.3242 36.4928V70.8726C66.3242 71.0154 66.4468 71.1296 66.5787 71.1296Z" fill="#B0865D"/>
<path d="M65.5608 71.1296C65.7022 71.1296 65.8153 71.0154 65.8153 70.8726V36.4928C65.8153 36.3501 65.7022 36.2358 65.5608 36.2358C65.4194 36.2358 65.3063 36.3501 65.3063 36.4928V70.8726C65.3063 71.0154 65.4194 71.1296 65.5608 71.1296Z" fill="#B0865D"/>
<path d="M64.8539 72.1861H69.3403C69.5382 72.1861 69.6984 72.0243 69.6984 71.8244V71.7959C69.6984 71.596 69.5382 71.4342 69.3403 71.4342H64.8539C64.656 71.4342 64.4958 71.596 64.4958 71.7959V71.8244C64.4863 72.0243 64.656 72.1861 64.8539 72.1861Z" fill="#BC9875"/>
<path d="M64.1428 73.0361H70.09V72.1985H64.1428V73.0361Z" fill="#B0865D"/>
<path d="M64.8539 35.7504H69.378C69.557 35.7504 69.7078 35.5981 69.7078 35.4173V35.3887C69.7078 35.2079 69.557 35.0556 69.378 35.0556H64.8539C64.6748 35.0556 64.524 35.2079 64.524 35.3887V35.4173C64.524 35.5981 64.6748 35.7504 64.8539 35.7504Z" fill="#BC9875"/>
<path d="M64.2545 35.0549H70.0603V34.341H64.2545V35.0549Z" fill="#B0865D"/>
<path d="M50.03 71.9997H54.5446L54.5446 35.7448H50.03L50.03 71.9997Z" fill="#BC9875"/>
<path d="M53.7983 71.1296C53.9397 71.1296 54.0528 71.0154 54.0528 70.8726V36.4928C54.0528 36.3501 53.9397 36.2358 53.7983 36.2358C53.6569 36.2358 53.5438 36.3501 53.5438 36.4928V70.8726C53.5438 71.0154 53.6569 71.1296 53.7983 71.1296Z" fill="#B0865D"/>
<path d="M52.7804 71.1296C52.9218 71.1296 53.0349 71.0154 53.0349 70.8726V36.4928C53.0349 36.3501 52.9218 36.2358 52.7804 36.2358C52.639 36.2358 52.5259 36.3501 52.5259 36.4928V70.8726C52.5259 71.0154 52.639 71.1296 52.7804 71.1296Z" fill="#B0865D"/>
<path d="M51.7531 71.1296C51.8944 71.1296 52.0075 71.0154 52.0075 70.8726V36.4928C52.0075 36.3501 51.8944 36.2358 51.7531 36.2358C51.6117 36.2358 51.4986 36.3501 51.4986 36.4928V70.8726C51.4986 71.0154 51.6117 71.1296 51.7531 71.1296Z" fill="#B0865D"/>
<path d="M50.7351 71.1296C50.8765 71.1296 50.9896 71.0154 50.9896 70.8726V36.4928C50.9896 36.3501 50.8765 36.2358 50.7351 36.2358C50.5938 36.2358 50.4807 36.3501 50.4807 36.4928V70.8726C50.4807 71.0154 50.5938 71.1296 50.7351 71.1296Z" fill="#B0865D"/>
<path d="M50.0283 72.1861H54.5146C54.7125 72.1861 54.8728 72.0243 54.8728 71.8244V71.7959C54.8728 71.596 54.7125 71.4342 54.5146 71.4342H50.0283C49.8303 71.4342 49.6701 71.596 49.6701 71.7959V71.8244C49.6607 72.0243 49.8303 72.1861 50.0283 72.1861Z" fill="#BC9875"/>
<path d="M49.3137 73.0294H55.2609V72.1918H49.3137V73.0294Z" fill="#B0865D"/>
<path d="M50.0283 35.7409H54.5523C54.7314 35.7409 54.8822 35.5886 54.8822 35.4078V35.3792C54.8822 35.1984 54.7314 35.0461 54.5523 35.0461H50.0283C49.8492 35.0461 49.6984 35.1984 49.6984 35.3792V35.4078C49.6984 35.5981 49.8492 35.7409 50.0283 35.7409Z" fill="#BC9875"/>
<path d="M49.4253 35.0481H55.2312V34.3342H49.4253V35.0481Z" fill="#B0865D"/>
<path d="M44.7538 34.344L84.2072 34.344V32.0787L44.7538 32.0787V34.344Z" fill="#BC9875"/>
<path d="M44.7535 32.0809L84.7253 32.0809V31.7573L44.7535 31.7573V32.0809Z" fill="#D1B79F"/>
<path d="M81.661 31.7598H83.4517V28.4855H81.661V31.7598Z" fill="#B0865D"/>
<path d="M76.9409 31.7598H78.7317V28.4855H76.9409V31.7598Z" fill="#B0865D"/>
<path d="M72.2114 31.7598H74.0022V28.4855H72.2114V31.7598Z" fill="#B0865D"/>
<path d="M67.4819 31.7598H69.2727V28.4855H67.4819V31.7598Z" fill="#B0865D"/>
<path d="M62.7617 31.7598H64.5525V28.4855H62.7617V31.7598Z" fill="#B0865D"/>
<path d="M58.0322 31.7598H59.823V28.4855H58.0322V31.7598Z" fill="#B0865D"/>
<path d="M48.5827 31.7598H50.3734V28.4855H48.5827V31.7598Z" fill="#B0865D"/>
<path d="M53.3122 31.7598H55.1029V28.4855H53.3122V31.7598Z" fill="#B0865D"/>
<path d="M43.8532 31.7598H45.6439V28.4855H43.8532V31.7598Z" fill="#B0865D"/>
<path d="M44.8703 28.4827L86.4254 28.4827V27.1977L44.8703 27.1977V28.4827Z" fill="#B0865D"/>
<path d="M44.8337 27.2006L86.9073 27.2006V26.6104L44.8337 26.6104V27.2006Z" fill="#BC9875"/>
<path d="M44.8256 26.5939H86.9086L87.6437 25.5564H44.8256V26.5939Z" fill="#B0865D"/>
<path d="M44.8292 25.5574L87.6473 25.5574V25.072L44.8292 25.072V25.5574Z" fill="#D1B79F"/>
<path d="M78.2846 24.3286V23.5766H73.2894V22.8247H69.8586V22.0727H66.3148V21.3208H63.6569V20.5689H55.8153V21.3208V22.0727V22.8247V23.5766V24.3286V25.0805H83.836V24.3286H78.2846Z" fill="#BC9875"/>
<path d="M44.8711 17.422H57.3876V16.8794H44.8711V17.422Z" fill="#BC9875"/>
<path d="M44.8682 16.8786H55.8579V16.1457H44.8682V16.8786Z" fill="#D1B79F"/>
<path d="M55.1756 18.7804H55.8165V17.4193H55.1756V18.7804Z" fill="#B0865D"/>
<path d="M54.2911 18.7804H54.932V17.4193H54.2911V18.7804Z" fill="#B0865D"/>
<path d="M51.7471 18.7804H52.388V17.4193H51.7471V18.7804Z" fill="#B0865D"/>
<path d="M50.8627 18.7804H51.5036V17.4193H50.8627V18.7804Z" fill="#B0865D"/>
<path d="M48.3188 18.7804H48.9597V17.4193H48.3188V18.7804Z" fill="#B0865D"/>
<path d="M47.4249 18.7804H48.0658V17.4193H47.4249V18.7804Z" fill="#B0865D"/>
<path d="M39.9152 14.2202C39.9152 14.2202 40.6126 14.0774 40.3393 13.0495C40.066 12.0215 38.7936 11.2315 38.6334 10.8793C38.4637 10.5271 37.8982 8.1 37.1819 7.95723C36.4656 7.82397 36.918 9.32785 37.0123 9.43255C37.1065 9.53725 37.2856 10.8412 37.0877 11.1173C36.8897 11.3933 36.5316 11.4409 36.6164 12.3356C36.6635 12.8686 36.2959 13.2684 36.2959 13.3445C36.2959 13.4302 36.4467 15.2101 36.541 15.3434C36.6352 15.4766 36.8332 15.9145 36.8332 15.9145L37.1065 15.3434L36.786 15.0673C36.786 15.0673 36.6541 13.7348 36.852 13.573C37.05 13.4112 37.9171 13.4873 38.0019 13.6206C38.0961 13.7824 39.9152 14.2202 39.9152 14.2202Z" fill="#374245"/>
<path d="M41.6777 16.1429C41.6777 16.1429 41.5928 14.62 41.442 14.0013C41.2818 13.3731 40.7634 12.4784 40.8011 11.8026C40.8388 11.1268 41.3478 10.7175 41.442 10.2511C41.5269 9.79424 41.6965 7.94771 42.017 7.94771C42.3374 7.94771 42.4976 9.54677 42.6484 9.89894C42.7992 10.2511 43.016 10.6318 43.2611 11.4219C43.5061 12.2119 43.8266 12.4022 43.7795 13.3731C43.7323 14.3535 43.6569 14.896 43.6287 15.3053C43.6004 15.7146 43.6569 16.1429 43.6569 16.1429H41.6777Z" fill="#374245"/>
<path d="M41.4515 8.50928C41.4515 9.07086 41.6965 9.51821 41.9981 9.51821C42.2997 9.51821 42.5448 9.06134 42.5448 8.50928C42.5448 7.94771 42.6296 7.50035 41.9981 7.50035C41.4515 7.50035 41.4515 7.94771 41.4515 8.50928Z" fill="#374245"/>
<path d="M44.9859 4.68296H44.7031V15.9811H44.9859V4.68296Z" fill="#142023"/>
<path d="M44.8445 4.82573C44.2319 4.82573 43.7323 4.28319 43.7323 3.6074C43.7323 2.93161 44.2319 2.38907 44.8445 2.38907C45.4571 2.38907 45.9566 2.93161 45.9566 3.6074C45.9566 4.28319 45.4665 4.82573 44.8445 4.82573ZM44.8445 2.68413C44.3827 2.68413 44.0151 3.10293 44.0151 3.61692C44.0151 4.1309 44.3921 4.5497 44.8445 4.5497C45.3063 4.5497 45.6739 4.1309 45.6739 3.61692C45.6739 3.10293 45.3063 2.68413 44.8445 2.68413Z" fill="#374245"/>
<path d="M44.4109 1.91316C44.4109 2.36052 44.6089 2.73173 44.8445 2.73173C45.0801 2.73173 45.278 2.37004 45.278 1.91316C45.278 1.45629 45.0801 1.0946 44.8445 1.0946C44.6089 1.10412 44.4109 1.46581 44.4109 1.91316Z" fill="#374245"/>
<path d="M44.4486 1.58002C44.4486 1.58002 44.1942 1.6181 44.1093 1.48484C44.0245 1.35159 44.0622 0.942303 43.9208 0.913749C43.7889 0.885194 42.7521 0 42.7521 0C42.7521 0 42.46 0.742421 42.8181 1.4087C43.1763 2.07497 43.7229 2.36052 44.4581 2.2463C45.1838 2.13208 44.4486 1.58002 44.4486 1.58002Z" fill="#374245"/>
<path d="M45.2215 1.58002C45.2215 1.58002 45.476 1.6181 45.5608 1.48484C45.6456 1.35159 45.6079 0.942303 45.7493 0.913749C45.8812 0.885194 46.918 0 46.918 0C46.918 0 47.2102 0.742421 46.852 1.4087C46.4939 2.07497 45.9472 2.36052 45.2121 2.2463C44.4958 2.13208 45.2215 1.58002 45.2215 1.58002Z" fill="#374245"/>
<path d="M44.6183 0.96134C44.6183 1.12315 44.722 1.2564 44.8445 1.2564C44.967 1.2564 45.0707 1.12315 45.0707 0.96134C45.0707 0.79953 44.9764 0.666275 44.8445 0.666275C44.722 0.666275 44.6183 0.79953 44.6183 0.96134Z" fill="#374245"/>
<path d="M90 73.0333H0V81H90V73.0333Z" fill="#7C563E"/>
<path d="M39.934 12.2595C39.934 12.2595 40.4618 13.6301 38.935 13.4492C38.3883 13.3826 37.361 13.1256 37.2667 13.2684C37.2196 13.3541 36.8426 13.2969 36.852 13.592C36.852 13.592 37.3704 13.4588 37.6437 13.5254C37.7191 13.5444 38.3977 13.8109 38.558 13.8585C38.7276 13.9061 38.9821 14.4011 38.9915 14.4867C39.0104 14.5724 39.0763 14.9912 39.1235 15.153C39.1706 15.3148 38.7842 16.1429 38.7842 16.1429H40.4053C40.4053 16.1429 40.3016 15.3148 40.4053 15.1435C40.509 14.9626 40.4618 13.83 40.3959 13.3255C40.311 12.7354 39.934 12.2595 39.934 12.2595Z" fill="#142023"/>
<path d="M37.7945 11.9739C37.606 12.1833 37.6814 13.2589 37.8417 13.6491C38.0019 14.0394 38.1338 15.0959 38.1433 15.2672C38.1527 15.429 38.0396 16.1524 38.0396 16.1524H38.4731C38.4731 16.1524 38.3883 15.3434 38.4072 15.2196C38.426 15.1054 38.5014 14.2678 38.4731 13.9727C38.4449 13.6777 38.935 12.9353 38.6145 12.3356C38.2846 11.736 37.7945 11.9739 37.7945 11.9739Z" fill="#374245"/>
<path d="M37.6814 9.47063C37.7191 9.01375 37.6343 8.48073 37.6343 8.43314L36.7955 8.29037C36.7389 8.70917 36.9463 9.36592 37.0123 9.43255C37.1065 9.53725 37.2856 10.8412 37.0877 11.1173C37.0028 11.2315 36.8897 11.3172 36.7861 11.4409C36.9651 11.3457 37.1348 11.3647 37.2856 11.5075C37.4458 11.6693 37.3044 12.2785 37.4741 12.2499C37.8134 12.1928 37.8699 11.0602 37.7663 10.7651C37.6626 10.47 37.6437 9.93702 37.6814 9.47063Z" fill="#142023"/>
<path d="M36.8803 7.85252C36.673 7.84301 36.4373 8.04289 36.3902 8.11903C36.3431 8.19518 36.2582 9.09941 36.2865 9.26122C36.3148 9.42303 36.2865 9.75617 36.2865 9.97509C36.2865 10.194 36.2677 10.432 36.475 10.432C36.6824 10.432 36.8992 10.3653 37.0028 10.1179C37.1065 9.8799 37.1631 9.61339 37.3139 9.45158C37.4647 9.28978 37.7191 8.49024 37.5966 8.21422C37.4835 7.93819 37.2479 7.87156 36.8803 7.85252Z" fill="#374245"/>
<path d="M41.8002 12.8877C41.9227 12.564 42.196 12.3832 42.2714 12.4593C42.3845 12.5545 42.3186 13.7062 42.3186 14.2012C42.3186 14.5248 42.4411 14.9817 42.5448 15.41C42.639 15.8002 42.7144 16.181 42.7144 16.181L41.9981 16.1429V15.7051C41.9981 15.7051 42.0829 14.7342 41.9981 14.3725C41.9227 14.0203 41.7154 13.1256 41.8002 12.8877Z" fill="#142023"/>
<path d="M50.0094 14.2202C50.0094 14.2202 49.312 14.0774 49.5853 13.0495C49.8586 12.0215 51.131 11.2315 51.2912 10.8793C51.4609 10.5271 52.0264 8.1 52.7427 7.95723C53.459 7.82397 53.0066 9.32785 52.9123 9.43255C52.8181 9.53725 52.639 10.8412 52.8369 11.1173C53.0349 11.3933 53.393 11.4409 53.3082 12.3356C53.2611 12.8686 53.6286 13.2684 53.6286 13.3445C53.6286 13.4302 53.4778 15.2101 53.3836 15.3434C53.2893 15.4766 53.0914 15.9145 53.0914 15.9145L52.8181 15.3434L53.1385 15.0673C53.1385 15.0673 53.2705 13.7348 53.0726 13.573C52.8746 13.4112 52.0075 13.4873 51.9227 13.6206C51.8379 13.7824 50.0094 14.2202 50.0094 14.2202Z" fill="#374245"/>
<path d="M48.2564 16.1429C48.2564 16.1429 48.3412 14.62 48.492 14.0013C48.6522 13.3731 49.1706 12.4784 49.1329 11.8026C49.0952 11.1268 48.5863 10.7175 48.492 10.2511C48.4072 9.79424 48.2375 7.94771 47.9171 7.94771C47.5966 7.94771 47.4364 9.54677 47.2856 9.89894C47.1348 10.2511 46.918 10.6318 46.673 11.4219C46.4279 12.2119 46.1075 12.4022 46.1546 13.3731C46.2017 14.3535 46.2771 14.896 46.3054 15.3053C46.3337 15.7146 46.2771 16.1429 46.2771 16.1429H48.2564Z" fill="#374245"/>
<path d="M48.4731 8.50928C48.4731 9.07086 48.2281 9.51821 47.9265 9.51821C47.6249 9.51821 47.3798 9.06134 47.3798 8.50928C47.3798 7.94771 47.295 7.50035 47.9265 7.50035C48.4731 7.50035 48.4731 7.94771 48.4731 8.50928Z" fill="#374245"/>
<path d="M50 12.2595C50 12.2595 49.4722 13.6301 50.9991 13.4492C51.5457 13.3826 52.573 13.1256 52.6673 13.2684C52.7144 13.3541 53.0914 13.2969 53.082 13.592C53.082 13.592 52.5636 13.4588 52.2903 13.5254C52.2149 13.5444 51.5363 13.8109 51.3761 13.8585C51.2064 13.9061 50.9519 14.4011 50.9425 14.4867C50.9237 14.5724 50.8577 14.9912 50.8106 15.153C50.7634 15.3148 51.1499 16.1429 51.1499 16.1429H49.5287C49.5287 16.1429 49.6324 15.3148 49.5287 15.1435C49.4251 14.9722 49.4722 13.83 49.5382 13.3255C49.6136 12.7354 50 12.2595 50 12.2595Z" fill="#142023"/>
<path d="M52.1301 11.9739C52.3186 12.1833 52.2432 13.2589 52.0829 13.6491C51.9227 14.0394 51.7908 15.0959 51.7813 15.2672C51.7719 15.429 51.885 16.1524 51.885 16.1524H51.4609C51.4609 16.1524 51.5457 15.3434 51.5269 15.2196C51.508 15.1054 51.4326 14.2678 51.4609 13.9727C51.4892 13.6777 50.9991 12.9353 51.3195 12.3356C51.6494 11.736 52.1301 11.9739 52.1301 11.9739Z" fill="#374245"/>
<path d="M52.2432 9.47063C52.2055 9.01375 52.2903 8.48073 52.2903 8.43314L53.1291 8.29037C53.1857 8.70917 52.9783 9.36592 52.9123 9.43255C52.8181 9.53725 52.639 10.8412 52.8369 11.1173C52.9218 11.2315 53.0349 11.3172 53.1386 11.4409C52.9595 11.3457 52.7898 11.3647 52.639 11.5075C52.4788 11.6693 52.6202 12.2785 52.4505 12.2499C52.1112 12.1928 52.0547 11.0602 52.1583 10.7651C52.262 10.47 52.2809 9.93702 52.2432 9.47063Z" fill="#142023"/>
<path d="M53.0443 7.85252C53.2516 7.84301 53.4873 8.04289 53.5344 8.11903C53.5815 8.19518 53.6663 9.09941 53.6381 9.26122C53.6098 9.42303 53.6381 9.75617 53.6381 9.97509C53.6381 10.194 53.6569 10.432 53.4496 10.432C53.2422 10.432 53.0254 10.3653 52.9218 10.1179C52.8181 9.8799 52.7615 9.61339 52.6107 9.45158C52.4599 9.28978 52.2055 8.49024 52.328 8.21422C52.4411 7.93819 52.6767 7.87156 53.0443 7.85252Z" fill="#374245"/>
<path d="M48.1244 12.8877C48.0019 12.564 47.7286 12.3832 47.6532 12.4593C47.5401 12.5545 47.606 13.7062 47.606 14.2012C47.606 14.5248 47.4835 14.9817 47.3798 15.41C47.2856 15.8002 47.2102 16.181 47.2102 16.181L47.9265 16.1429V15.7051C47.9265 15.7051 47.8417 14.7342 47.9265 14.3725C48.0113 14.0203 48.2092 13.1256 48.1244 12.8877Z" fill="#142023"/>
<path d="M44.9859 19.2173H44.7691H33.902V25.0805H44.7691H44.9859H55.853V19.2173H44.9859Z" fill="#B0865D"/>
<path d="M54.9199 20.1691H34.8445V24.1287H54.9199V20.1691Z" fill="#BC9875"/>
<path d="M44.8633 17.4183H44.2224V18.7794H44.8633V17.4183Z" fill="#B0865D"/>
<path d="M45.7587 17.4183H45.1178V18.7794H45.7587V17.4183Z" fill="#B0865D"/>
<path d="M3.32705 27.5838V27.1935H86.4279V27.8789L3.32705 27.5838Z" fill="#CCC1B9"/>
<path d="M55.853 18.532L66.9557 25.0805H55.853V18.532Z" fill="#CCC1B9"/>
<path d="M5.55137 35.7504H10.0754L10.0848 71.4342H9.11405C9.11405 71.4342 9.36852 39.0532 8.85014 37.8063C8.20924 36.293 5.55137 35.7504 5.55137 35.7504Z" fill="#DFD8D3"/>
<path d="M20.3676 35.7504H24.8916L24.901 71.4342H23.9397C23.9397 71.4342 24.1942 39.0532 23.6758 37.8063C23.0349 36.293 20.3676 35.7504 20.3676 35.7504Z" fill="#DFD8D3"/>
<path d="M35.1932 35.7504H39.7172L39.7267 71.4342H38.7653C38.7653 71.4342 39.0198 39.0532 38.5014 37.8063C37.8605 36.293 35.1932 35.7504 35.1932 35.7504Z" fill="#DFD8D3"/>
<path d="M50.0189 35.7504H54.5429L54.5523 71.4342H53.591C53.591 71.4342 53.8454 39.0532 53.3271 37.8063C52.6862 36.293 50.0189 35.7504 50.0189 35.7504Z" fill="#DFD8D3"/>
<path d="M64.8445 35.7504H69.3685L69.378 71.4342H68.4166C68.4166 71.4342 68.6711 39.0532 68.1527 37.8063C67.5024 36.293 64.8445 35.7504 64.8445 35.7504Z" fill="#DFD8D3"/>
<path d="M79.6701 35.7504H84.1942L84.2036 71.4342H83.2422C83.2422 71.4342 83.4967 39.0532 82.9783 37.8063C82.328 36.293 79.6701 35.7504 79.6701 35.7504Z" fill="#DFD8D3"/>
<path d="M0 81H90V73.0333L0 81Z" fill="#7C563E"/>
</g>
<defs>
<clipPath id="clip0_1_278">
<rect width="90" height="81" fill="white"/>
</clipPath>
</defs>
</svg>
