<svg width="158" height="191" viewBox="0 0 158 191" fill="none" xmlns="http://www.w3.org/2000/svg">
<g opacity="0.2">
<path d="M67.4007 190.458C104.447 190.458 134.479 187.99 134.479 184.946C134.479 181.901 104.447 179.433 67.4007 179.433C30.3541 179.433 0.32196 181.901 0.32196 184.946C0.32196 187.99 30.3541 190.458 67.4007 190.458Z" fill="#369FFF"/>
</g>
<path d="M77.5174 187.521C48.2525 186.492 17.9802 182.498 2.30838 128.566C-2.35272 112.532 0.676636 100.393 5.79178 91.2414C7.05461 88.9783 8.44514 86.9067 9.87823 84.9983C10.4174 84.2817 10.9637 83.5865 11.51 82.9125C22.9463 68.8866 42.1228 63.8566 59.1284 70.0572C68.6634 73.5335 80.8944 78.67 91.7987 85.353C113.707 98.7829 118.85 114.086 126.008 140.35C126.626 142.606 127.236 145.131 127.704 147.82C127.952 149.253 128.158 150.736 128.3 152.24C129.889 169.04 123.412 189.132 77.5174 187.521Z" fill="#8AC53E"/>
<path d="M128.3 152.247C127.328 154.979 125.944 157.76 124.1 160.399C118.566 168.33 107.038 177.908 83.5689 178.532C82.5331 178.561 81.5186 178.575 80.5112 178.575C71.5437 178.575 63.6333 177.49 56.404 175.283C48.8413 172.977 42.2433 169.487 36.2272 164.634C26.1743 156.518 17.8808 144.649 9.36024 126.154C5.99035 118.846 4.24509 111.44 4.17415 104.139C4.13158 99.7903 4.67077 95.4698 5.7988 91.2556C7.06162 88.9925 8.45215 86.9209 9.88524 85.0125C9.52342 85.8496 9.16869 86.7293 8.83525 87.6445C5.77042 96.0515 3.65625 109.432 11.0133 125.394C25.9756 157.866 43.3217 177.773 83.5264 176.723C106.243 176.127 117.325 166.954 122.617 159.37C125.384 155.411 126.945 151.403 127.711 147.834C127.952 149.26 128.158 150.736 128.3 152.247Z" fill="#006838" fill-opacity="0.4"/>
<path d="M86.4353 52.7181C86.4353 52.7181 104.81 77.6483 109.003 90.0708C113.196 102.493 103.022 111.312 103.022 111.312L93.5724 114.859C93.5724 114.852 83.86 71.0007 86.4353 52.7181Z" fill="#006ED3"/>
<path d="M84.8106 122.549C76.7796 125.21 57.1561 132.191 48.6356 129.367C48.2738 129.247 47.9403 129.112 47.6211 128.956C46.6917 128.502 45.9468 127.892 45.4218 127.097C42.0803 122.01 38.7671 100.663 40.257 88.1198C40.4414 86.5519 40.5337 84.8492 40.562 83.0614C40.6046 80.4293 40.5195 77.6128 40.406 74.7821C39.9874 64.1261 38.306 56.7691 42.8678 54.1796C46.9613 51.8526 52.1403 50.0364 55.4392 49.2489C57.4825 48.7594 60.8311 47.7378 63.1794 47.7803L73.3387 49.6249C73.3387 49.6249 82.1075 51.0864 84.1295 52.5833C86.1514 54.0732 87.1872 60.6498 90.8409 66.6731C94.4946 72.6963 95.2892 78.7408 91.7987 85.3529C88.7622 91.1066 89.2943 88.9215 88.897 98.3572C88.4146 109.921 100.497 117.356 84.8106 122.549Z" fill="white"/>
<g opacity="0.8">
<g opacity="0.8">
<path opacity="0.8" d="M57.8373 68.3687C57.8373 68.3687 68.848 65.5238 82.9022 68.1487L83.2428 77.8611C83.2428 77.8611 67.7909 76.1443 58.0572 78.6203L57.8373 68.3687Z" fill="#CED3E6"/>
</g>
</g>
<g opacity="0.8">
<path opacity="0.8" d="M70.4868 60.1674C70.3378 60.1674 70.1888 60.1604 70.0327 60.1533C64.0166 59.8411 58.497 54.5344 58.27 54.3074C58.1068 54.1513 58.1068 53.8888 58.2629 53.7256C58.419 53.5625 58.6815 53.5624 58.8447 53.7185C58.9014 53.7682 64.3713 59.0394 70.0753 59.3303C75.5381 59.6212 76.1979 54.201 76.2262 53.9668C76.2546 53.7398 76.4533 53.5766 76.6803 53.605C76.9073 53.6263 77.0705 53.832 77.0421 54.0591C77.0421 54.1229 76.3185 60.1674 70.4868 60.1674Z" fill="#CED3E6"/>
</g>
<g opacity="0.8">
<path opacity="0.8" d="M53.4315 108.793C53.389 108.758 53.3535 108.722 53.318 108.673C53.1974 108.467 53.2613 108.204 53.4599 108.084C61.2852 103.345 68.7912 101.677 73.7077 101.11C79.0499 100.493 82.4907 100.989 82.6326 101.018C82.8667 101.053 83.0299 101.273 82.9944 101.507C82.9589 101.741 82.739 101.905 82.5049 101.869C82.4694 101.862 79.0073 101.365 73.7715 101.975C68.9473 102.536 61.5761 104.182 53.8998 108.829C53.7579 108.907 53.5734 108.893 53.4315 108.793Z" fill="#CED3E6"/>
</g>
<path d="M63.6618 126.416C56.4325 124.125 49.8914 119.513 45.4289 115.405C45.0742 115.079 44.7336 114.76 44.4073 114.441C42.0945 112.192 40.4627 113.348 39.7533 112.057C37.0503 107.112 38.5827 87.7084 39.7533 80.5784C40.9239 73.4555 36.0074 60.4016 38.6536 55.7334C41.2999 51.0652 50.4163 49.4334 50.4163 49.4334C50.4163 49.4334 49.1251 47.9294 51.5728 46.2054C54.0204 44.4815 60.5331 45.198 60.5331 45.198C60.8453 76.0379 65.2155 104.678 63.6618 126.416Z" fill="#369FFF"/>
<path d="M56.5531 117.576C56.3545 117.576 56.1842 117.434 56.1558 117.236C52.864 95.8458 56.1204 55.6056 56.1558 55.2013C56.1771 54.9813 56.3687 54.8182 56.5886 54.8323C56.8085 54.8536 56.9788 55.0452 56.9575 55.2651C56.922 55.6695 53.6799 95.8103 56.9575 117.108C56.993 117.328 56.8369 117.534 56.617 117.569C56.5957 117.576 56.5744 117.576 56.5531 117.576Z" fill="white"/>
<path d="M63.1724 120.783C62.9808 120.783 62.8106 120.648 62.7751 120.45C58.4687 95.8812 58.1282 53.4844 58.1282 53.0587C58.1282 52.8388 58.3055 52.6543 58.5255 52.6543C58.7454 52.6543 58.9299 52.8317 58.9299 53.0516C58.9299 53.4773 59.2775 95.8032 63.5697 120.308C63.6051 120.528 63.4633 120.733 63.2433 120.776C63.2149 120.783 63.1937 120.783 63.1724 120.783Z" fill="#006ED3"/>
<path d="M56.0281 52.8175C55.9926 52.8175 55.9571 52.8104 55.9216 52.8033C52.5163 51.8952 50.4305 49.8874 50.3383 49.8023C50.1822 49.6462 50.1751 49.3908 50.3312 49.2347C50.4872 49.0787 50.7426 49.0716 50.8987 49.2276C50.92 49.2489 52.9278 51.1786 56.1203 52.03C56.3331 52.0867 56.4608 52.3067 56.4041 52.5266C56.3686 52.6969 56.2054 52.8175 56.0281 52.8175Z" fill="#006ED3"/>
<path d="M94.9842 112.951C94.9842 112.951 92.4089 121.627 82.8171 125.763C81.6252 102.238 78.9293 75.371 75.4459 46.7943C75.4459 46.7943 79.1138 46.1487 80.6391 48.2487C81.2989 49.1497 81.4408 50.6821 81.4408 50.6821C81.4408 50.6821 83.3137 51.0439 85.3641 52.0017C87.4144 52.9594 87.1803 54.2719 87.6698 57.6063C88.1593 60.9407 93.3099 66.0985 94.9842 73.0866C96.6585 80.0747 92.2174 84.53 90.8339 90.3972C89.4434 96.2502 94.9842 112.951 94.9842 112.951Z" fill="#369FFF"/>
<path d="M86.7474 116.59C86.5275 116.59 86.3501 116.42 86.343 116.2C85.4136 84.1966 79.5678 55.5985 79.511 55.3148C79.4684 55.0948 79.6032 54.882 79.8232 54.8394C80.0431 54.7969 80.2559 54.9317 80.2985 55.1516C80.3553 55.4354 86.2153 84.0972 87.1447 116.179C87.1518 116.399 86.9744 116.59 86.7545 116.59C86.7545 116.59 86.7545 116.59 86.7474 116.59Z" fill="white"/>
<path d="M77.9219 53.7043C77.7303 53.7043 77.56 53.5624 77.5246 53.3709C77.4891 53.151 77.6381 52.9452 77.8509 52.9026C77.8793 52.8955 80.4617 52.4273 81.0505 50.5614C81.1144 50.3486 81.3414 50.228 81.5543 50.299C81.7671 50.3628 81.8806 50.5898 81.8168 50.8027C81.0718 53.1439 78.1063 53.6759 77.9857 53.6972C77.9644 53.6972 77.9432 53.7043 77.9219 53.7043Z" fill="#006ED3"/>
<path d="M85.8109 116.59C85.6122 116.59 85.4349 116.441 85.4136 116.235C82.5758 92.639 78.092 54.9316 78.0495 54.5556C78.0211 54.3357 78.1843 54.1371 78.4042 54.1087C78.6241 54.0803 78.8228 54.2435 78.8512 54.4634C78.8937 54.8394 83.3775 92.5539 86.2153 116.143C86.2437 116.363 86.0876 116.562 85.8605 116.59C85.8393 116.59 85.8251 116.59 85.8109 116.59Z" fill="#006ED3"/>
<path d="M61.9805 133.532C63.2078 134.412 65.1375 135.327 68.0392 136.249C84.4985 141.485 99.5885 133.035 99.5885 133.035C100.504 128.53 99.9362 123.408 98.4179 121.535C98.8933 120.868 98.5811 120.074 98.5811 120.074L113.728 104.352C105.115 111.489 94.4592 113.823 86.1657 118.839C86.1657 118.839 86.1657 118.839 86.1586 118.839C83.7678 120.286 81.6181 121.556 80.0431 122.436C77.6381 123.784 74.5733 123.919 71.5652 123.5C65.7051 122.691 60.0863 119.804 60.0863 119.804C60.0863 119.804 41.2219 111.255 37.6888 111.539C34.9433 111.759 49.7424 127.204 61.9805 133.532Z" fill="#FF993A"/>
<path d="M91.132 146.714C91.132 146.714 86.2794 145.316 84.7825 143.741L81.4055 151.687L92.8915 155.27C92.8986 155.27 93.0547 148.288 91.132 146.714Z" fill="#EA9B7A"/>
<path d="M118.85 169.664L104.002 136.71C103.448 136.668 102.753 136.817 101.973 137.1C99.0922 138.15 95.0412 141.045 92.4375 142.741C92.1324 142.939 91.8487 143.124 91.5862 143.287C91.1463 143.556 90.7703 143.769 90.4865 143.904C88.195 144.933 89.401 146.167 89.401 146.167C93.6719 148.303 91.0683 154.631 93.6719 156.107C93.6719 156.107 94.7787 156.752 98.3118 158.306C101.845 159.86 105.399 163.613 108.691 166.685C112.941 170.658 115.608 171.119 117.134 170.757C118.354 170.473 118.85 169.664 118.85 169.664Z" fill="#006ED3"/>
<path d="M118.85 169.664L104.001 136.71C103.448 136.668 102.753 136.817 101.972 137.1L117.133 170.757C118.354 170.473 118.85 169.664 118.85 169.664Z" fill="#369FFF"/>
<path d="M105.52 140.073L105.08 139.094C104.406 140.577 103.1 142.258 100.603 143.244C97.2759 144.55 94.1968 143.585 92.4445 142.748C92.1394 142.946 91.8556 143.131 91.5931 143.294C93.3739 144.252 96.9282 145.614 100.915 144.053C103.299 143.102 104.704 141.556 105.52 140.073Z" fill="#369FFF"/>
<path d="M100.007 156.873C99.9009 156.632 99.6313 156.483 99.3546 156.532C99.0283 156.589 98.8154 156.901 98.8722 157.228L99.2908 159.519C99.3475 159.846 99.6597 160.058 99.986 160.002C100.312 159.945 100.525 159.633 100.468 159.306L100.05 157.015C100.043 156.965 100.029 156.915 100.007 156.873Z" fill="white"/>
<path d="M97.3752 155.603C97.2688 155.362 96.9992 155.213 96.7225 155.262C96.3961 155.319 96.1833 155.631 96.24 155.958L96.6586 158.249C96.7154 158.576 97.0275 158.788 97.3539 158.732C97.6802 158.675 97.8931 158.363 97.8363 158.036L97.4177 155.745C97.4106 155.688 97.3965 155.646 97.3752 155.603Z" fill="white"/>
<path d="M102.136 158.391C102.029 158.15 101.76 158.001 101.483 158.051C101.157 158.107 100.944 158.419 101 158.746L101.419 161.037C101.476 161.364 101.788 161.577 102.114 161.52C102.441 161.463 102.654 161.151 102.597 160.825L102.178 158.533C102.171 158.483 102.157 158.434 102.136 158.391Z" fill="white"/>
<path d="M104.214 159.931C104.108 159.689 103.838 159.54 103.562 159.59C103.235 159.647 103.022 159.959 103.079 160.285L103.498 162.577C103.555 162.903 103.867 163.116 104.193 163.059C104.519 163.002 104.732 162.69 104.675 162.364L104.257 160.072C104.243 160.023 104.229 159.973 104.214 159.931Z" fill="white"/>
<path d="M106.286 161.697C106.18 161.456 105.91 161.307 105.633 161.357C105.307 161.413 105.094 161.726 105.151 162.052L105.569 164.343C105.626 164.67 105.938 164.883 106.265 164.826C106.591 164.769 106.804 164.457 106.747 164.131L106.329 161.839C106.321 161.789 106.307 161.74 106.286 161.697Z" fill="white"/>
<path d="M108.294 163.726C108.187 163.485 107.918 163.336 107.641 163.386C107.315 163.442 107.102 163.755 107.159 164.081L107.577 166.372C107.634 166.699 107.946 166.912 108.272 166.855C108.599 166.798 108.812 166.486 108.755 166.16L108.336 163.868C108.322 163.811 108.308 163.769 108.294 163.726Z" fill="white"/>
<path d="M37.696 111.539C37.696 111.539 25.7559 105.097 18.8458 110.077C6.2034 119.187 27.6572 136.703 52.2043 145.259C76.7513 153.815 84.7184 152.645 84.7184 152.645C84.7184 152.645 90.0535 151.176 88.1593 142.535C88.1593 142.535 74.0128 137.157 66.6487 131.524C59.2775 125.884 54.2617 118.981 37.696 111.539Z" fill="#FF993A"/>
<path d="M87.1945 145.046C82.0439 143.812 71.5582 138.995 59.1357 132.177C49.8419 127.076 39.1291 120.556 37.5542 118.293C36.7028 117.073 36.49 116.072 36.9157 115.32C37.5542 114.199 39.3987 114.086 40.2359 114.093C40.4487 114.093 40.619 114.277 40.6048 114.49C40.5906 114.689 40.4274 114.838 40.2288 114.838C39.4058 114.831 37.9656 114.973 37.5613 115.689C37.2207 116.285 37.7031 117.2 38.1643 117.86C39.4342 119.683 48.4017 125.43 59.4904 131.517C69.0396 136.76 81.377 142.875 87.3648 144.316L87.1945 145.046Z" fill="#FF7E07"/>
<path d="M86.2226 141.386C85.6408 145.926 84.4632 150.055 81.902 153.226C81.902 153.226 84.1013 154.808 86.1091 153.673C87.6415 152.808 90.5999 145.713 89.4719 141.925C88.1878 141.222 87.081 140.974 86.2226 141.386Z" fill="#FF7E07"/>
<path d="M55.0775 145.812C55.0775 145.812 59.9585 144.869 61.342 143.195L65.2369 150.892L54.0204 155.234C54.0133 155.241 53.2613 147.515 55.0775 145.812Z" fill="#EA9B7A"/>
<path d="M29.0832 171.339L41.6973 137.469C42.2506 137.384 42.9459 137.491 43.7476 137.725C46.6918 138.583 50.9272 141.194 53.6373 142.719C53.9566 142.897 54.2474 143.06 54.5241 143.202C54.9853 143.443 55.3684 143.634 55.6664 143.741C58.0217 144.613 57.0427 145.28 57.0427 145.28C52.4029 147.458 55.8011 154.482 53.3039 156.135C53.3039 156.135 52.2397 156.852 48.8201 158.639C45.4006 160.427 42.1016 164.407 39.0226 167.692C35.0497 171.934 32.4176 172.58 30.871 172.318C29.6366 172.112 29.0832 171.339 29.0832 171.339Z" fill="#006ED3"/>
<path d="M29.0832 171.339L41.6973 137.469C42.2506 137.384 42.9459 137.491 43.7476 137.725L30.8639 172.318C29.6366 172.112 29.0832 171.339 29.0832 171.339Z" fill="#369FFF"/>
<path d="M40.406 140.924L40.782 139.917C41.5553 141.35 42.9671 142.946 45.5283 143.755C48.9336 144.84 51.9417 143.67 53.6373 142.712C53.9565 142.889 54.2474 143.053 54.5241 143.195C52.8143 144.273 49.3522 145.869 45.2728 144.571C42.8252 143.805 41.3212 142.343 40.406 140.924Z" fill="#369FFF"/>
<path d="M47.0253 157.32C47.1175 157.071 47.3729 156.901 47.6496 156.937C47.9759 156.972 48.2101 157.27 48.1746 157.596L47.9121 159.909C47.8766 160.236 47.5786 160.47 47.2523 160.434C46.9259 160.399 46.6918 160.101 46.7273 159.774L46.9898 157.462C46.9969 157.412 47.0111 157.362 47.0253 157.32Z" fill="white"/>
<path d="M49.5721 155.873C49.6643 155.624 49.9197 155.454 50.1964 155.489C50.5228 155.525 50.7569 155.823 50.7214 156.149L50.4589 158.462C50.4234 158.788 50.1255 159.022 49.7991 158.987C49.4728 158.952 49.2386 158.654 49.2741 158.327L49.5366 156.014C49.5437 155.965 49.5579 155.915 49.5721 155.873Z" fill="white"/>
<path d="M45.0104 158.98C45.1026 158.732 45.358 158.568 45.6347 158.597C45.961 158.632 46.1952 158.93 46.1597 159.257L45.8972 161.569C45.8617 161.896 45.5638 162.13 45.2374 162.094C44.9111 162.059 44.6769 161.761 44.7124 161.435L44.9749 159.122C44.982 159.072 44.9962 159.022 45.0104 158.98Z" fill="white"/>
<path d="M43.0382 160.654C43.1304 160.406 43.3858 160.243 43.6625 160.271C43.9888 160.307 44.2229 160.605 44.1875 160.931L43.925 163.244C43.8895 163.57 43.5915 163.804 43.2652 163.769C42.9388 163.733 42.7047 163.435 42.7402 163.109L43.0027 160.796C43.0098 160.746 43.024 160.697 43.0382 160.654Z" fill="white"/>
<path d="M41.0871 162.555C41.1793 162.307 41.4347 162.144 41.7114 162.172C42.0377 162.208 42.2718 162.506 42.2364 162.832L41.9739 165.145C41.9384 165.471 41.6404 165.705 41.3141 165.67C40.9877 165.635 40.7536 165.337 40.7891 165.01L41.0516 162.697C41.0587 162.648 41.0729 162.598 41.0871 162.555Z" fill="white"/>
<path d="M39.2213 164.705C39.3135 164.457 39.5689 164.287 39.8456 164.322C40.1719 164.358 40.406 164.656 40.3706 164.982L40.1081 167.295C40.0726 167.621 39.7746 167.855 39.4483 167.82C39.1219 167.784 38.8878 167.486 38.9233 167.16L39.1858 164.847C39.1929 164.797 39.2071 164.755 39.2213 164.705Z" fill="white"/>
<path d="M108.861 106.303C108.861 106.303 120.156 98.79 127.498 103.118C140.928 111.028 121.17 130.439 97.5099 141.208C73.8567 151.978 65.8116 151.545 65.8116 151.545C65.8116 151.545 60.3701 150.573 61.4555 141.79C61.4555 141.79 75.0486 135.135 81.8665 128.849C88.6843 122.571 93.0474 115.235 108.861 106.303Z" fill="#FF993A"/>
<path d="M88.2018 145.259C86.8964 145.685 85.5768 146.118 84.2076 146.55C78.9151 148.218 72.8706 149.963 67.4007 151.304L67.3794 152.084C72.3243 150.878 78.1205 149.246 84.4275 147.26C85.662 146.87 86.9177 146.465 88.1805 146.047L88.2018 145.259Z" fill="#FF7E07"/>
<path d="M62.6473 144.209C67.6632 142.506 77.6665 136.753 89.4079 128.821C98.1909 122.89 108.265 115.412 109.62 113.014C110.351 111.723 110.479 110.709 109.982 109.999C109.244 108.942 107.4 108.992 106.562 109.077C106.35 109.098 106.194 109.297 106.229 109.51C106.264 109.701 106.435 109.836 106.633 109.822C107.456 109.744 108.897 109.751 109.372 110.425C109.762 110.985 109.372 111.943 108.975 112.646C107.882 114.575 99.475 121.116 88.9893 128.204C79.9651 134.298 68.2378 141.52 62.4061 143.507L62.6473 144.209Z" fill="#FF7E07"/>
<path d="M63.2716 140.477C64.2649 144.947 65.8186 148.948 68.6635 151.871C68.6635 151.871 66.6203 153.652 64.5203 152.701C62.9169 151.978 59.32 145.181 60.0933 141.307C61.3065 140.492 62.3848 140.151 63.2716 140.477Z" fill="#FF7E07"/>
<path d="M61.7464 104.643L60.8383 117.605C60.8383 117.605 45.4219 115.405 37.8591 113.476C35.6527 112.915 33.1838 112.192 30.9136 110.986C26.7349 108.765 23.2728 104.898 23.5282 97.364C23.6062 94.9448 24.0745 92.1496 25.0251 88.9003C30.5305 70.0785 39.7533 54.2719 39.7533 54.2719C51.6225 59.3516 50.6221 67.8083 50.6221 67.8083C47.2381 76.8396 39.7533 96.0728 39.7533 96.0728C44.1023 101.387 61.7464 104.643 61.7464 104.643Z" fill="#369FFF"/>
<path d="M39.7533 96.4773C39.6823 96.4773 39.6043 96.456 39.5404 96.4134C38.228 95.6046 34.6594 94.7604 34.6239 94.7533C34.404 94.7036 34.2692 94.4837 34.326 94.2709C34.3756 94.0509 34.5956 93.9232 34.8084 93.9729C34.9361 94.0013 37.4405 94.5901 39.0935 95.2996C38.8523 94.7604 38.455 94.1857 37.9087 93.5614C37.7597 93.3911 37.781 93.1428 37.9442 92.9938C38.1144 92.8449 38.3628 92.8661 38.5117 93.0293C39.4624 94.1077 40.0016 95.0867 40.1506 96.0161C40.1789 96.1722 40.108 96.3283 39.9803 96.4134C39.9094 96.456 39.8313 96.4773 39.7533 96.4773Z" fill="#084FC7"/>
<path d="M30.9207 110.985C26.742 108.765 23.2799 104.898 23.5353 97.364C26.8414 99.0951 32.6092 103.295 30.9207 110.985Z" fill="#006ED3"/>
<path d="M52.0552 102.649C52.0198 102.649 51.9914 102.642 51.9559 102.635C44.3222 100.663 39.6824 96.5482 39.4909 96.3708C39.3561 96.2502 39.3206 96.0516 39.3986 95.8884C44.8472 85.1827 48.2881 76.6835 50.239 69.1349C50.2958 68.9221 50.5157 68.7873 50.7286 68.8441C50.9414 68.9008 51.0762 69.1208 51.0194 69.3336C49.0685 76.8751 45.6489 85.3388 40.2571 95.9664C41.2858 96.8178 45.656 100.173 52.1546 101.848C52.3674 101.905 52.5022 102.124 52.4454 102.337C52.3958 102.529 52.2326 102.649 52.0552 102.649Z" fill="#084FC7"/>
<path d="M48.9974 75.144C48.9123 75.144 48.82 75.1156 48.7491 75.0589C48.5717 74.917 48.5434 74.6687 48.6853 74.4913L51.516 70.937C51.6579 70.7596 51.9062 70.7312 52.0835 70.8731C52.2609 71.015 52.2893 71.2633 52.1474 71.4407L49.3167 74.995C49.2315 75.0873 49.118 75.144 48.9974 75.144Z" fill="#084FC7"/>
<path d="M62.1934 42.4737L75.8858 44.4318C84.7823 43.545 87.613 40.0048 89.0674 32.5272C89.7981 28.7671 89.3157 25.4469 88.5992 22.978C88.4147 20.1686 87.7691 17.7422 86.4424 16.1389C80.4334 8.89536 75.1409 9.17914 75.1409 9.17914C72.452 7.9447 63.5697 7.10045 57.7096 14.2163C57.5252 14.3723 53.9495 18.1608 53.1266 26.1067C52.332 33.6836 57.3904 43.3605 62.1934 42.4737Z" fill="#39393B"/>
<path d="M69.8412 11.1656C69.8412 11.1656 71.2672 -1.46265 60.0579 0.140709C52.7363 1.1836 48.2029 11.1088 54.9002 15.6139C61.5974 20.1189 69.8412 11.1656 69.8412 11.1656Z" fill="#39393B"/>
<path d="M56.0282 16.9122C55.9715 16.9122 55.9147 16.898 55.858 16.8696C55.6877 16.7774 55.6239 16.5574 55.7161 16.3872C58.3127 11.6693 62.016 9.58352 64.6623 8.66123C67.5356 7.668 69.7703 7.7886 69.8626 7.7886C70.0612 7.80279 70.2102 7.96597 70.196 8.16461C70.1818 8.36326 70.0186 8.51224 69.82 8.49805C69.7349 8.49096 61.0866 8.09367 56.3404 16.7277C56.2695 16.8412 56.1489 16.9122 56.0282 16.9122Z" fill="#006ED3"/>
<path d="M63.2647 39.6217C63.2647 39.6217 54.5313 34.7336 56.2482 24.5601C57.9651 14.3865 64.6623 8.26394 74.9281 11.2153C74.9352 11.2153 73.9348 40.622 63.2647 39.6217Z" fill="#39393B"/>
<path d="M87.5562 20.9135C87.5562 20.9135 88.4502 29.6468 86.8539 30.9096C85.2647 32.1725 83.7039 28.7174 83.7039 28.7174C83.7039 28.7174 85.8748 21.0128 87.5562 20.9135Z" fill="#39393B"/>
<path d="M83.5336 31.7042C83.5336 31.7042 86.1373 29.4198 87.0028 32.2221C87.8684 35.0245 86.116 40.1822 82.8738 38.813L83.5336 31.7042Z" fill="#D46A43"/>
<path d="M86.7403 38.1744C86.3856 38.5008 85.9883 38.7845 85.5555 39.0187C83.9167 39.8984 81.7812 40.0048 79.213 38.6568C79.213 38.6568 75.9283 34.3859 80.7809 26.8516C80.7809 26.8516 85.2292 25.681 87.7761 28.3698C88.0599 28.6678 88.3153 29.0083 88.5423 29.4056C88.6842 29.6468 88.8048 29.9093 88.9183 30.1931C89.8193 32.4846 88.9822 36.1383 86.7403 38.1744Z" fill="#FF993A"/>
<path d="M86.6267 27.4546C86.8324 26.4472 87.0382 25.1986 87.173 23.8151C87.1091 23.8435 87.0453 23.8648 86.9743 23.8648C86.6976 23.8861 86.4281 23.7726 86.1585 23.5739C86.0379 24.8651 85.8534 26.0357 85.6689 27.0077L86.6267 27.4546Z" fill="white"/>
<path d="M86.7403 38.1744C86.3856 38.5008 85.9883 38.7846 85.5555 39.0187C87.8045 34.3576 87.8684 30.1009 87.7761 28.3698C88.0599 28.6678 88.3153 29.0083 88.5423 29.4056C88.5423 31.3637 88.2515 34.5846 86.7403 38.1744Z" fill="#FF7E07"/>
<path d="M75.9424 44.3041L74.8711 51.5263C74.8711 51.5263 70.4512 57.1948 60.2209 47.9507C61.3844 45.0135 63.1723 41.2321 62.7111 38.3376C62.7111 38.3376 63.4561 39.0258 64.7473 39.8416C65.0098 40.0119 65.2935 40.1893 65.5915 40.3666C68.2449 41.9842 72.3029 44.0487 75.9424 44.3041Z" fill="#EA9B7A"/>
<path d="M75.9424 44.3041L75.4387 47.6811C72.4519 46.5318 67.287 44.0416 64.7401 39.8345C65.0026 40.0048 65.2864 40.1822 65.5844 40.3595C68.2448 41.9842 72.3029 44.0487 75.9424 44.3041Z" fill="#39393B"/>
<path d="M85.7542 32.0235C85.6407 32.7684 85.5343 33.4708 85.4207 34.1376C84.5978 39.118 83.8458 41.7997 82.4623 42.8639C75.46 48.2345 63.1156 38.742 62.7183 38.4369C62.7112 38.4298 62.7112 38.4298 62.7112 38.4298C62.6686 37.8481 62.6403 37.2734 62.6261 36.713C62.4629 31.9171 63.0517 27.5752 64.1443 23.5242C64.5629 19.1469 67.7483 15.4862 72.0547 14.6064C76.5171 13.6983 80.036 16.1247 82.214 17.1605C85.4988 18.7354 87.0028 23.5101 86.0805 29.8526C85.967 30.6117 85.8606 31.3424 85.7542 32.0235Z" fill="#EA9B7A"/>
<path d="M79.4968 37.8268C75.5806 37.8268 74.0127 34.0809 73.9985 34.0383C73.9276 33.8539 74.0127 33.6481 74.1972 33.5772C74.3816 33.5063 74.5874 33.5914 74.6583 33.7759C74.7293 33.939 76.3681 37.8268 80.639 37.0039C80.8306 36.9684 81.0221 37.0961 81.0576 37.2876C81.093 37.4792 80.9653 37.6636 80.7738 37.7062C80.3197 37.7913 79.8941 37.8268 79.4968 37.8268Z" fill="#39393B"/>
<path d="M76.4815 24.3047C77.489 23.957 77.2832 22.4743 76.219 22.4033C74.4099 22.2827 71.5012 22.3324 71.26 23.7939C70.9053 25.9293 74.2822 25.0425 76.4177 24.326C76.439 24.3189 76.4603 24.3118 76.4815 24.3047Z" fill="#39393B"/>
<path d="M81.8238 24.936C81.0434 24.2124 81.8309 22.9354 82.8312 23.3043C84.5339 23.9286 87.1801 25.1418 86.8112 26.5749C86.2791 28.6748 83.5406 26.4968 81.8734 24.9857C81.8521 24.9644 81.838 24.9502 81.8238 24.936Z" fill="#39393B"/>
<path d="M76.6093 39.5792C77.3259 39.7565 77.9289 39.6218 77.9715 39.6076C78.0992 39.5792 78.1772 39.4515 78.1488 39.3238C78.1204 39.1961 77.9927 39.118 77.865 39.1464C77.8509 39.1464 76.6803 39.4089 75.7934 38.6285C75.6941 38.5434 75.5451 38.5505 75.46 38.6498C75.3749 38.7491 75.382 38.8981 75.4813 38.9832C75.8431 39.3096 76.2404 39.487 76.6093 39.5792Z" fill="#D46A43"/>
<path d="M79.0641 34.7123C79.0003 34.6839 78.9577 34.6272 78.9293 34.5633C78.8867 34.4285 78.9577 34.2795 79.0925 34.237L80.8023 33.6765L79.7877 32.6478C79.731 32.591 79.7026 32.513 79.7168 32.435L80.029 29.6043C80.0432 29.4624 80.1708 29.3559 80.3198 29.3772C80.4617 29.3914 80.5681 29.5191 80.5469 29.661L80.2418 32.364L81.4621 33.5985C81.5259 33.6623 81.5543 33.7545 81.533 33.8397C81.5117 33.9248 81.4479 33.9958 81.3627 34.0241L79.2557 34.7194C79.1918 34.7478 79.128 34.7407 79.0641 34.7123Z" fill="#39393B"/>
<path d="M74.6371 32.0022C74.5519 32.591 73.2678 32.8819 71.778 32.662C70.2881 32.4421 69.1459 31.7823 69.2381 31.1934C69.3233 30.6046 70.6074 30.3137 72.0972 30.5336C73.5871 30.7607 74.7222 31.4204 74.6371 32.0022Z" fill="#D46A43"/>
<g opacity="0.8">
<g opacity="0.8">
<g opacity="0.8">
<g opacity="0.8">
<g opacity="0.8">
<g opacity="0.8">
<g opacity="0.8">
<g opacity="0.8">
<g opacity="0.8">
<g opacity="0.8">
<g opacity="0.8">
<path opacity="0.8" d="M85.7542 32.7117C85.6407 33.4566 85.5343 34.159 85.4208 34.8258C84.0586 34.5704 83.0583 33.9532 83.1434 33.4069C83.2215 32.8465 84.3708 32.5556 85.7542 32.7117Z" fill="#D46A43"/>
</g>
</g>
</g>
</g>
</g>
</g>
</g>
</g>
</g>
</g>
</g>
<path d="M76.0914 29.9022C75.9708 30.711 75.5097 31.3069 75.0556 31.2431C74.6016 31.1792 74.3391 30.4698 74.4526 29.661C74.5732 28.8522 75.0343 28.2563 75.4884 28.3201C75.9424 28.384 76.212 29.0934 76.0914 29.9022Z" fill="#39393B"/>
<path d="M84.0727 31.087C83.9521 31.8958 83.491 32.4917 83.0369 32.4279C82.5829 32.364 82.3204 31.6546 82.4339 30.8458C82.5545 30.037 83.0157 29.4411 83.4697 29.5049C83.9237 29.5759 84.1863 30.2853 84.0727 31.087Z" fill="#39393B"/>
<path d="M65.8328 35.5566C65.7831 35.6417 64.3571 37.9403 62.7183 38.437C62.7112 38.4299 62.7112 38.4299 62.7112 38.4299C62.6686 37.8481 62.6402 37.2735 62.626 36.713C62.6828 36.7059 64.2578 36.6704 65.8328 35.5566Z" fill="#39393B"/>
<path d="M65.1872 29.732C65.1872 29.732 62.6048 24.9219 59.7386 27.9725C57.3761 30.484 59.9301 38.5008 64.2791 36.3583L65.1872 29.732Z" fill="#EA9B7A"/>
<path d="M63.9456 35.0457C63.7753 35.0174 63.6547 34.8755 63.6618 34.6981C63.7895 31.3637 61.2142 29.8171 61.1078 29.7532C60.9517 29.661 60.8949 29.4553 60.9872 29.2921C61.0794 29.1289 61.2851 29.0792 61.4483 29.1715C61.5689 29.2424 64.4848 30.9806 64.3358 34.7265C64.3287 34.9109 64.1726 35.0528 63.9882 35.0457C63.974 35.0457 63.9598 35.0457 63.9456 35.0457Z" fill="#39393B"/>
<path d="M61.1504 32.5768C61.051 32.5626 60.9659 32.5059 60.9091 32.4137C60.8169 32.2576 60.8666 32.0518 61.0298 31.9525C61.1787 31.8674 62.5054 31.1012 63.4632 31.5056C63.6334 31.5765 63.7115 31.7752 63.6405 31.9454C63.5696 32.1157 63.3709 32.1937 63.2007 32.1228C62.6473 31.8887 61.6683 32.3498 61.3703 32.5272C61.2993 32.5697 61.2213 32.5839 61.1504 32.5768Z" fill="#39393B"/>
<path d="M73.1827 34.1377C70.657 33.1728 69.3871 30.335 70.352 27.8093C71.3168 25.2837 74.1546 24.0138 76.6803 24.9786C79.2059 25.9435 80.4759 28.7813 79.511 31.3069C78.5461 33.8326 75.7083 35.1025 73.1827 34.1377ZM76.4249 25.6455C74.2682 24.8226 71.8418 25.908 71.0189 28.0647C70.1959 30.2215 71.2814 32.6478 73.4381 33.4708C75.5948 34.2937 78.0211 33.2083 78.8441 31.0515C79.6671 28.8948 78.5816 26.4685 76.4249 25.6455Z" fill="white"/>
<path d="M70.5081 28.462C70.4655 28.462 70.4229 28.4478 70.3804 28.4265C67.727 27.2134 65.2368 28.1357 65.2085 28.1499C65.024 28.2208 64.8183 28.1286 64.7473 27.9441C64.6764 27.7597 64.7686 27.5539 64.9531 27.483C65.0666 27.4404 67.7554 26.4401 70.6783 27.7809C70.8557 27.8661 70.9337 28.0789 70.8557 28.2563C70.7847 28.3911 70.6499 28.4691 70.5081 28.462Z" fill="white"/>
<path d="M84.0301 35.365C81.5045 34.4002 80.2345 31.5623 81.1994 29.0367C82.1642 26.5111 85.0021 25.2411 87.5277 26.206C90.0534 27.1708 91.3233 30.0086 90.3584 32.5343C89.4007 35.0599 86.5558 36.3299 84.0301 35.365ZM87.2794 26.8729C85.1227 26.0499 82.6963 27.1354 81.8734 29.2921C81.0504 31.4488 82.1359 33.8752 84.2926 34.6981C86.4493 35.5211 88.8757 34.4356 89.6986 32.2789C90.5216 30.1222 89.4361 27.6958 87.2794 26.8729Z" fill="white"/>
<path d="M79.284 29.2282C79.2272 29.1999 79.1846 29.1573 79.1492 29.1005C79.0428 28.9303 79.0924 28.7103 79.2627 28.6039C79.3123 28.5756 80.5042 27.8448 81.7458 28.7955C81.9018 28.9161 81.9302 29.1431 81.8096 29.2992C81.689 29.4553 81.462 29.4836 81.3059 29.363C80.4546 28.7103 79.6458 29.207 79.6387 29.207C79.5252 29.285 79.3904 29.285 79.284 29.2282Z" fill="white"/>
<path d="M81.9089 12.7619C84.8886 14.1027 87.2298 16.5858 88.2727 19.679C88.9254 21.6158 89.4717 24.177 86.7474 23.8435C79.3124 22.9425 75.3323 15.2237 75.3323 15.2237C75.3323 15.2237 73.885 22.3324 68.0463 21.4669C62.2075 20.5942 62.3919 16.1956 65.7122 13.7054C68.4152 11.6693 75.3039 9.78218 81.9089 12.7619Z" fill="#39393B"/>
<path d="M68.2733 20.6439C68.2733 20.6439 64.9531 24.2124 66.1449 28.0506C67.3368 31.8887 67.4149 34.9677 66.1733 37.0322C66.1733 37.0322 65.8541 32.9883 64.3713 29.9235C63.1581 27.405 62.023 25.4894 62.9027 22.5878C63.5058 20.6013 64.9602 18.6858 68.2733 20.6439Z" fill="#39393B"/>
<path d="M62.8744 38.0609C60.2991 38.6852 58.3055 38.3234 56.8299 37.394C56.5957 37.245 56.3758 37.0819 56.163 36.9116C53.0698 34.3221 52.8427 28.9515 54.737 26.3195C55.4039 25.3901 56.1772 24.7658 56.993 24.3685C57.2413 24.2408 57.4896 24.1415 57.738 24.0634C60.9376 23.0134 64.4068 24.9361 64.4068 24.9361C68.0392 34.9109 62.8744 38.0609 62.8744 38.0609Z" fill="#FF993A"/>
<path d="M71.9341 42.424C64.4069 40.8845 61.2072 35.4643 61.0582 35.2018C60.9376 34.996 61.0086 34.7265 61.2214 34.6058C61.4272 34.4852 61.6967 34.5562 61.8173 34.769C61.867 34.8542 65.7761 41.4237 74.8996 41.9203C75.1409 41.9345 75.3253 42.1402 75.3111 42.3814C75.2969 42.6227 75.0912 42.8071 74.85 42.7929C73.8142 42.7362 72.8422 42.6085 71.9341 42.424Z" fill="white"/>
<path d="M77.2976 42.6795C77.1416 43.4315 76.4037 43.921 75.6517 43.7649C74.8997 43.6088 74.4102 42.871 74.5662 42.119C74.7223 41.367 75.4602 40.8775 76.2122 41.0335C76.9642 41.1896 77.4537 41.9203 77.2976 42.6795Z" fill="#243434"/>
<path d="M56.83 37.394C56.5958 37.245 56.3759 37.0819 56.1631 36.9116C58.5468 31.5198 57.7381 26.809 56.986 24.3685C57.2344 24.2408 57.4827 24.1415 57.731 24.0634C58.5397 26.6458 59.4124 31.6758 56.83 37.394Z" fill="#FF7E07"/>
<path d="M87.386 17.6571C86.7546 16.4723 86.0522 15.6848 85.7046 15.2946C85.4137 14.4503 85.1015 13.6558 84.6333 12.9179C83.0583 10.4207 80.5681 8.88825 77.2195 8.37035C73.6084 7.80988 70.4726 8.52643 67.9044 10.4916C67.1027 11.1017 66.3933 11.8183 65.7548 12.5845C64.8751 13.6558 64.1443 14.8405 63.5484 16.0253C61.4768 20.1685 60.9802 24.4252 60.9731 24.482L59.9869 24.3756C60.0295 23.9712 61.1433 14.4078 67.2943 9.69702C70.0824 7.56157 73.4736 6.78117 77.3685 7.38421C81.0151 7.94468 83.7394 9.63317 85.4705 12.3858C86.485 13.975 87.0738 15.7983 87.386 17.6571Z" fill="white"/>
<path d="M49.9551 126.835L46.5214 120.308C45.6629 118.683 46.8619 116.732 48.6994 116.746L102.639 117.328L101.05 125.685L49.9551 126.835Z" fill="#39393B"/>
<path d="M100.113 124.997H51.8423C50.6788 124.997 49.8345 124.054 49.9693 122.89L53.2612 93.0648C53.3889 91.9013 54.4389 90.9577 55.6024 90.9577H103.874C105.037 90.9577 105.881 91.9013 105.746 93.0648L102.455 122.89C102.327 124.054 101.277 124.997 100.113 124.997Z" fill="#39393B"/>
<path d="M51.1257 126.281C51.1116 126.281 51.0903 126.281 51.0761 126.281C50.8561 126.253 50.693 126.047 50.7213 125.827L54.7298 93.8877C54.7581 93.6678 54.9639 93.5046 55.1838 93.533C55.4037 93.5614 55.5669 93.7671 55.5385 93.987L51.5301 125.927C51.5017 126.132 51.3244 126.281 51.1257 126.281Z" fill="#564C54"/>
<path d="M74.6086 108.509C74.4241 110.907 76.1906 112.972 78.546 113.121C80.9085 113.27 82.973 111.454 83.1575 109.056C83.3419 106.658 81.5754 104.593 79.22 104.444C76.8575 104.295 74.793 106.112 74.6086 108.509Z" fill="#585859"/>
<path d="M100.347 127.594H51.4095C50.3311 127.594 49.5081 126.643 49.65 125.579L50.1183 122.166H102.639L102.107 126.054C101.986 126.941 101.234 127.594 100.347 127.594Z" fill="#39393B"/>
<path d="M114.055 62.5735C114.055 74.4808 123.709 84.1469 135.628 84.1469C147.535 84.1469 157.201 74.4923 157.201 62.5735C157.201 50.6661 147.547 41 135.628 41C123.709 41 114.055 50.6661 114.055 62.5735Z" fill="#369FFF"/>
<path d="M119.591 60V54.24H121.855C122.221 54.24 122.527 54.3147 122.775 54.464C123.023 54.6133 123.21 54.8067 123.335 55.044C123.461 55.2787 123.523 55.5267 123.523 55.788C123.523 56.1053 123.445 56.3773 123.287 56.604C123.133 56.8307 122.923 56.9853 122.659 57.068L122.651 56.872C123.019 56.9627 123.302 57.14 123.499 57.404C123.697 57.6653 123.795 57.9707 123.795 58.32C123.795 58.6587 123.727 58.9533 123.591 59.204C123.458 59.4547 123.262 59.6507 123.003 59.792C122.747 59.9307 122.437 60 122.071 60H119.591ZM120.439 59.204H121.943C122.133 59.204 122.302 59.168 122.451 59.096C122.603 59.024 122.722 58.9213 122.807 58.788C122.895 58.652 122.939 58.4907 122.939 58.304C122.939 58.1307 122.901 57.9747 122.823 57.836C122.749 57.6947 122.639 57.584 122.495 57.504C122.354 57.4213 122.187 57.38 121.995 57.38H120.439V59.204ZM120.439 56.592H121.843C121.998 56.592 122.137 56.5613 122.259 56.5C122.385 56.436 122.483 56.3453 122.555 56.228C122.63 56.108 122.667 55.964 122.667 55.796C122.667 55.572 122.593 55.388 122.443 55.244C122.294 55.1 122.094 55.028 121.843 55.028H120.439V56.592ZM126.467 60.12C126.035 60.12 125.661 60.0227 125.343 59.828C125.026 59.6333 124.781 59.3653 124.607 59.024C124.437 58.68 124.351 58.284 124.351 57.836C124.351 57.3853 124.439 56.9893 124.615 56.648C124.791 56.304 125.038 56.0373 125.355 55.848C125.673 55.656 126.043 55.56 126.467 55.56C126.899 55.56 127.274 55.6573 127.591 55.852C127.909 56.0467 128.154 56.3147 128.327 56.656C128.501 56.9973 128.587 57.3907 128.587 57.836C128.587 58.2867 128.499 58.684 128.323 59.028C128.15 59.3693 127.905 59.6373 127.587 59.832C127.27 60.024 126.897 60.12 126.467 60.12ZM126.467 59.332C126.881 59.332 127.189 59.1933 127.391 58.916C127.597 58.636 127.699 58.276 127.699 57.836C127.699 57.3853 127.595 57.0253 127.387 56.756C127.182 56.484 126.875 56.348 126.467 56.348C126.187 56.348 125.957 56.412 125.775 56.54C125.594 56.6653 125.459 56.84 125.371 57.064C125.283 57.2853 125.239 57.5427 125.239 57.836C125.239 58.2893 125.343 58.652 125.551 58.924C125.759 59.196 126.065 59.332 126.467 59.332ZM132.498 60V57.876C132.498 57.708 132.484 57.536 132.454 57.36C132.428 57.1813 132.374 57.016 132.294 56.864C132.217 56.712 132.106 56.5893 131.962 56.496C131.821 56.4027 131.636 56.356 131.406 56.356C131.257 56.356 131.116 56.3813 130.982 56.432C130.849 56.48 130.732 56.5587 130.63 56.668C130.532 56.7773 130.453 56.9213 130.394 57.1C130.338 57.2787 130.31 57.496 130.31 57.752L129.79 57.556C129.79 57.164 129.864 56.8187 130.01 56.52C130.157 56.2187 130.368 55.984 130.642 55.816C130.917 55.648 131.249 55.564 131.638 55.564C131.937 55.564 132.188 55.612 132.39 55.708C132.593 55.804 132.757 55.9307 132.882 56.088C133.01 56.2427 133.108 56.412 133.174 56.596C133.241 56.78 133.286 56.96 133.31 57.136C133.334 57.312 133.346 57.4667 133.346 57.6V60H132.498ZM129.462 60V55.68H130.21V56.928H130.31V60H129.462ZM133.748 61.92V61.128H133.968C134.19 61.128 134.351 61.0747 134.452 60.968C134.556 60.8613 134.608 60.6973 134.608 60.476V55.68H135.448V60.816C135.448 61.168 135.351 61.44 135.156 61.632C134.964 61.824 134.688 61.92 134.328 61.92H133.748ZM134.608 54.972V54.16H135.448V54.972H134.608ZM138.467 60.12C138.035 60.12 137.661 60.0227 137.343 59.828C137.026 59.6333 136.781 59.3653 136.607 59.024C136.437 58.68 136.351 58.284 136.351 57.836C136.351 57.3853 136.439 56.9893 136.615 56.648C136.791 56.304 137.038 56.0373 137.355 55.848C137.673 55.656 138.043 55.56 138.467 55.56C138.899 55.56 139.274 55.6573 139.591 55.852C139.909 56.0467 140.154 56.3147 140.327 56.656C140.501 56.9973 140.587 57.3907 140.587 57.836C140.587 58.2867 140.499 58.684 140.323 59.028C140.15 59.3693 139.905 59.6373 139.587 59.832C139.27 60.024 138.897 60.12 138.467 60.12ZM138.467 59.332C138.881 59.332 139.189 59.1933 139.391 58.916C139.597 58.636 139.699 58.276 139.699 57.836C139.699 57.3853 139.595 57.0253 139.387 56.756C139.182 56.484 138.875 56.348 138.467 56.348C138.187 56.348 137.957 56.412 137.775 56.54C137.594 56.6653 137.459 56.84 137.371 57.064C137.283 57.2853 137.239 57.5427 137.239 57.836C137.239 58.2893 137.343 58.652 137.551 58.924C137.759 59.196 138.065 59.332 138.467 59.332ZM143.094 60.116C142.796 60.116 142.545 60.068 142.342 59.972C142.14 59.876 141.974 59.7507 141.846 59.596C141.721 59.4387 141.625 59.268 141.558 59.084C141.492 58.9 141.446 58.72 141.422 58.544C141.398 58.368 141.386 58.2133 141.386 58.08V55.68H142.234V57.804C142.234 57.972 142.248 58.1453 142.274 58.324C142.304 58.5 142.357 58.664 142.434 58.816C142.514 58.968 142.625 59.0907 142.766 59.184C142.91 59.2773 143.097 59.324 143.326 59.324C143.476 59.324 143.617 59.3 143.75 59.252C143.884 59.2013 144 59.1213 144.098 59.012C144.2 58.9027 144.278 58.7587 144.334 58.58C144.393 58.4013 144.422 58.184 144.422 57.928L144.942 58.124C144.942 58.516 144.869 58.8627 144.722 59.164C144.576 59.4627 144.365 59.696 144.09 59.864C143.816 60.032 143.484 60.116 143.094 60.116ZM144.522 60V58.752H144.422V55.68H145.266V60H144.522ZM146.388 60V55.68H147.132V56.728L147.028 56.592C147.082 56.4533 147.151 56.3267 147.236 56.212C147.322 56.0947 147.42 55.9987 147.532 55.924C147.642 55.844 147.763 55.7827 147.896 55.74C148.032 55.6947 148.171 55.668 148.312 55.66C148.454 55.6493 148.59 55.656 148.72 55.68V56.464C148.579 56.4267 148.422 56.416 148.248 56.432C148.078 56.448 147.92 56.5027 147.776 56.596C147.64 56.684 147.532 56.7907 147.452 56.916C147.375 57.0413 147.319 57.1813 147.284 57.336C147.25 57.488 147.232 57.6493 147.232 57.82V60H146.388ZM120.687 71.116C120.266 71.116 119.911 71.004 119.623 70.78C119.338 70.556 119.141 70.2547 119.031 69.876L119.859 69.68C119.897 69.8587 119.991 70.012 120.143 70.14C120.298 70.2653 120.47 70.328 120.659 70.328C120.785 70.328 120.915 70.296 121.051 70.232C121.187 70.168 121.289 70.064 121.355 69.92C121.401 69.824 121.427 69.7147 121.435 69.592C121.443 69.4667 121.447 69.3213 121.447 69.156V65.24H122.295V69.156C122.295 69.3267 122.294 69.4787 122.291 69.612C122.291 69.7453 122.278 69.8707 122.251 69.988C122.227 70.1053 122.179 70.2267 122.107 70.352C121.955 70.616 121.755 70.8093 121.507 70.932C121.259 71.0547 120.986 71.116 120.687 71.116ZM125.414 71.12C124.984 71.12 124.607 71.0267 124.282 70.84C123.959 70.6507 123.707 70.388 123.526 70.052C123.347 69.7133 123.258 69.3213 123.258 68.876C123.258 68.404 123.346 67.9947 123.522 67.648C123.7 67.3013 123.948 67.0333 124.266 66.844C124.583 66.6547 124.952 66.56 125.374 66.56C125.814 66.56 126.188 66.6627 126.498 66.868C126.807 67.0707 127.038 67.36 127.19 67.736C127.344 68.112 127.406 68.5587 127.374 69.076H126.538V68.772C126.532 68.2707 126.436 67.9 126.25 67.66C126.066 67.42 125.784 67.3 125.406 67.3C124.987 67.3 124.672 67.432 124.462 67.696C124.251 67.96 124.146 68.3413 124.146 68.84C124.146 69.3147 124.251 69.6827 124.462 69.944C124.672 70.2027 124.976 70.332 125.374 70.332C125.635 70.332 125.86 70.2733 126.05 70.156C126.242 70.036 126.391 69.8653 126.498 69.644L127.318 69.904C127.15 70.2907 126.895 70.5907 126.554 70.804C126.212 71.0147 125.832 71.12 125.414 71.12ZM123.874 69.076V68.424H126.958V69.076H123.874ZM131.525 71.116C130.999 71.116 130.571 71 130.241 70.768C129.91 70.536 129.707 70.2093 129.633 69.788L130.489 69.656C130.542 69.88 130.665 70.0573 130.857 70.188C131.051 70.316 131.293 70.38 131.581 70.38C131.842 70.38 132.046 70.3267 132.193 70.22C132.342 70.1133 132.417 69.9667 132.417 69.78C132.417 69.6707 132.39 69.5827 132.337 69.516C132.286 69.4467 132.178 69.3813 132.013 69.32C131.847 69.2587 131.595 69.1827 131.257 69.092C130.886 68.996 130.591 68.8933 130.373 68.784C130.157 68.672 130.002 68.5427 129.909 68.396C129.818 68.2467 129.773 68.0667 129.773 67.856C129.773 67.5947 129.842 67.3667 129.981 67.172C130.119 66.9773 130.314 66.8267 130.565 66.72C130.818 66.6133 131.114 66.56 131.453 66.56C131.783 66.56 132.078 66.612 132.337 66.716C132.595 66.82 132.805 66.968 132.965 67.16C133.125 67.3493 133.221 67.572 133.253 67.828L132.397 67.984C132.367 67.776 132.27 67.612 132.105 67.492C131.939 67.372 131.725 67.3067 131.461 67.296C131.207 67.2853 131.002 67.328 130.845 67.424C130.687 67.5173 130.609 67.6467 130.609 67.812C130.609 67.908 130.638 67.9893 130.697 68.056C130.758 68.1227 130.875 68.1867 131.049 68.248C131.222 68.3093 131.478 68.3827 131.817 68.468C132.179 68.5613 132.467 68.6653 132.681 68.78C132.894 68.892 133.046 69.0267 133.137 69.184C133.23 69.3387 133.277 69.5267 133.277 69.748C133.277 70.1747 133.121 70.5093 132.809 70.752C132.499 70.9947 132.071 71.116 131.525 71.116ZM135.79 71.116C135.491 71.116 135.24 71.068 135.038 70.972C134.835 70.876 134.67 70.7507 134.542 70.596C134.416 70.4387 134.32 70.268 134.254 70.084C134.187 69.9 134.142 69.72 134.118 69.544C134.094 69.368 134.082 69.2133 134.082 69.08V66.68H134.93V68.804C134.93 68.972 134.943 69.1453 134.97 69.324C134.999 69.5 135.052 69.664 135.13 69.816C135.21 69.968 135.32 70.0907 135.462 70.184C135.606 70.2773 135.792 70.324 136.022 70.324C136.171 70.324 136.312 70.3 136.446 70.252C136.579 70.2013 136.695 70.1213 136.794 70.012C136.895 69.9027 136.974 69.7587 137.03 69.58C137.088 69.4013 137.118 69.184 137.118 68.928L137.638 69.124C137.638 69.516 137.564 69.8627 137.418 70.164C137.271 70.4627 137.06 70.696 136.786 70.864C136.511 71.032 136.179 71.116 135.79 71.116ZM137.218 71V69.752H137.118V66.68H137.962V71H137.218ZM139.164 65.972V65.16H140V65.972H139.164ZM139.164 71V66.68H140V71H139.164ZM142.853 71.116C142.328 71.116 141.9 71 141.569 70.768C141.238 70.536 141.036 70.2093 140.961 69.788L141.817 69.656C141.87 69.88 141.993 70.0573 142.185 70.188C142.38 70.316 142.621 70.38 142.909 70.38C143.17 70.38 143.374 70.3267 143.521 70.22C143.67 70.1133 143.745 69.9667 143.745 69.78C143.745 69.6707 143.718 69.5827 143.665 69.516C143.614 69.4467 143.506 69.3813 143.341 69.32C143.176 69.2587 142.924 69.1827 142.585 69.092C142.214 68.996 141.92 68.8933 141.701 68.784C141.485 68.672 141.33 68.5427 141.237 68.396C141.146 68.2467 141.101 68.0667 141.101 67.856C141.101 67.5947 141.17 67.3667 141.309 67.172C141.448 66.9773 141.642 66.8267 141.893 66.72C142.146 66.6133 142.442 66.56 142.781 66.56C143.112 66.56 143.406 66.612 143.665 66.716C143.924 66.82 144.133 66.968 144.293 67.16C144.453 67.3493 144.549 67.572 144.581 67.828L143.725 67.984C143.696 67.776 143.598 67.612 143.433 67.492C143.268 67.372 143.053 67.3067 142.789 67.296C142.536 67.2853 142.33 67.328 142.173 67.424C142.016 67.5173 141.937 67.6467 141.937 67.812C141.937 67.908 141.966 67.9893 142.025 68.056C142.086 68.1227 142.204 68.1867 142.377 68.248C142.55 68.3093 142.806 68.3827 143.145 68.468C143.508 68.5613 143.796 68.6653 144.009 68.78C144.222 68.892 144.374 69.0267 144.465 69.184C144.558 69.3387 144.605 69.5267 144.605 69.748C144.605 70.1747 144.449 70.5093 144.137 70.752C143.828 70.9947 143.4 71.116 142.853 71.116ZM145.634 71V70.116H146.518V71H145.634ZM147.923 71V70.116H148.807V71H147.923ZM150.212 71V70.116H151.096V71H150.212Z" fill="white"/>
<path d="M124.594 80.2161L112.997 82.6643L118.02 72.6763L124.594 80.2161Z" fill="#369FFF"/>
</svg>
