<svg width="24" height="24" viewBox="0 0 24 24" fill="none" xmlns="http://www.w3.org/2000/svg">
<g clip-path="url(#clip0_1_1458)">
<path d="M1.20001 19.2V12C1.20001 9.13566 2.33787 6.38864 4.36326 4.36324C6.38865 2.33785 9.13567 1.2 12 1.2C14.8643 1.2 17.6114 2.33785 19.6368 4.36324C21.6622 6.38864 22.8 9.13566 22.8 12V19.2" stroke="#8AC53E" stroke-width="2" stroke-linecap="round" stroke-linejoin="round"/>
<path d="M22.8 20.4C22.8 21.0365 22.5472 21.647 22.0971 22.097C21.647 22.5471 21.0365 22.8 20.4 22.8H19.2C18.5635 22.8 17.953 22.5471 17.503 22.097C17.0529 21.647 16.8 21.0365 16.8 20.4V16.8C16.8 16.1635 17.0529 15.553 17.503 15.1029C17.953 14.6529 18.5635 14.4 19.2 14.4H22.8V20.4ZM1.20001 20.4C1.20001 21.0365 1.45287 21.647 1.90296 22.097C2.35304 22.5471 2.96349 22.8 3.60001 22.8H4.80001C5.43653 22.8 6.04698 22.5471 6.49707 22.097C6.94716 21.647 7.20001 21.0365 7.20001 20.4V16.8C7.20001 16.1635 6.94716 15.553 6.49707 15.1029C6.04698 14.6529 5.43653 14.4 4.80001 14.4H1.20001V20.4Z" stroke="#8AC53E" stroke-width="2" stroke-linecap="round" stroke-linejoin="round"/>
</g>
<defs>
<clipPath id="clip0_1_1458">
<rect width="24" height="24" fill="white"/>
</clipPath>
</defs>
</svg>
