<svg width="24" height="24" viewBox="0 0 24 24" fill="none" xmlns="http://www.w3.org/2000/svg">
<path d="M23.5348 4.82326C23.5332 4.82326 23.5317 4.82326 23.5301 4.82326H21.9531V4.28362C21.9616 4.07004 21.8234 3.87808 21.6181 3.81842C20.5233 3.5315 19.3959 3.38764 18.264 3.39043C16.4032 3.39043 13.8678 3.80911 11.993 5.71646C10.1322 3.79051 7.57821 3.39043 5.72204 3.39043C4.59019 3.38764 3.46276 3.5315 2.3679 3.81842C2.16263 3.87808 2.02446 4.07004 2.03295 4.28362V4.81861H0.465206C0.208296 4.81861 0 5.02691 0 5.28382V20.1425C0 20.3994 0.208296 20.6077 0.465206 20.6077C0.545106 20.6075 0.623609 20.5867 0.693158 20.5472C0.739678 20.524 5.39174 17.9793 11.886 19.6168H11.9558H11.9977C12.0348 19.6213 12.0722 19.6213 12.1093 19.6168C18.6222 17.9653 23.2743 20.5054 23.3022 20.5472C23.4461 20.6303 23.6235 20.6303 23.7674 20.5472C23.9104 20.4647 23.999 20.3124 24 20.1472V5.28847C24 5.03156 23.7918 4.82326 23.5348 4.82326ZM0.930413 19.4028V5.75368H2.04226V17.4211C2.03935 17.678 2.24526 17.8886 2.50217 17.8915C2.52729 17.8918 2.55241 17.89 2.57724 17.8863C3.53964 17.7393 4.51128 17.6616 5.48478 17.6537C6.8333 17.6303 8.17618 17.8331 9.45765 18.2538C6.56377 17.9038 3.62844 18.2994 0.930413 19.4028ZM5.48478 16.7279C4.63863 16.7298 3.79347 16.7842 2.95406 16.8907V4.65114C3.85982 4.44935 4.78476 4.34637 5.71274 4.3441C7.45261 4.3441 9.85307 4.74418 11.5185 6.62361L11.5325 18.2119C10.5648 17.5792 8.6761 16.7279 5.48478 16.7279ZM12.4629 6.62361C14.1283 4.76279 16.5288 4.3441 18.2687 4.3441C19.1966 4.34683 20.1215 4.44976 21.0273 4.65114V16.8907C20.1926 16.7832 19.3521 16.7273 18.5106 16.7232C15.3379 16.7232 13.4445 17.5746 12.4629 18.2073V6.62361ZM23.0649 19.4028C20.3612 18.2963 17.4191 17.9007 14.5191 18.2538C15.8066 17.8316 17.1559 17.6287 18.5106 17.6537C19.4902 17.6591 20.4681 17.7353 21.4367 17.8816C21.6907 17.9202 21.9279 17.7455 21.9665 17.4915C21.9702 17.4666 21.972 17.4415 21.9717 17.4164V5.75368H23.0835L23.0649 19.4028Z" fill="#369FFF"/>
</svg>
