<svg width="67" height="110" viewBox="0 0 67 110" fill="none" xmlns="http://www.w3.org/2000/svg">
<g clip-path="url(#clip0_1_507)">
<path d="M13.8821 102.602C14.3607 100.561 13.0995 98.5177 11.065 98.0376C9.03059 97.5575 6.99336 98.8227 6.51474 100.863C6.03613 102.904 7.29737 104.948 9.3318 105.428C11.3662 105.908 13.4035 104.643 13.8821 102.602Z" fill="#7DBD41"/>
<path d="M7.30671 99.1182C8.78957 97.856 10.2584 97.7246 11.4606 98.1516C9.98709 98.6725 8.93459 100.075 8.93459 101.727C8.93459 103.379 9.99177 104.787 11.4606 105.303C11.0677 105.444 10.6467 105.523 10.2023 105.523C7.27865 105.523 5.13154 102.201 7.30671 99.1182Z" fill="#64992B"/>
<path d="M5.99693 101.408C6.58165 101.408 7.14299 101.502 7.67158 101.666C9.8795 102.365 11.4887 104.407 11.5588 106.833H3.78434H0.430359C0.519237 103.825 2.97508 101.408 5.99693 101.408Z" fill="#7DBD41"/>
<path d="M5.99693 101.408C6.58165 101.408 7.14299 101.502 7.67158 101.666C5.46366 102.365 3.8545 104.407 3.78433 106.833H0.430359C0.519237 103.825 2.97508 101.408 5.99693 101.408Z" fill="#64992B"/>
<path d="M13.9539 100.442C14.5433 100.442 15.1093 100.526 15.6472 100.671C12.9247 101.413 10.9086 103.881 10.8618 106.837H7.47511C7.53125 103.295 10.4081 100.442 13.9539 100.442Z" fill="#64992B"/>
<path d="M15.6472 100.676C18.3697 101.418 20.3858 103.886 20.4326 106.842H10.8618C10.9133 103.881 12.9247 101.413 15.6472 100.676Z" fill="#7DBD41"/>
<path d="M38.1006 68.8474C37.834 68.8239 37.6282 68.5987 37.6515 68.3453L37.6562 68.303C37.6796 68.0497 37.9135 67.862 38.1848 67.8854H38.1895L38.3251 66.29C38.4047 65.389 37.6796 64.5819 36.7207 64.4975C35.7617 64.413 34.9104 65.084 34.8355 65.985L34.6999 67.5804H34.7232C34.9899 67.6039 35.1957 67.8291 35.1723 68.0825L35.1676 68.1247C35.1442 68.3781 34.9104 68.5658 34.639 68.5424H34.6157L33.8251 77.7114L37.3147 78.0117L38.1053 68.8427L38.1006 68.8474Z" fill="#CE974E"/>
<path d="M20.1098 59.8191L19.5532 66.2759L19.469 67.2332L18.6784 76.4022L21.3962 76.6368L22.1868 67.4678H22.1961C22.4628 67.4913 22.7013 67.3036 22.7247 67.0502L22.7294 67.0079C22.7528 66.7545 22.5516 66.5293 22.2803 66.5058H22.271L22.4066 64.9104C22.4861 64.0095 23.3328 63.3385 24.2918 63.4229C25.2507 63.5074 25.9711 64.3098 25.8963 65.2154L25.7606 66.8109H25.7372C25.4706 66.7874 25.232 66.9751 25.2086 67.2285L25.2039 67.2707C25.1806 67.5241 25.3864 67.7493 25.653 67.7728H25.6764L24.8858 76.9418L27.6083 77.1764L28.3989 68.0074H28.4129C28.6795 68.0309 28.9181 67.8432 28.9415 67.5898L28.9462 67.5476C28.9696 67.2942 28.7684 67.0689 28.4971 67.0455H28.4831L28.6187 65.45C28.6982 64.5491 29.5449 63.8781 30.5039 63.9625C31.4628 64.047 32.1832 64.8494 32.1084 65.7551L31.9727 67.3505H31.9587C31.692 67.327 31.4535 67.5147 31.4301 67.7681L31.4254 67.8103C31.402 68.0637 31.6078 68.289 31.8745 68.3124H31.8885L31.098 77.4814L33.8204 77.7161L34.6157 68.5471H34.639C34.9057 68.5705 35.1442 68.3828 35.1676 68.1294L35.1723 68.0872C35.1957 67.8338 34.9899 67.6086 34.7232 67.5851H34.6999L34.8355 65.9897C34.915 65.0887 35.7617 64.4177 36.7207 64.5022C37.6796 64.5866 38.4047 65.389 38.3251 66.2947L38.1895 67.8901H38.1848C37.9182 67.8666 37.6796 68.0544 37.6562 68.3077L37.6515 68.35C37.6282 68.6034 37.834 68.8286 38.1006 68.8521H38.1053L37.3147 78.0211L40.0372 78.2557L40.8278 69.0867L40.8558 69.0914C41.1225 69.1148 41.361 68.9271 41.3844 68.6738L41.3891 68.6315C41.4125 68.3781 41.2067 68.1529 40.94 68.1294L40.912 68.1247L41.0476 66.5293C41.1271 65.6284 41.9738 64.9573 42.9328 65.0418C43.8917 65.1263 44.6121 65.9287 44.5372 66.8343L44.4016 68.4297C44.135 68.4063 43.8964 68.594 43.8777 68.8474L43.873 68.8896C43.8496 69.143 44.0508 69.3682 44.3221 69.3917L43.5315 78.5654L46.2493 78.8L47.676 62.217L20.1098 59.8191Z" fill="#EFB867"/>
<path d="M46.0248 49.6506C45.7582 49.6272 45.557 49.4019 45.5757 49.1485L45.5804 49.1063C45.6038 48.8529 45.8377 48.6699 46.1043 48.6887L46.24 47.0933C46.3195 46.1923 45.5944 45.3852 44.6355 45.3007C43.6765 45.2163 42.8252 45.8873 42.7503 46.7882L42.6147 48.3837L42.6427 48.3884C42.9094 48.4118 43.1152 48.6371 43.0918 48.8905L43.0871 48.9327C43.0637 49.1861 42.8299 49.3738 42.5585 49.3503L42.5305 49.3456L41.7399 58.5146L39.0175 58.28L39.808 49.111H39.8033C39.5367 49.0875 39.3309 48.8623 39.3543 48.6089L39.3589 48.5667C39.3823 48.3133 39.6162 48.1256 39.8875 48.149H39.8922L40.0279 46.5536C40.1074 45.6527 39.3823 44.8456 38.4234 44.7611C37.4644 44.6766 36.6131 45.3477 36.5382 46.2486L36.4026 47.844H36.426C36.6926 47.8675 36.8984 48.0927 36.875 48.3461L36.8704 48.3884C36.847 48.6418 36.6131 48.8295 36.3418 48.806H36.3184L35.5278 57.975L32.8054 57.7404L33.5959 48.5714H33.5819C33.3152 48.5479 33.1094 48.3227 33.1328 48.0693L33.1375 48.027C33.1609 47.7737 33.3948 47.586 33.6661 47.6094H33.6801L33.8158 46.014C33.8953 45.113 33.1702 44.3059 32.2113 44.2215C31.2523 44.137 30.401 44.808 30.3261 45.709L30.1905 47.3044H30.2045C30.4711 47.3279 30.677 47.5531 30.6536 47.8065L30.6489 47.8487C30.6255 48.1021 30.3916 48.2898 30.1203 48.2664H30.1063L29.3157 57.4354L26.5932 57.2008L27.3838 48.0317H27.3604C27.0938 48.0083 26.8879 47.783 26.9113 47.5296L26.916 47.4874C26.9394 47.234 27.1733 47.0463 27.4446 47.0698H27.468L27.6036 45.4744C27.6832 44.5734 26.9581 43.7663 25.9992 43.6819C25.0402 43.5974 24.1889 44.2684 24.114 45.1694L23.9784 46.7648H23.9877C24.2543 46.7882 24.4602 47.0135 24.4368 47.2669L24.4321 47.3091C24.4087 47.5625 24.1748 47.7502 23.9035 47.7267H23.8942L23.1036 56.8957L20.3858 56.6611L47.9474 59.0496L45.2296 58.8149L46.0248 49.6506Z" fill="#CE974E"/>
<path d="M48.8642 48.9327L48.8174 48.928L49.3741 42.4712L21.8125 40.0828L21.2559 46.5395L21.2185 46.5349C20.9518 46.5114 20.7133 46.6991 20.6899 46.9525L20.6852 46.9947C20.6618 47.2481 20.8676 47.4733 21.1343 47.4968L21.1717 47.5015L20.3811 56.6705L23.0989 56.9051L23.8895 47.7361H23.8988C24.1655 47.7596 24.404 47.5719 24.4274 47.3185L24.4321 47.2763C24.4555 47.0229 24.2543 46.7976 23.983 46.7742H23.9737L24.1093 45.1787C24.1889 44.2778 25.0355 43.6068 25.9945 43.6912C26.9534 43.7757 27.6785 44.5781 27.599 45.4837L27.4633 47.0792H27.4399C27.1733 47.0557 26.9347 47.2434 26.9113 47.4968L26.9067 47.539C26.8833 47.7924 27.0891 48.0177 27.3557 48.0411H27.3791L26.5886 57.2101L29.311 57.4448L30.1016 48.2757H30.1156C30.3823 48.2992 30.6208 48.1115 30.6442 47.8581L30.6489 47.8159C30.6723 47.5625 30.4665 47.3373 30.1998 47.3138H30.1858L30.3214 45.7184C30.401 44.8174 31.2476 44.1464 32.2066 44.2309C33.1655 44.3153 33.8859 45.1177 33.8111 46.0234L33.6754 47.6188H33.6614C33.3947 47.5953 33.1562 47.783 33.1328 48.0364L33.1281 48.0787C33.1047 48.3321 33.3105 48.5573 33.5772 48.5808H33.5912L32.8007 57.7498L35.5231 57.9844L36.3137 48.8154H36.3371C36.6037 48.8388 36.8423 48.6511 36.8657 48.3977L36.8703 48.3555C36.8937 48.1021 36.6879 47.8769 36.4213 47.8534H36.3979L36.5335 46.258C36.6131 45.3571 37.4597 44.686 38.4187 44.7705C39.3776 44.855 40.1027 45.6574 40.0232 46.563L39.8875 48.1584H39.8828C39.6162 48.135 39.3776 48.3227 39.3543 48.5761L39.3496 48.6183C39.3262 48.8717 39.5273 49.0969 39.7986 49.1204H39.8033L39.0128 58.2894L41.7353 58.524L42.5258 49.355L42.5539 49.3597C42.8205 49.3832 43.0591 49.1955 43.0825 48.9421L43.0871 48.8998C43.1105 48.6464 42.9047 48.4212 42.6381 48.3977L42.61 48.3931L42.7457 46.7976C42.8252 45.8967 43.6719 45.2257 44.6308 45.3101C45.5898 45.3946 46.3148 46.197 46.2353 47.1026L46.0996 48.6981C45.833 48.6746 45.5944 48.8623 45.5757 49.1157L45.571 49.1579C45.5477 49.4113 45.7488 49.6366 46.0201 49.66L45.2296 58.829L47.9474 59.0636L48.7379 49.8946L48.7847 49.8993C49.0513 49.9228 49.2899 49.7351 49.3133 49.4817L49.318 49.4395C49.332 49.1814 49.1308 48.9561 48.8642 48.9327Z" fill="#EFB867"/>
<path d="M47.7182 29.9987C47.4515 29.9753 47.2504 29.75 47.2691 29.4966L47.2738 29.4544C47.2972 29.201 47.531 29.018 47.7977 29.0368L47.9333 27.4413C48.0129 26.5404 47.2878 25.7333 46.3289 25.6488C45.3699 25.5644 44.5185 26.2354 44.4437 27.1363L44.308 28.7318L44.3361 28.7365C44.6027 28.7599 44.8086 28.9852 44.7852 29.2385L44.7805 29.2808C44.7571 29.5342 44.5232 29.7219 44.2519 29.6984L44.2238 29.6937L43.4333 38.8627L40.7108 38.6281L41.5014 29.4591H41.4967C41.2301 29.4356 41.0242 29.2104 41.0476 28.957L41.0523 28.9148C41.0757 28.6614 41.3096 28.4737 41.5809 28.4971H41.5856L41.7212 26.9017C41.8008 26.0008 41.0757 25.1937 40.1167 25.1092C39.1578 25.0247 38.3064 25.6958 38.2316 26.5967L38.0959 28.1921H38.1193C38.386 28.2156 38.5918 28.4408 38.5684 28.6942L38.5637 28.7365C38.5403 28.9898 38.3064 29.1775 38.0351 29.1541H38.0117L37.2212 38.3231L34.4987 38.0885L35.2893 28.9195H35.2752C35.0086 28.896 34.8028 28.6708 34.8262 28.4174L34.8308 28.3751C34.8542 28.1217 35.0881 27.934 35.3594 27.9575H35.3735L35.5091 26.3621C35.5886 25.4611 34.8636 24.654 33.9046 24.5696C32.9457 24.4851 32.0943 25.1561 32.0195 26.0571L31.8838 27.6525H31.8979C32.1645 27.676 32.3703 27.9012 32.3469 28.1546L32.3423 28.1968C32.3189 28.4502 32.085 28.6379 31.8137 28.6144H31.7996L31.0091 37.7835L28.2866 37.5488L29.0772 28.3798H29.0538C28.7871 28.3564 28.5813 28.1311 28.6047 27.8777L28.6094 27.8355C28.6328 27.5821 28.8667 27.3944 29.138 27.4179H29.1614L29.297 25.8225C29.3765 24.9215 28.6515 24.1144 27.6925 24.0299C26.7336 23.9455 25.8822 24.6165 25.8074 25.5174L25.6717 27.1129H25.6811C25.9477 27.1363 26.1535 27.3616 26.1301 27.615L26.1255 27.6572C26.1021 27.9106 25.8682 28.0983 25.5969 28.0748H25.5875L24.797 37.2438L22.0792 37.0092L49.6407 39.3977L46.9229 39.163L47.7182 29.9987Z" fill="#CE974E"/>
<path d="M50.5576 29.2761L50.5108 29.2714L51.0674 22.8146L23.5059 20.4262L22.9492 26.8829L22.9118 26.8783C22.6452 26.8548 22.4066 27.0425 22.3832 27.2959L22.3786 27.3381C22.3552 27.5915 22.5563 27.8167 22.8276 27.8402L22.865 27.8449L22.0745 37.0139L24.7923 37.2485L25.5828 28.0795H25.5922C25.8588 28.103 26.0974 27.9153 26.1208 27.6619L26.1255 27.6197C26.1488 27.3663 25.943 27.141 25.6764 27.1176H25.667L25.8027 25.5221C25.8822 24.6212 26.7289 23.9502 27.6878 24.0346C28.6468 24.1191 29.3718 24.9215 29.2923 25.8271L29.1567 27.4226H29.1333C28.8666 27.3991 28.6281 27.5868 28.6047 27.8402L28.6 27.8824C28.5766 28.1358 28.7824 28.3611 29.0491 28.3845H29.0725L28.2819 37.5535L31.0044 37.7882L31.7949 28.6191H31.809C32.0756 28.6426 32.3142 28.4549 32.3376 28.2015L32.3422 28.1593C32.3656 27.9059 32.1645 27.6807 31.8932 27.6572H31.8791L32.0148 26.0618C32.0943 25.1608 32.941 24.4898 33.8999 24.5743C34.8589 24.6587 35.584 25.4611 35.5044 26.3668L35.3688 27.9622H35.3547C35.0881 27.9387 34.8495 28.1264 34.8261 28.3798L34.8215 28.4221C34.7981 28.6755 35.0039 28.9007 35.2705 28.9242H35.2846L34.494 38.0932L37.2165 38.3278L38.007 29.1588H38.0304C38.2971 29.1822 38.5356 28.9945 38.559 28.7411L38.5637 28.6989C38.5871 28.4455 38.386 28.2203 38.1146 28.1968H38.0912L38.2269 26.6014C38.3064 25.7004 39.1531 25.0294 40.1121 25.1139C41.071 25.1984 41.7961 26.0008 41.7165 26.9064L41.5809 28.5018H41.5762C41.3096 28.4784 41.071 28.6661 41.0476 28.9195L41.0429 28.9617C41.0195 29.2151 41.2254 29.4403 41.492 29.4638H41.4967L40.7061 38.6328L43.4286 38.8674L44.2192 29.6984L44.2472 29.7031C44.5139 29.7266 44.7524 29.5389 44.7758 29.2855L44.7805 29.2432C44.8039 28.9898 44.5981 28.7646 44.3314 28.7411L44.3034 28.7365L44.439 27.141C44.5185 26.2401 45.3652 25.5691 46.3242 25.6535C47.2831 25.738 48.0035 26.5404 47.9286 27.446L47.793 29.0415C47.5264 29.018 47.2878 29.2057 47.2691 29.4591L47.2644 29.5013C47.241 29.7547 47.4422 29.9799 47.7135 30.0034L46.9229 39.1724L49.6407 39.407L50.4313 30.238L50.478 30.2427C50.7447 30.2662 50.9832 30.0785 51.0066 29.8251L51.0113 29.7829C51.0253 29.5248 50.8242 29.2995 50.5576 29.2761Z" fill="#EFB867"/>
<path d="M49.5799 19.5956L46.4926 19.3281L47.1475 11.7452H47.1428C46.8387 11.717 46.6095 11.4636 46.6329 11.1774L46.6376 11.1304C46.661 10.8442 46.9323 10.633 47.2363 10.6565H47.241L47.3954 8.84523C47.4843 7.82228 46.6656 6.90725 45.5757 6.81341C45.4401 6.79933 45.3044 6.80402 45.1734 6.8181C45.0424 6.83218 44.9161 6.85564 44.7945 6.89318C44.6729 6.93072 44.556 6.97764 44.4437 7.03395C43.887 7.32488 43.4894 7.85982 43.438 8.49799L43.2836 10.3093H43.3117C43.6157 10.3374 43.8449 10.5908 43.8215 10.8771L43.8169 10.924C43.7935 11.2102 43.5222 11.4214 43.2181 11.3979H43.19L42.5352 18.9809L39.4478 18.7134L40.1027 11.1304H40.0887C39.7846 11.1023 39.5554 10.8489 39.5788 10.5627L39.5835 10.5157C39.6069 10.2295 39.8782 10.0183 40.1822 10.0418H40.1963L40.3506 8.23052C40.4395 7.20757 39.6209 6.29255 38.531 6.1987C37.441 6.10485 36.4774 6.86502 36.3885 7.88797L36.2342 9.69925H36.2529C36.5569 9.72741 36.7861 9.9808 36.7628 10.267L36.7487 10.3233C36.7253 10.6096 36.454 10.8207 36.15 10.7973H36.1313L35.4764 18.3802L32.389 18.1128L33.0439 10.5298H33.0205C32.7165 10.5017 32.4873 10.2483 32.5106 9.96203L32.5153 9.9151C32.5387 9.62886 32.81 9.41771 33.1141 9.44117H33.1375L33.2918 7.62989C33.3246 7.24511 33.231 6.8791 33.0439 6.56001C32.9831 6.45678 32.9083 6.35355 32.8241 6.26439C32.4919 5.89838 32.0195 5.64499 31.4722 5.59807C30.7892 5.53706 30.1624 5.81392 29.7601 6.27847C29.5215 6.55532 29.3625 6.90256 29.3297 7.28734L29.1754 9.09862H29.1847C29.4888 9.12677 29.718 9.38017 29.6946 9.6664L29.6899 9.71333C29.6665 9.99957 29.3952 10.2107 29.0912 10.1873H29.0818L28.4269 17.7702L25.3443 17.5028L49.5799 19.5956L50.2348 12.0126L49.5799 19.5956Z" fill="#CE974E"/>
<path d="M50.3611 10.9287L50.3284 10.924L50.8382 4.99744L26.6073 2.89523L26.0974 8.82177H26.0553C25.7512 8.79362 25.4799 9.00947 25.4565 9.29571L25.4519 9.34264C25.4285 9.62887 25.6577 9.88227 25.9617 9.91042L26.0038 9.91511L25.349 17.4981L28.4316 17.7656L29.0865 10.1826H29.0959C29.3999 10.2107 29.6712 9.99488 29.6946 9.70865L29.6993 9.66172C29.7227 9.37548 29.4935 9.12209 29.1894 9.09394H29.1801L29.3344 7.28266C29.3672 6.89788 29.5215 6.55064 29.7648 6.27378C30.1624 5.80923 30.7939 5.53707 31.4769 5.59338C32.0195 5.64031 32.4966 5.8937 32.8287 6.25971C32.9129 6.35356 32.9831 6.4521 33.0486 6.55533C33.2357 6.86972 33.3293 7.24043 33.2965 7.62521L33.1422 9.43648H33.1188C32.8147 9.40833 32.5434 9.62418 32.52 9.91042L32.5153 9.95734C32.4919 10.2436 32.7212 10.497 33.0252 10.5251H33.0486L32.3937 18.1081L35.4811 18.3756L36.1313 10.7926H36.15C36.454 10.8208 36.7253 10.6049 36.7487 10.3187L36.7534 10.2717C36.7768 9.9855 36.5476 9.73211 36.2435 9.70395H36.2248L36.3792 7.89267C36.4681 6.86972 37.4317 6.10955 38.5216 6.2034C39.6115 6.29725 40.4302 7.21227 40.3413 8.23522L40.1869 10.0465H40.1729C39.8688 10.0183 39.5975 10.2342 39.5741 10.5204L39.5694 10.5674C39.5461 10.8536 39.7753 11.107 40.0793 11.1351H40.0934L39.4385 18.7181L42.5258 18.9856L43.1807 11.4026H43.2088C43.5128 11.4308 43.7841 11.2149 43.8075 10.9287L43.8122 10.8818C43.8356 10.5955 43.6064 10.3421 43.3023 10.314H43.2743L43.4286 8.50269C43.4848 7.86452 43.8824 7.32489 44.4343 7.03865C44.5466 6.98234 44.6636 6.93073 44.7852 6.89788C44.9068 6.86034 45.0331 6.83688 45.1641 6.8228C45.2951 6.80872 45.4307 6.80872 45.5664 6.81811C46.6563 6.91196 47.4749 7.82698 47.386 8.84993L47.2317 10.6612H47.227C46.9229 10.6331 46.6516 10.8489 46.6282 11.1351L46.6236 11.1821C46.6002 11.4683 46.8294 11.7217 47.1334 11.7499H47.1381L46.4832 19.3328L49.5706 19.6003L50.2255 12.0173L50.2582 12.022C50.5623 12.0502 50.8336 11.8343 50.857 11.5481L50.8616 11.5012C50.8944 11.2102 50.6652 10.9568 50.3611 10.9287Z" fill="#EFB867"/>
<path d="M46.738 82.1136L17.5214 79.5808L15.1189 107.468L44.3355 110L46.738 82.1136Z" fill="#FFD895"/>
<path d="M30.0948 87.5624L28.282 108.605L31.1668 108.855L32.9796 87.8125L30.0948 87.5624Z" fill="#EFB867"/>
<path d="M23.5073 86.9929L21.6945 108.035L24.5793 108.285L26.3922 87.243L23.5073 86.9929Z" fill="#EFB867"/>
<path d="M36.683 88.1352L34.8702 109.178L37.7551 109.428L39.5679 88.3853L36.683 88.1352Z" fill="#EFB867"/>
<path d="M43.2671 88.7065L41.4543 109.749L44.3345 109.999L46.1473 88.9562L43.2671 88.7065Z" fill="#EFB867"/>
<path d="M16.9323 86.4213L15.1195 107.464L17.9997 107.713L19.8125 86.671L16.9323 86.4213Z" fill="#EFB867"/>
<path d="M46.7358 82.1129L17.5183 79.5789L16.9289 86.4205L19.8058 86.6692L19.9508 84.9752C20.035 84.018 20.9331 83.3094 21.9482 83.3986C22.968 83.4877 23.7304 84.3418 23.6462 85.299L23.5012 86.993L26.3874 87.2417L26.5324 85.5477C26.6166 84.5905 27.5148 83.8819 28.5298 83.9711C29.5496 84.0602 30.3121 84.9142 30.2279 85.8715L30.0829 87.5655L32.9691 87.8142L33.1141 86.1202C33.1983 85.1629 34.0964 84.4544 35.1115 84.5435C36.1313 84.6327 36.8937 85.4867 36.8095 86.444L36.6645 88.138L39.5507 88.3867L39.6957 86.6927C39.7799 85.7354 40.6781 85.0269 41.6931 85.116C42.7129 85.2052 43.4754 86.0592 43.3912 87.0165L43.2462 88.7104L46.123 88.9591L46.7358 82.1129Z" fill="#EFB867"/>
<path d="M19.8338 86.6739L16.8775 86.4158C16.6015 86.3924 16.3582 86.5988 16.3348 86.8757V86.8851C16.3115 87.1619 16.5173 87.4059 16.7933 87.4294L19.7496 87.6875C20.0256 87.7109 20.2689 87.5045 20.2923 87.2276V87.2182C20.3157 86.9461 20.1098 86.7021 19.8338 86.6739Z" fill="#EFB867"/>
<path d="M26.4108 87.2464L23.4872 86.993C23.2018 86.9695 22.9492 87.1666 22.9259 87.4341L22.9212 87.4763C22.8978 87.7438 23.113 87.9831 23.3983 88.0066L26.3219 88.26C26.6073 88.2834 26.8599 88.0863 26.8833 87.8189L26.8879 87.7766C26.9113 87.5092 26.6962 87.2698 26.4108 87.2464Z" fill="#EFB867"/>
<path d="M33.0065 87.8189L30.0829 87.5655C29.7975 87.542 29.5449 87.7391 29.5215 88.0066L29.5169 88.0488C29.4935 88.3163 29.7087 88.5556 29.994 88.579L32.9176 88.8324C33.203 88.8559 33.4556 88.6588 33.479 88.3913L33.4836 88.3491C33.5023 88.0816 33.2918 87.8423 33.0065 87.8189Z" fill="#EFB867"/>
<path d="M39.6022 88.3913L36.6786 88.138C36.3932 88.1145 36.1406 88.3116 36.1172 88.579L36.1125 88.6213C36.0892 88.8887 36.3043 89.1281 36.5897 89.1515L39.5133 89.4049C39.7987 89.4284 40.0513 89.2313 40.0746 88.9638L40.0793 88.9216C40.098 88.6541 39.8829 88.4148 39.6022 88.3913Z" fill="#EFB867"/>
<path d="M46.2119 88.9638L43.2555 88.7057C42.9796 88.6823 42.7363 88.8887 42.7129 89.1656V89.175C42.6895 89.4518 42.8954 89.6958 43.1713 89.7193L46.1277 89.9774C46.4037 90.0008 46.6469 89.7944 46.6703 89.5175V89.5081C46.6937 89.2313 46.4879 88.9873 46.2119 88.9638Z" fill="#EFB867"/>
<path opacity="0.58" d="M46.9323 78.8516L46.2447 78.7906L46.8762 71.461L47.0352 69.6216L47.082 69.6263C47.3486 69.6498 47.5872 69.4621 47.6106 69.2087L47.6152 69.1665C47.6386 68.9131 47.4328 68.6878 47.1662 68.6644L47.1194 68.6597L47.6761 62.2029V62.1888C48.4292 62.1888 49.07 61.6586 49.1308 60.9359L49.1542 60.6638L49.1589 60.6309C49.2197 59.9083 48.6818 59.2748 47.938 59.1434L47.9474 59.0496L48.7379 49.8806L48.7847 49.8853C49.0513 49.9087 49.2899 49.721 49.3133 49.4676L49.318 49.4254C49.3413 49.172 49.1355 48.9468 48.8689 48.9233L48.8221 48.9186L49.3788 42.4618V42.4477C50.1319 42.4477 50.7728 41.9175 50.8336 41.1949L50.8476 41.0306L50.8616 40.8852C50.9224 40.1625 50.3845 39.5291 49.6407 39.3977V39.3836L50.4313 30.2146L50.4781 30.2193C50.7447 30.2427 50.9833 30.055 51.0066 29.8016L51.0113 29.7594C51.0347 29.506 50.8336 29.2808 50.5623 29.2573L50.5155 29.2526L51.0721 22.7958L50.9412 22.7865C51.7551 22.8568 52.4661 22.2937 52.5316 21.5336L52.541 21.4022L52.555 21.2286C52.6205 20.4637 52.017 19.788 51.2031 19.7176L49.5799 19.5768L50.2348 11.9939L50.2676 11.9986C50.5716 12.0267 50.8429 11.8109 50.8663 11.5246L50.871 11.4777C50.8944 11.1915 50.6652 10.9381 50.3611 10.9099L50.3284 10.9052L50.8336 5.06783L51.0908 5.09129C51.8486 5.15699 52.5176 4.63143 52.5784 3.91818L52.6064 3.5991L52.6111 3.52871C52.6719 2.81546 52.1059 2.18198 51.3481 2.11629L41.347 1.27165L41.0991 4.1575C41.0991 4.1575 45.7769 4.88013 45.5757 6.81811L36.7394 109.343L37.7545 109.432L41.4546 109.751L44.3314 110L46.0575 89.9727L46.1043 89.9774C46.3897 90.0009 46.6423 89.8038 46.6657 89.5363L46.6703 89.4941C46.6937 89.2266 46.4785 88.9873 46.1932 88.9638L46.1464 88.9591L46.7358 82.1176L46.6516 82.1082C47.5123 82.1833 48.2655 81.5873 48.3356 80.7802L48.3637 80.4799V80.4564C48.4339 79.6447 47.793 78.9267 46.9323 78.8516Z" fill="#D89C4C"/>
<path d="M25.6577 67.7681C25.391 67.7446 25.1852 67.5194 25.2086 67.266L25.2133 67.2238C25.2367 66.9704 25.4706 66.7827 25.7419 66.8062H25.7653L25.9009 65.2107C25.9804 64.3098 25.2554 63.5027 24.2964 63.4182C23.3375 63.3338 22.4861 64.0048 22.4113 64.9057L22.2756 66.5011H22.285C22.5516 66.5246 22.7575 66.7498 22.7341 67.0032L22.7294 67.0455C22.706 67.2989 22.4721 67.4866 22.2008 67.4631H22.1914L21.4009 76.6321L24.8905 76.9371L25.6811 67.7681H25.6577Z" fill="#CE974E"/>
<path d="M31.8792 68.3077C31.6125 68.2843 31.4067 68.059 31.4301 67.8056L31.4348 67.7634C31.4581 67.51 31.692 67.3223 31.9634 67.3458H31.9774L32.113 65.7504C32.1926 64.8494 31.4675 64.0423 30.5086 63.9579C29.5496 63.8734 28.6983 64.5444 28.6234 65.4454L28.4878 67.0408H28.5018C28.7684 67.0642 28.9742 67.2895 28.9509 67.5429L28.9462 67.5851C28.9228 67.8385 28.6889 68.0262 28.4176 68.0027H28.4036L27.613 77.1717L31.1026 77.4721L31.8932 68.303L31.8792 68.3077Z" fill="#CE974E"/>
<path d="M43.873 68.8849L43.8777 68.8427C43.9011 68.5893 44.135 68.4063 44.4016 68.425L44.5373 66.8296C44.6168 65.9287 43.8917 65.1216 42.9328 65.0371C41.9738 64.9526 41.1225 65.6237 41.0476 66.5246L40.912 68.12L40.94 68.1247C41.2067 68.1482 41.4125 68.3734 41.3891 68.6268L41.3844 68.669C41.361 68.9224 41.1271 69.1101 40.8558 69.0867L40.8278 69.082L40.0372 78.251L43.5269 78.5513L44.3174 69.3776C44.0508 69.3635 43.8496 69.1383 43.873 68.8849Z" fill="#CE974E"/>
<path d="M36.7207 64.5022C35.7617 64.4177 34.9104 65.0887 34.8355 65.9897L34.7466 67.0267C34.8262 66.1258 35.6728 65.4547 36.6318 65.5392C37.5907 65.6237 38.3158 66.4261 38.2363 67.3317L38.3251 66.2947C38.4047 65.3937 37.6796 64.5866 36.7207 64.5022Z" fill="#A57235"/>
<path d="M35.0741 69.1711L35.0787 69.1289C35.1021 68.8755 34.8963 68.6503 34.6297 68.6268H34.6063L34.5221 69.5841H34.5455C34.8168 69.6122 35.0554 69.4245 35.0741 69.1711Z" fill="#CE974E"/>
<path d="M37.5627 69.3448L37.558 69.387C37.5346 69.6404 37.7404 69.8656 38.0071 69.8891H38.0117L38.0959 68.9318H38.0913C37.8246 68.9037 37.5861 69.0914 37.5627 69.3448Z" fill="#CE974E"/>
<path d="M25.1244 68.2655L25.1197 68.3077C25.0963 68.5611 25.3022 68.7864 25.5688 68.8098H25.5922L25.6764 67.8526H25.653C25.3817 67.8291 25.1431 68.0121 25.1244 68.2655Z" fill="#CE974E"/>
<path d="M22.6312 68.0919L22.6358 68.0497C22.6592 67.7963 22.4534 67.571 22.1868 67.5476H22.1774L22.0979 68.5095H22.1072C22.3739 68.533 22.6124 68.3453 22.6312 68.0919Z" fill="#CE974E"/>
<path d="M24.2964 63.4229C23.3375 63.3384 22.4861 64.0095 22.4113 64.9104L22.3224 65.9474C22.4019 65.0465 23.2486 64.3755 24.2076 64.4599C25.1665 64.5444 25.8869 65.3468 25.8121 66.2525L25.9009 65.2154C25.9758 64.3145 25.2554 63.5074 24.2964 63.4229Z" fill="#A57235"/>
<path d="M28.8526 68.6315L28.8573 68.5893C28.8807 68.3359 28.6749 68.1107 28.4082 68.0872H28.3942L28.31 69.0445H28.324C28.5953 69.0726 28.8339 68.8849 28.8526 68.6315Z" fill="#CE974E"/>
<path d="M30.5086 63.9625C29.5496 63.8781 28.6983 64.5491 28.6234 65.45L28.5345 66.4871C28.6141 65.5861 29.4607 64.9151 30.4197 64.9996C31.3786 65.084 32.1037 65.8864 32.0242 66.7921L32.113 65.7551C32.1879 64.8541 31.4675 64.047 30.5086 63.9625Z" fill="#A57235"/>
<path d="M31.3459 68.8051L31.3412 68.8474C31.3178 69.1008 31.5236 69.326 31.7903 69.3495H31.8043L31.8885 68.3922H31.8745C31.6032 68.364 31.3646 68.5517 31.3459 68.8051Z" fill="#CE974E"/>
<path d="M42.9375 65.0418C41.9785 64.9573 41.1271 65.6284 41.0523 66.5293L40.9634 67.5663C41.0429 66.6654 41.8896 65.9944 42.8486 66.0788C43.8075 66.1633 44.5326 66.9657 44.4531 67.8713L44.5419 66.8343C44.6168 65.9287 43.8964 65.1263 42.9375 65.0418Z" fill="#A57235"/>
<path d="M41.2955 69.7108L41.3002 69.6685C41.3236 69.4152 41.1178 69.1899 40.8511 69.1664L40.8231 69.1618L40.7389 70.119L40.7669 70.1237C41.0383 70.1519 41.2768 69.9642 41.2955 69.7108Z" fill="#CE974E"/>
<path d="M43.7841 69.8844L43.7795 69.9266C43.7561 70.18 43.9572 70.4053 44.2285 70.4287L44.3127 69.4715C44.0461 69.448 43.8075 69.631 43.7841 69.8844Z" fill="#CE974E"/>
<path d="M35.1676 68.1341L35.1723 68.0919C35.1957 67.8385 34.9899 67.6132 34.7233 67.5898H34.6999L34.6157 68.5471H34.6391C34.9057 68.5705 35.1442 68.3828 35.1676 68.1341Z" fill="#CE974E"/>
<path d="M37.6562 68.3077L37.6515 68.35C37.6281 68.6034 37.834 68.8286 38.1006 68.8521H38.1053L38.1895 67.8948H38.1848C37.9135 67.8666 37.6749 68.0543 37.6562 68.3077Z" fill="#CE974E"/>
<path d="M22.7247 67.0549L22.7294 67.0126C22.7528 66.7592 22.5516 66.534 22.2803 66.5105H22.271L22.1868 67.4678H22.1961C22.4628 67.4913 22.7013 67.3036 22.7247 67.0549Z" fill="#CE974E"/>
<path d="M25.2133 67.2285L25.2086 67.2707C25.1852 67.5241 25.391 67.7493 25.6577 67.7728H25.6811L25.7653 66.8155H25.7419C25.4706 66.7874 25.232 66.9751 25.2133 67.2285Z" fill="#CE974E"/>
<path d="M28.9462 67.5945L28.9508 67.5523C28.9742 67.2989 28.7731 67.0736 28.5018 67.0502H28.4877L28.4035 68.0074H28.4176C28.6842 68.0309 28.9228 67.8432 28.9462 67.5945Z" fill="#CE974E"/>
<path d="M31.4348 67.7681L31.4301 67.8103C31.4067 68.0637 31.6125 68.289 31.8791 68.3124H31.8932L31.9774 67.3552H31.9633C31.692 67.327 31.4535 67.5147 31.4348 67.7681Z" fill="#CE974E"/>
<path d="M43.8777 68.8474L43.873 68.8896C43.8496 69.143 44.0508 69.3682 44.3221 69.3917L44.4063 68.4344C44.135 68.4063 43.8964 68.594 43.8777 68.8474Z" fill="#CE974E"/>
<path d="M41.3844 68.6738L41.3891 68.6315C41.4125 68.3781 41.2067 68.1529 40.94 68.1294L40.912 68.1247L40.8278 69.082L40.8558 69.0867C41.1271 69.1101 41.3657 68.9224 41.3844 68.6738Z" fill="#CE974E"/>
<path d="M19.5204 66.2712C19.2538 66.2478 19.0152 66.4355 18.9918 66.6888L18.9872 66.7311C18.9638 66.9845 19.1649 67.2097 19.4362 67.2332L19.4736 67.2379L19.5578 66.2806L19.5204 66.2712Z" fill="#EFB867"/>
<path d="M47.1615 68.669L47.1147 68.6644L47.6714 62.2076L46.2446 78.7906L47.0352 69.6216L47.082 69.6263C47.3486 69.6498 47.5872 69.4621 47.6106 69.2087L47.6152 69.1664C47.634 68.9177 47.4328 68.6925 47.1615 68.669Z" fill="#EFB867"/>
<path d="M44.57 46.1501C45.5289 46.2345 46.2493 47.0369 46.1745 47.9426L46.2493 47.0979C46.3288 46.197 45.6038 45.3899 44.6448 45.3054C43.6859 45.221 42.8345 45.892 42.7597 46.7929L42.6848 47.6376C42.7597 46.7366 43.6064 46.0656 44.57 46.1501Z" fill="#A57235"/>
<path d="M25.929 44.5312C26.8879 44.6156 27.6083 45.4181 27.5335 46.3237L27.6083 45.4791C27.6879 44.5781 26.9628 43.771 26.0038 43.6865C25.0449 43.6021 24.1935 44.2731 24.1187 45.174L24.0439 46.0187C24.1187 45.1177 24.9654 44.4514 25.929 44.5312Z" fill="#A57235"/>
<path d="M38.3532 45.6104C39.3121 45.6949 40.0372 46.4973 39.9577 47.4029L40.0325 46.5583C40.1121 45.6574 39.387 44.8503 38.428 44.7658C37.4691 44.6813 36.6177 45.3524 36.5429 46.2533L36.468 47.0979C36.5429 46.197 37.3943 45.526 38.3532 45.6104Z" fill="#A57235"/>
<path d="M32.1411 45.0708C33.1 45.1553 33.8204 45.9577 33.7456 46.8633L33.8204 46.0187C33.8999 45.1177 33.1749 44.3106 32.2159 44.2262C31.257 44.1417 30.4056 44.8127 30.3308 45.7137L30.256 46.5583C30.3308 45.6574 31.1822 44.9864 32.1411 45.0708Z" fill="#A57235"/>
<path d="M40.0419 26.0102C41.0008 26.0946 41.7212 26.897 41.6464 27.8027L41.7259 26.9017C41.8054 26.0008 41.0804 25.1937 40.1214 25.1092C39.1625 25.0247 38.3111 25.6958 38.2363 26.5967L38.1568 27.4977C38.2316 26.5967 39.083 25.9304 40.0419 26.0102Z" fill="#A57235"/>
<path d="M40.7155 38.6281L43.438 38.8674L40.7155 38.6281Z" fill="#CE974E"/>
<path d="M46.254 26.5498C47.2129 26.6343 47.938 27.4367 47.8585 28.3423L47.938 27.4413C48.0175 26.5404 47.2925 25.7333 46.3335 25.6488C45.3746 25.5644 44.5232 26.2354 44.4484 27.1363L44.3689 28.0373C44.4484 27.1363 45.2951 26.4653 46.254 26.5498Z" fill="#A57235"/>
<path d="M24.797 37.2485L22.0792 37.0139L24.797 37.2485Z" fill="#CE974E"/>
<path d="M46.9276 39.1677L49.6454 39.4024L46.9276 39.1677Z" fill="#CE974E"/>
<path d="M27.613 24.9356C28.572 25.0201 29.2923 25.8225 29.2175 26.7281L29.297 25.8272C29.3765 24.9262 28.6515 24.1191 27.6925 24.0346C26.7336 23.9502 25.8822 24.6212 25.8074 25.5221L25.7279 26.4231C25.8074 25.5221 26.6541 24.8511 27.613 24.9356Z" fill="#A57235"/>
<path d="M34.4987 38.0885L37.2212 38.3278L34.4987 38.0885Z" fill="#CE974E"/>
<path d="M28.2866 37.5535L31.0091 37.7882L28.2866 37.5535Z" fill="#CE974E"/>
<path d="M33.8298 25.4752C34.7887 25.5597 35.5091 26.3621 35.4343 27.2677L35.5138 26.3668C35.5933 25.4658 34.8683 24.6587 33.9093 24.5743C32.9504 24.4898 32.099 25.1608 32.0242 26.0618L31.9446 26.9627C32.0195 26.0618 32.8708 25.3908 33.8298 25.4752Z" fill="#A57235"/>
<path d="M39.4384 18.7181L42.5305 18.9856L39.4384 18.7181Z" fill="#CE974E"/>
<path d="M38.4514 7.01518C39.5414 7.10903 40.36 8.02406 40.2711 9.04701L40.3413 8.23521C40.4301 7.21226 39.6115 6.29724 38.5216 6.20339C37.4317 6.10954 36.4681 6.86972 36.3792 7.89267L36.309 8.70446C36.3979 7.68151 37.3615 6.92133 38.4514 7.01518Z" fill="#A57235"/>
<path d="M44.3689 7.85044C44.4811 7.79413 44.5981 7.74251 44.7197 7.70966C44.8413 7.67212 44.9676 7.64866 45.0986 7.63458C45.2296 7.62051 45.3652 7.62051 45.5009 7.62989C46.5908 7.72374 47.4094 8.63876 47.3205 9.66172L47.3907 8.84992C47.4796 7.82697 46.661 6.91195 45.571 6.8181C45.4354 6.80402 45.2997 6.80872 45.1688 6.82279C45.0378 6.83687 44.9115 6.86033 44.7899 6.89787C44.6682 6.93541 44.5513 6.98234 44.439 7.03865C43.8824 7.32958 43.4848 7.86451 43.4333 8.50268L43.3631 9.31448C43.4146 8.6763 43.8122 8.14137 44.3689 7.85044Z" fill="#A57235"/>
<path d="M31.402 6.40517C31.9446 6.4521 32.4218 6.70549 32.7539 7.0715C32.8381 7.16535 32.9083 7.26389 32.9737 7.36712C33.1609 7.68151 33.2544 8.05222 33.2217 8.437L33.2918 7.6252C33.3246 7.24042 33.231 6.87442 33.0439 6.55533C32.9831 6.4521 32.9083 6.34886 32.8241 6.25971C32.4919 5.8937 32.0195 5.64031 31.4722 5.59338C30.7892 5.53238 30.1624 5.80923 29.7601 6.27378C29.5215 6.55064 29.3625 6.89788 29.3298 7.28266L29.2596 8.09445C29.2923 7.70967 29.4467 7.36243 29.6899 7.08557C30.0922 6.62102 30.7237 6.34886 31.402 6.40517Z" fill="#A57235"/>
<path d="M28.4316 17.7609L25.349 17.4981L28.4316 17.7609Z" fill="#CE974E"/>
<path d="M46.4879 19.3281L49.5799 19.5956L46.4879 19.3281Z" fill="#CE974E"/>
<path d="M32.389 18.1081L35.481 18.3756L32.389 18.1081Z" fill="#CE974E"/>
<path d="M44.7898 6.89319C44.6682 6.93073 44.5513 6.97765 44.439 7.03396C44.5513 6.98234 44.6682 6.93073 44.7898 6.89319Z" fill="#EFB867"/>
<path d="M45.1687 6.8181C45.0378 6.83218 44.9115 6.85564 44.7898 6.89318C44.9115 6.86033 45.0378 6.83218 45.1687 6.8181Z" fill="#EFB867"/>
<path d="M29.7601 6.27378C30.1577 5.80923 30.7892 5.53707 31.4722 5.59338C30.7939 5.53238 30.1624 5.80923 29.7601 6.27378Z" fill="#EFB867"/>
<path d="M47.8538 59.134L20.47 56.7597C19.6841 56.6893 18.9918 57.2758 18.9217 58.0642L18.903 58.28C18.8328 59.0683 19.4175 59.7628 20.2034 59.8332L47.5872 62.2076C48.373 62.278 49.0654 61.6914 49.1355 60.9031L49.1542 60.6872C49.2197 59.8942 48.6397 59.1997 47.8538 59.134Z" fill="#FFD895"/>
<path d="M49.5518 39.3977L22.168 37.0233C21.3822 36.9529 20.6899 37.5395 20.6197 38.3278L20.601 38.5436C20.5308 39.332 21.1155 40.0264 21.9014 40.0968L49.2852 42.4712C50.0711 42.5416 50.7634 41.955 50.8335 41.1667L50.8523 40.9509C50.9224 40.1578 50.3424 39.4634 49.5518 39.3977Z" fill="#FFD895"/>
<path d="M51.2452 19.7411L23.8614 17.3667C23.0756 17.2963 22.3832 17.8829 22.3131 18.6712L22.2944 18.887C22.2242 19.6754 22.8089 20.3698 23.5948 20.4402L50.9786 22.8146C51.7644 22.885 52.4568 22.2984 52.5269 21.5101L52.5456 21.2943C52.6158 20.5059 52.0358 19.8114 51.2452 19.7411Z" fill="#FFD895"/>
<path d="M51.3855 2.13975L26.7383 0.00469172C26.0038 -0.0610023 25.3536 0.488012 25.2928 1.22472L25.2647 1.52504C25.1993 2.26175 25.7466 2.914 26.481 2.975L51.1283 5.11006C51.8627 5.17575 52.5129 4.62674 52.5737 3.89003L52.6018 3.58971C52.6672 2.85769 52.1199 2.20544 51.3855 2.13975Z" fill="#FFD895"/>
<path d="M46.9837 78.8563L17.958 76.3412C17.1254 76.2708 16.391 76.8902 16.3208 77.7254L16.3021 77.9507C16.2319 78.7859 16.8494 79.5227 17.682 79.593L46.7077 82.1082C47.5404 82.1786 48.2748 81.5592 48.345 80.7239L48.3637 80.4987C48.4338 79.6681 47.8164 78.9314 46.9837 78.8563Z" fill="#FFD895"/>
<path d="M49.1542 60.6685L49.1589 60.6356C49.2244 59.8707 48.621 59.195 47.807 59.1246L20.5168 56.7597C19.7029 56.6893 18.9918 57.2524 18.9263 58.0125L18.9217 58.0454L49.1542 60.6685Z" fill="#CE974E"/>
<path d="M50.8476 41.0447L50.8616 40.8992C50.9271 40.1344 50.3237 39.4587 49.5097 39.3883L22.2148 37.0233C21.4009 36.9529 20.6899 37.516 20.6244 38.2762L20.6104 38.4216L50.8476 41.0447Z" fill="#CE974E"/>
<path d="M52.5363 21.421L52.5503 21.2473C52.6158 20.4825 52.0124 19.8068 51.1984 19.7364L23.9082 17.3714C23.0943 17.301 22.3832 17.8641 22.3177 18.6243L22.3037 18.7979L52.5363 21.421Z" fill="#CE974E"/>
<path d="M52.6018 3.61787L52.6064 3.54748C52.6673 2.83423 52.1012 2.20075 51.3434 2.13506L26.785 0.00469368C26.0226 -0.0563079 25.3536 0.469245 25.2928 1.18249L25.2881 1.25288L52.6018 3.61787Z" fill="#CE974E"/>
<path d="M48.3637 80.4752V80.4517C48.4339 79.6446 47.793 78.9267 46.9323 78.8516L18.0048 76.3459C17.1441 76.2708 16.391 76.8667 16.3208 77.6738V77.6973L48.3637 80.4752Z" fill="#CE974E"/>
<path d="M67 106.837H0V110H67V106.837Z" fill="#8AC53E"/>
</g>
<defs>
<clipPath id="clip0_1_507">
<rect width="67" height="110" fill="white"/>
</clipPath>
</defs>
</svg>
