<svg width="121" height="37" viewBox="0 0 121 37" fill="none" xmlns="http://www.w3.org/2000/svg">
<path d="M48.12 29.45C45.9 29.45 44.06 28.98 42.6 28.04C41.14 27.1 40.12 25.83 39.54 24.23L44.13 21.56C44.91 23.42 46.29 24.35 48.27 24.35C49.91 24.35 50.73 23.88 50.73 22.94C50.73 22.32 50.26 21.82 49.32 21.44C48.92 21.28 48.04 21.01 46.68 20.63C44.76 20.07 43.24 19.29 42.12 18.29C41 17.27 40.44 15.86 40.44 14.06C40.44 12.12 41.13 10.55 42.51 9.35C43.91 8.15 45.65 7.55 47.73 7.55C49.49 7.55 51.05 7.96 52.41 8.78C53.77 9.6 54.81 10.79 55.53 12.35L51.03 14.99C50.37 13.43 49.28 12.65 47.76 12.65C47.12 12.65 46.63 12.78 46.29 13.04C45.97 13.3 45.81 13.63 45.81 14.03C45.81 14.49 46.05 14.88 46.53 15.2C47.03 15.52 47.99 15.89 49.41 16.31C50.43 16.61 51.25 16.89 51.87 17.15C52.49 17.41 53.17 17.79 53.91 18.29C54.65 18.77 55.2 19.4 55.56 20.18C55.92 20.94 56.1 21.84 56.1 22.88C56.1 24.94 55.37 26.55 53.91 27.71C52.45 28.87 50.52 29.45 48.12 29.45ZM66.4223 23.96H74.5523V29H61.0523V8H74.4023V13.01H66.4223V15.92H73.6523V20.87H66.4223V23.96Z" fill="#006ED3"/>
<path d="M120.05 8V13.19H114.86V29H109.49V13.19H104.3V8H120.05Z" fill="#006ED3"/>
<circle cx="90" cy="18" r="4" fill="#369FFF"/>
<path fill-rule="evenodd" clip-rule="evenodd" d="M2.04899 17H7.01599C7.10199 14.267 7.54199 11.777 8.23199 9.88001C8.40899 9.39401 8.60599 8.93501 8.82499 8.51501C5.16199 9.74001 2.44399 13.028 2.04899 17ZM12 6C5.373 6 0 11.373 0 18C0 24.627 5.373 30 12 30C18.627 30 24 24.627 24 18C24 11.373 18.627 6 12 6ZM12 8C11.849 8 11.576 8.081 11.201 8.516C10.83 8.948 10.45 9.632 10.111 10.563C9.51401 12.207 9.10301 14.456 9.01701 17H14.983C14.897 14.456 14.486 12.207 13.889 10.563C13.55 9.632 13.17 8.948 12.799 8.516C12.424 8.081 12.151 8 12 8ZM16.984 17C16.897 14.267 16.458 11.777 15.768 9.88001C15.591 9.39401 15.394 8.93501 15.175 8.51501C18.838 9.74001 21.556 13.028 21.951 17H16.984ZM14.983 19H9.01701C9.10301 21.544 9.51401 23.793 10.111 25.437C10.45 26.368 10.83 27.052 11.201 27.484C11.576 27.919 11.849 28 12 28C12.151 28 12.424 27.919 12.799 27.484C13.17 27.052 13.55 26.368 13.889 25.437C14.486 23.793 14.897 21.544 14.983 19ZM15.175 27.485C15.394 27.065 15.591 26.606 15.768 26.12C16.458 24.223 16.897 21.733 16.984 19H21.951C21.556 22.972 18.838 26.26 15.175 27.485ZM8.82499 27.485C8.60599 27.065 8.40899 26.606 8.23199 26.12C7.54199 24.223 7.10199 21.733 7.01599 19H2.04899C2.44399 22.972 5.16199 26.26 8.82499 27.485Z" fill="#369FFF"/>
</svg>
