<svg width="25" height="26" viewBox="0 0 25 26" fill="none" xmlns="http://www.w3.org/2000/svg">
<g clip-path="url(#clip0_1_607)">
<path d="M9.99999 25.8533C10.4199 25.8437 10.8229 25.6858 11.1377 25.4076C11.4525 25.1295 11.6587 24.7489 11.72 24.3333H8.21332C8.2763 24.7602 8.4922 25.1497 8.82085 25.4293C9.14951 25.7089 9.56853 25.8596 9.99999 25.8533Z" fill="#909090"/>
<path d="M19.6733 21.5534C19.0305 20.9802 18.4676 20.3232 18 19.6C17.4895 18.6017 17.1835 17.5115 17.1 16.3934V13.1C17.0973 12.7 17.0616 12.3009 16.9933 11.9067C16.4686 11.8018 15.9643 11.6127 15.5 11.3467C15.677 11.9166 15.7669 12.5099 15.7667 13.1067V16.4C15.8484 17.764 16.2236 19.0943 16.8667 20.3C17.3269 21.0294 17.8731 21.7008 18.4933 22.3H1.41999C2.04026 21.7008 2.58639 21.0294 3.04666 20.3C3.68973 19.0943 4.06495 17.764 4.14666 16.4V13.1C4.14315 12.3285 4.29186 11.5638 4.58429 10.8498C4.87671 10.1358 5.3071 9.48655 5.8508 8.93913C6.39451 8.3917 7.04086 7.9569 7.75284 7.65963C8.46482 7.36235 9.22844 7.20843 9.99999 7.20668C11.1292 7.20759 12.233 7.54152 13.1733 8.16668C13.0697 7.78601 13.0115 7.39439 13 7.00002V6.58002C12.3039 6.23759 11.5561 6.01234 10.7867 5.91335V5.07335C10.7867 4.83731 10.6929 4.61093 10.526 4.44402C10.3591 4.27712 10.1327 4.18335 9.89666 4.18335C9.66061 4.18335 9.43424 4.27712 9.26733 4.44402C9.10043 4.61093 9.00666 4.83731 9.00666 5.07335V5.94668C7.2838 6.18972 5.70704 7.04785 4.56747 8.36264C3.4279 9.67743 2.80248 11.3601 2.80666 13.1V16.3934C2.72316 17.5115 2.41718 18.6017 1.90666 19.6C1.44725 20.3216 0.893455 20.9785 0.259992 21.5534C0.18888 21.6158 0.131886 21.6927 0.0928035 21.7789C0.0537209 21.8652 0.0334451 21.9587 0.0333252 22.0534V22.96C0.0333252 23.1368 0.103563 23.3064 0.228587 23.4314C0.353612 23.5564 0.523181 23.6267 0.699992 23.6267H19.2333C19.4101 23.6267 19.5797 23.5564 19.7047 23.4314C19.8298 23.3064 19.9 23.1368 19.9 22.96V22.0534C19.8999 21.9587 19.8796 21.8652 19.8405 21.7789C19.8014 21.6927 19.7444 21.6158 19.6733 21.5534Z" fill="#909090"/>
<path d="M20 10C22.7614 10 25 7.76142 25 5C25 2.23858 22.7614 0 20 0C17.2386 0 15 2.23858 15 5C15 7.76142 17.2386 10 20 10Z" fill="#EB5757"/>
</g>
<defs>
<clipPath id="clip0_1_607">
<rect width="25" height="26" fill="white"/>
</clipPath>
</defs>
</svg>
