<svg width="50" height="110" viewBox="0 0 50 110" fill="none" xmlns="http://www.w3.org/2000/svg">
<g clip-path="url(#clip0_1_52)">
<path d="M24.7322 0C24.6205 0 24.532 0.0898809 24.532 0.203415V7.17628C24.532 7.28981 24.6205 7.37969 24.7322 7.37969C24.844 7.37969 24.9325 7.28981 24.9325 7.17628V0.203415C24.9325 0.0898809 24.844 0 24.7322 0Z" fill="#FFC000"/>
<path d="M24.7322 0C24.709 0 24.6857 0.00473057 24.667 0.0141917C24.7881 0.108803 24.8673 0.345332 24.858 0.562938C24.8393 1.09749 24.8626 4.37105 24.7881 5.64357C24.7742 5.88956 24.6065 5.87064 24.532 5.86118V7.17155C24.532 7.28508 24.6205 7.37496 24.7322 7.37496C24.844 7.37496 24.9325 7.28508 24.9325 7.17155V0.203415C24.9325 0.0898809 24.844 0 24.7322 0Z" fill="#FFD143"/>
<path d="M27.2702 7.38443H22.3107V9.97205H27.2702V7.38443Z" fill="#FFD143"/>
<path d="M26.9535 7.49323C26.1153 8.24539 25.2119 8.51977 24.1082 8.51977C23.4842 8.51977 22.9161 8.62384 22.3107 8.51977V9.97205H27.2702V7.38443H27.0513C27.0141 7.41754 26.9908 7.46012 26.9535 7.49323Z" fill="#FFC000"/>
<path d="M28.7697 49.6048L28.7278 49.5575C27.7638 40.6072 26.7905 28.005 26.6462 12.7158L26.6415 12.4603H22.8788L22.8742 12.7158C22.5761 44.1741 18.7855 64.3027 18.7436 64.5014L19.1627 64.6196C19.1674 64.6054 19.1953 64.4399 19.2465 64.1608L21.2769 62.576L22.8974 64.1702C22.8835 64.3973 22.8742 64.5203 22.8742 64.5392L23.3026 64.5771C23.3026 64.5581 23.3166 64.3926 23.3305 64.0993L24.7695 62.4861L26.1898 64.1986C26.2038 64.4304 26.2131 64.5629 26.2131 64.5771L26.6415 64.5345C26.6415 64.5203 26.6322 64.4257 26.6229 64.2648L28.304 62.5334L30.2645 64.0993C30.3204 64.4162 30.353 64.596 30.3576 64.6149L30.7767 64.4966C30.7581 64.3926 29.7476 59.047 28.7324 49.6379L28.7697 49.6048ZM28.6486 52.6986L27.4378 51.3788L28.3552 50.1488C28.4577 51.0382 28.5555 51.8849 28.6486 52.6986ZM27.8756 58.503L26.5484 57.2541H29.0072L27.8756 58.503ZM27.8895 58.9855L29.3983 60.4047H26.6043L27.8895 58.9855ZM26.4459 56.7953L27.5636 55.3619L28.9839 56.7953H26.4459ZM27.5356 54.8557L26.255 53.5596H28.5415L27.5356 54.8557ZM26.1525 53.0959L27.2516 51.6247L28.5974 53.0959H26.1525ZM20.5784 56.7953L21.9801 55.343L23.121 56.7953H20.5784ZM23.1489 57.2541L21.7612 58.5077L20.5737 57.2541H23.1489ZM20.9975 53.5596H23.2327L21.9987 54.8368L20.9975 53.5596ZM21.0114 53.0959L22.2874 51.6342L23.3352 53.0959H21.0114ZM24.4668 15.9184L23.8987 17.1105L23.4004 15.9184H24.4668ZM23.3119 15.4548L23.8893 14.3384L24.4575 15.4548H23.3119ZM25.6263 17.1625L25.0396 15.9136H26.1805L25.6263 17.1625ZM25.6263 17.5315L26.1898 18.7331H25.0955L25.6263 17.5315ZM24.9744 15.4548L25.5937 14.3005L26.2457 15.4548H24.9744ZM25.5425 17.347L24.9418 18.7C24.9325 17.8106 24.9278 16.9213 24.9232 16.0319L25.5425 17.347ZM24.9464 19.1872H24.9511H24.9464C24.9464 19.1919 24.9464 19.1919 24.9464 19.1872ZM25.9616 49.3777L26.9349 47.8781L28.1829 49.3777H25.9616ZM28.2155 49.8413L27.2329 51.1517L26.0315 49.8413H28.2155ZM23.8428 56.7953L24.7648 55.3051L25.7195 56.7953H23.8428ZM25.6776 57.2541L24.8161 58.3847L24.0197 57.2541H25.6776ZM24.3783 41.6716L24.7276 40.1058L25.0675 41.7C25.0675 41.7473 25.0722 41.7946 25.0722 41.8466H24.3737C24.3783 41.7899 24.3783 41.7284 24.3783 41.6716ZM23.8428 24.6747L24.4156 23.5204C24.4016 24.3151 24.3923 25.1099 24.3783 25.8999L23.8428 24.6747ZM25.0908 42.3102C25.0908 42.3339 25.0908 42.3576 25.0955 42.3765L24.7276 43.4598L24.355 42.3765C24.355 42.3528 24.355 42.3292 24.3597 42.3055H25.0908V42.3102ZM25.1141 42.8968C25.1374 43.5497 25.1653 44.1883 25.1932 44.8222L24.8254 43.7483L25.1141 42.8968ZM24.7276 44.0416L25.2212 45.4797C25.2212 45.527 25.2258 45.5791 25.2258 45.6264H24.234C24.234 45.5791 24.2386 45.527 24.2386 45.4797L24.7276 44.0416ZM25.2678 46.6387C25.2957 47.2868 25.3236 47.9207 25.3516 48.5404L24.8952 47.5044L25.2678 46.6387ZM24.7369 47.1449L24.2712 46.0852H25.1886L24.7369 47.1449ZM24.5832 47.5091L24.1129 48.6114C24.1408 47.9633 24.1688 47.301 24.1967 46.6245L24.5832 47.5091ZM24.7415 47.8734L25.3888 49.3446C25.3888 49.3541 25.3888 49.3683 25.3888 49.3777H24.0942L24.7415 47.8734ZM25.4354 50.2907C25.4727 51.0571 25.5053 51.8045 25.5425 52.5283L24.8999 51.2936L25.4354 50.2907ZM25.3981 38.9421L26.2829 40.1815L25.4913 41.5344C25.4587 40.6782 25.4307 39.8172 25.3981 38.9421ZM25.5332 42.6083L26.5111 43.8903L25.6403 45.2952C25.603 44.4201 25.5705 43.5213 25.5332 42.6083ZM25.3423 49.8413L24.7369 50.9814L24.1455 49.8413H25.3423ZM25.5099 53.0959H23.9359L24.7322 51.6058L25.5099 53.0959ZM25.4633 53.5596L24.7602 54.6949L24.0291 53.5596H25.4633ZM24.5692 55.0024L23.759 56.3175C23.7962 55.5606 23.8335 54.7611 23.8754 53.9191L24.5692 55.0024ZM24.9511 54.9976L25.6124 53.9285C25.6543 54.728 25.6915 55.4896 25.7288 56.2087L24.9511 54.9976ZM25.6869 46.3785L26.7393 47.6416L25.8079 49.075C25.766 48.1998 25.7288 47.3057 25.6869 46.3785ZM26.9116 47.3767L25.8359 46.0852H27.7498L26.9116 47.3767ZM25.7428 45.6217L26.6788 44.1079L27.829 45.6217H25.7428ZM26.6601 43.6537L25.6356 42.3102H27.489L26.6601 43.6537ZM25.5565 41.8466L26.4226 40.3707L27.4797 41.8466H25.5565ZM26.4087 39.9686L25.4633 38.6535H27.177L26.4087 39.9686ZM25.3656 37.9818C25.333 36.9742 25.3004 35.9524 25.2678 34.9164L26.1525 36.3545L25.3656 37.9818ZM25.2352 33.7999C25.2072 32.9011 25.1839 31.9881 25.1607 31.0704L25.9477 32.4044L25.2352 33.7999ZM25.142 30.2567L25.8918 28.7051L26.6881 30.2567H25.142ZM25.1281 29.8499C25.1048 28.9369 25.0861 28.0192 25.0675 27.092L25.7847 28.4922L25.1281 29.8499ZM25.0442 26.0418C25.0256 25.1666 25.0116 24.282 24.9977 23.3974L25.6496 24.7267L25.0442 26.0418ZM25.7567 24.949L26.4599 26.3824H25.0955L25.7567 24.949ZM25.7567 24.5091L25.0768 23.123H26.3994L25.7567 24.5091ZM25.0489 22.6594L25.7148 21.0794L26.418 22.6594H25.0489ZM24.9837 22.4229C24.9697 21.4106 24.9558 20.3888 24.9464 19.367L25.6263 20.8902L24.9837 22.4229ZM24.9697 39.0367C24.993 39.6942 25.0163 40.3423 25.0396 40.9857L24.7928 39.822L24.9697 39.0367ZM24.7369 39.5334L24.5506 38.6535H24.9325L24.7369 39.5334ZM24.6717 39.8172L24.4063 41.0046C24.4295 40.3092 24.4528 39.6044 24.4761 38.8948L24.6717 39.8172ZM24.4342 22.0445L23.9499 20.8334L24.4575 19.7076C24.4528 20.4881 24.4435 21.2687 24.4342 22.0445ZM24.4714 18.4776L23.9778 17.2997L24.4854 16.2306C24.4808 16.978 24.4761 17.7302 24.4714 18.4776ZM24.4109 18.7283H23.2933L23.8893 17.4795L24.4109 18.7283ZM24.4668 19.1872C24.4668 19.2345 24.4668 19.2865 24.4668 19.3338L23.8754 20.6395L23.2979 19.1919H24.4668V19.1872ZM24.4295 22.4371C24.4295 22.5128 24.4295 22.5838 24.4249 22.6594H23.1256L23.8661 21.0274L24.4295 22.4371ZM24.3969 23.1183L23.7403 24.4429L23.1582 23.1183H24.3969ZM24.369 26.3493C24.369 26.3588 24.369 26.3729 24.369 26.3824H22.9952L23.731 24.897L24.369 26.3493ZM24.3364 42.8968L24.6298 43.7483L24.2665 44.8222C24.2898 44.193 24.3131 43.5497 24.3364 42.8968ZM24.2945 29.8168L23.6658 28.4402L24.3504 27.1015C24.3364 28.0145 24.3178 28.918 24.2945 29.8168ZM24.192 33.9324L23.5447 32.4092L24.2619 31.1035C24.2433 32.0591 24.22 33.0005 24.192 33.9324ZM23.4516 32.1821L22.8323 30.7156H24.2619L23.4516 32.1821ZM24.0803 34.1453H22.5948L23.433 32.622L24.0803 34.1453ZM24.1501 34.6041L23.2793 36.0943L22.5715 34.6041H24.1501ZM24.1641 34.9637C24.1362 35.9145 24.1082 36.8559 24.0803 37.7831L23.3771 36.3071L24.1641 34.9637ZM24.5692 51.2936L23.9452 52.4668C23.9778 51.7619 24.0104 51.0334 24.043 50.2813L24.5692 51.2936ZM23.9545 41.5202L23.1815 40.1909L24.0384 38.9515C24.0151 39.822 23.9871 40.6782 23.9545 41.5202ZM23.0604 39.9781L22.2921 38.6488H23.9825L23.0604 39.9781ZM23.894 41.8466H22.0359L23.0465 40.3896L23.894 41.8466ZM23.8148 42.3102L22.8183 43.6206L22.0313 42.3102H23.8148ZM23.9173 42.6083C23.8847 43.5165 23.8521 44.4106 23.8195 45.281L22.9673 43.8619L23.9173 42.6083ZM23.6705 48.8432L22.8183 47.5943C23.0884 47.2537 23.405 46.8611 23.7683 46.4022C23.7403 47.2348 23.7077 48.0484 23.6705 48.8432ZM22.6413 47.3246L21.7984 46.0852H23.6332C23.3259 46.4731 22.9813 46.9036 22.6413 47.3246ZM23.6519 49.3399C23.6519 49.3541 23.6519 49.3635 23.6519 49.3777H21.3421C21.5656 49.1365 21.9475 48.6776 22.6274 47.8308L23.6519 49.3399ZM23.4516 49.8413L22.3107 51.147L21.3747 49.8413H23.4516ZM22.4923 51.4024L23.6146 50.1157C23.5727 51.0476 23.5354 51.9417 23.4935 52.8027L22.4923 51.4024ZM23.7031 57.3771L24.6111 58.6638L23.5634 60.0404C23.6099 59.241 23.6565 58.3516 23.7031 57.3771ZM24.8114 58.9429L25.8405 60.4047H23.6984L24.8114 58.9429ZM25.0163 58.6686L25.8079 57.6278C25.8545 58.4793 25.9011 59.2646 25.9383 59.9742L25.0163 58.6686ZM25.8545 50.0968L27.0467 51.3977L25.9849 52.8168C25.943 51.9512 25.8964 51.0429 25.8545 50.0968ZM28.2295 48.9614L27.1072 47.618L27.9594 46.3076C28.0525 47.2206 28.141 48.1052 28.2295 48.9614ZM27.8569 45.229L26.8231 43.8713L27.6194 42.5893C27.6986 43.4929 27.7778 44.3775 27.8569 45.229ZM27.531 41.5344L26.5484 40.1626L27.3167 38.8522C27.3866 39.7699 27.4565 40.6593 27.531 41.5344ZM27.2655 38.1899H25.4727L26.269 36.5437L27.2655 38.1663C27.2655 38.1757 27.2655 38.1852 27.2655 38.1899ZM27.2376 37.75L26.3714 36.3403L27.0467 34.9495C27.1025 35.9003 27.1677 36.837 27.2376 37.75ZM26.2503 36.1463L25.3004 34.6041H26.9954L26.2503 36.1463ZM25.2724 34.1453L26.0594 32.6031L26.9675 34.1453H25.2724ZM26.9675 33.7621L26.1665 32.395L26.8138 31.1224C26.8604 32.0165 26.9116 32.8964 26.9675 33.7621ZM26.7905 30.744L26.0501 32.201L25.1746 30.7156H26.7905C26.7905 30.7251 26.7905 30.7345 26.7905 30.744ZM26.7486 29.954L25.9942 28.4875L26.6136 27.2103C26.6555 28.1422 26.7021 29.0552 26.7486 29.954ZM25.8871 28.2794L25.1513 26.846H26.581L25.8871 28.2794ZM26.567 26.1648L25.8592 24.7267L26.4599 23.4305C26.4925 24.353 26.5297 25.266 26.567 26.1648ZM26.4226 22.2905L25.794 20.8855L26.3435 19.5846C26.3668 20.5023 26.39 21.4011 26.4226 22.2905ZM26.3295 19.225L25.7102 20.701L25.0349 19.1919H26.3295C26.3295 19.2014 26.3295 19.2109 26.3295 19.225ZM26.3155 18.6385L25.7102 17.347L26.2643 16.0981C26.2783 16.9496 26.2969 17.8011 26.3155 18.6385ZM26.2503 15.152L25.6776 14.1397L26.2224 13.1179C26.2271 13.8038 26.241 14.4803 26.2503 15.152ZM26.1246 12.976L25.5844 13.9836L25.0116 12.976H26.1246ZM25.5006 14.1444L24.9232 15.2277C24.9185 14.5276 24.9185 13.8227 24.9185 13.1226L25.5006 14.1444ZM24.7043 30.7156H24.7229C24.7509 31.8699 24.7835 33.0147 24.8161 34.1405H24.6205C24.6484 33.0147 24.6763 31.8746 24.7043 30.7156ZM24.6065 34.6041H24.83C24.8673 35.8199 24.9045 37.0167 24.9464 38.1899H24.4994C24.5366 37.0167 24.5692 35.8199 24.6065 34.6041ZM24.4901 15.1804L23.9778 14.1728L24.4901 13.1794C24.4901 13.8417 24.4901 14.5134 24.4901 15.1804ZM24.4202 12.976L23.8893 14.0025L23.3678 12.976H24.4202ZM23.3026 13.1746L23.8055 14.1681L23.2747 15.1946C23.284 14.5276 23.2933 13.8558 23.3026 13.1746ZM23.2607 15.9893L23.8102 17.2902L23.2095 18.5486C23.2281 17.7065 23.2467 16.855 23.2607 15.9893ZM23.1908 19.1872H23.2141L23.1908 19.2014C23.1908 19.1967 23.1908 19.1919 23.1908 19.1872ZM23.1908 19.3291L23.7916 20.8287L23.1024 22.3472C23.1349 21.3538 23.1629 20.3509 23.1908 19.3291ZM23.0651 23.3738L23.6332 24.6652L22.9626 26.0134C22.9999 25.1477 23.0325 24.2678 23.0651 23.3738ZM24.2712 26.8413L23.5634 28.2179L22.9347 26.8413H24.2712ZM22.9114 27.2386L23.4563 28.4355L22.7903 29.7364C22.8323 28.918 22.8695 28.0854 22.9114 27.2386ZM22.7624 30.2047L23.5587 28.6531L24.2898 30.2473C24.2898 30.2473 24.2898 30.2473 24.2898 30.252H22.7624C22.7624 30.2378 22.7624 30.2236 22.7624 30.2047ZM22.7251 30.9427L23.3398 32.395L22.5575 33.8141C22.6134 32.8775 22.6693 31.9172 22.7251 30.9427ZM22.4877 34.8691L23.1629 36.293L22.2874 37.7925C22.3573 36.8417 22.4225 35.8672 22.4877 34.8691ZM23.2653 36.5058L24.0663 38.1899H22.2828L23.2653 36.5058ZM22.2036 38.9326L22.9254 40.1768L21.9987 41.5155C22.0639 40.6735 22.1337 39.8172 22.2036 38.9326ZM21.9056 42.5988L22.6506 43.8382L21.6774 45.1202C21.7519 44.3065 21.831 43.4598 21.9056 42.5988ZM21.6308 45.6217L22.795 44.0842L23.7217 45.6264L21.6308 45.6217ZM21.5656 46.2745L22.4457 47.5706C21.9894 48.1336 21.5703 48.6492 21.2955 48.9756C21.384 48.1052 21.4771 47.2017 21.5656 46.2745ZM21.1744 50.0778L22.1058 51.3788L20.8624 52.8027C20.9695 51.937 21.072 51.0287 21.1744 50.0778ZM20.7507 53.7772L21.7705 55.0781L20.4061 56.4925C20.5178 55.6457 20.6342 54.7375 20.7507 53.7772ZM20.2803 57.4292L21.5144 58.7301L19.8892 60.1965C20.0056 59.3829 20.1406 58.4604 20.2803 57.4292ZM19.3397 63.6546C19.4421 63.0633 19.5865 62.1928 19.7541 61.0764L21.0301 62.3348L19.3397 63.6546ZM20.0196 60.8636H22.9161L21.3002 62.1219L20.0196 60.8636ZM22.9254 63.7256L21.547 62.3679L23.0744 61.1805C23.0139 62.2922 22.9626 63.1532 22.9254 63.7256ZM20.1686 60.4047L21.7426 58.9808L23.0884 60.4047H20.1686ZM23.1396 59.9647L21.994 58.7537L23.2653 57.6089C23.2188 58.4652 23.1769 59.2504 23.1396 59.9647ZM23.3166 56.5162L22.2082 55.1064L23.447 53.8245C23.405 54.7706 23.3585 55.6694 23.3166 56.5162ZM23.3678 63.5647C23.405 62.9545 23.4563 62.0793 23.5168 60.9724L24.5599 62.2307L23.3678 63.5647ZM23.8568 60.8636H25.7753L24.7835 61.98L23.8568 60.8636ZM24.993 62.2402L25.9989 61.1095C26.0641 62.1976 26.1153 63.0538 26.1525 63.6404L24.993 62.2402ZM26.1805 56.6013C26.1339 55.7309 26.0827 54.799 26.0361 53.815L27.3307 55.1254L26.1805 56.6013ZM26.2224 57.4102L27.6474 58.7537L26.3761 60.154C26.3295 59.3403 26.2783 58.4226 26.2224 57.4102ZM26.5996 63.8154C26.5623 63.2241 26.5018 62.278 26.432 61.0339L28.0479 62.3253L26.5996 63.8154ZM28.2854 62.0793L26.7672 60.8636H29.4635L28.2854 62.0793ZM30.1807 63.5931L28.5461 62.2875L29.7662 61.0291C29.9385 62.1313 30.0782 62.9923 30.1807 63.5931ZM29.6358 60.1634L28.1177 58.7348L29.254 57.4812C29.3937 58.4746 29.5194 59.3687 29.6358 60.1634ZM28.779 53.7913C28.8954 54.7327 29.0072 55.6268 29.1143 56.4547L27.7685 55.0923L28.779 53.7913Z" fill="#FFC000"/>
<path d="M40.9006 98.5189C38.0879 91.9907 36.9144 88.4286 36.9051 88.3907L36.8446 88.2015H36.8166V83.8541H35.8107L35.7456 83.6176C34.1343 77.6476 31.5358 66.6963 31.5079 66.5875L31.5032 66.5781V65.14H31.9689V64.5581C29.9199 64.946 27.843 64.9839 25.7567 64.8609C23.0511 65.1636 20.3455 65.2393 17.6213 64.7426V65.1352H18.25V66.8714H18.2779C17.8541 68.6453 15.5723 78.1869 14.1101 83.6129L14.0449 83.8494H13.1182V88.2535L13.0763 88.386C13.0623 88.4238 11.8935 91.9812 9.08075 98.5142C6.57539 104.328 3.64627 109.484 3.61833 109.536L3.35289 109.995H14.8691L14.8319 109.659C14.8272 109.617 14.4081 105.501 16.1404 101.428L16.1078 101.409C16.1078 101.409 16.1078 101.405 16.1125 101.4L16.1498 101.419C16.173 101.357 18.6644 95.1365 24.993 95.0798C31.3169 95.1365 33.813 101.357 33.8363 101.419L33.8735 101.4C33.8735 101.405 33.8735 101.405 33.8735 101.409L33.8409 101.428C35.5686 105.496 35.1541 109.622 35.1495 109.659L35.1122 109.995H46.6285L46.3677 109.536C46.3304 109.489 43.4013 104.333 40.9006 98.5189ZM40.4489 98.7885C40.7004 99.3751 40.9565 99.957 41.2173 100.525L37.0634 97.7147L38.9448 95.198C39.3825 96.2719 39.8808 97.4687 40.4489 98.7885ZM31.8059 80.4103L29.0258 78.1869H33.5755L31.8059 80.4103ZM31.8618 81.011L34.912 83.4567H29.9199L31.8618 81.011ZM29.091 77.7233L30.8978 75.6844L33.5895 77.7233H29.091ZM30.8466 75.0978L28.6207 73.4137H32.3368L30.8466 75.0978ZM28.5508 72.9501L30.0782 71.6303L32.1133 72.9501H28.5508ZM30.0503 71.0863L28.0479 69.7854L31.5265 69.809L30.0503 71.0863ZM27.7871 68.8913L29.3564 68.054L31.3169 68.8913H27.7871ZM29.701 71.3843L28.0246 72.8319C27.8849 71.8621 27.7452 70.916 27.6241 70.0361L29.701 71.3843ZM30.5579 75.429L28.7184 77.501C28.5275 76.2521 28.3319 74.9133 28.1363 73.5935L30.5579 75.429ZM31.5312 80.7509L29.5846 83.1966C29.4635 82.4207 29.1981 80.713 28.8861 78.6316L31.5312 80.7509ZM29.9199 88.4995L28.0386 90.7797L25.4866 88.4995H29.9199ZM30.1621 89.0577C30.3344 89.8004 30.7302 91.3994 31.4287 93.8025L28.4437 91.1392L30.1621 89.0577ZM30.7069 89.1429L34.0179 91.5224L32.0481 94.1005C31.3356 91.6785 30.9118 90.0086 30.7069 89.1429ZM34.4556 91.8346L38.1578 94.4932H32.4253L34.4556 91.8346ZM38.358 95.0845L36.6164 97.4119L33.1657 95.0845H38.358ZM36.7235 98.1736L40.9193 101.007H34.6046L36.7235 98.1736ZM41.208 101.598L39.6992 104.763L35.2566 101.598H41.208ZM38.4651 94.0154L34.8002 91.3852L36.5838 89.053C36.8446 89.8004 37.4453 91.4798 38.4651 94.0154ZM36.0995 88.7976L34.3578 91.073L31.1912 88.7976H36.0995ZM35.1914 83.1209L32.1319 80.6704L33.9667 78.3666C34.3951 80.0555 34.8142 81.7017 35.1914 83.1209ZM33.6919 77.255L31.1866 75.358L32.7792 73.5604C33.0679 74.743 33.3752 75.9966 33.6919 77.255ZM32.5743 72.7231L30.4275 71.3323L31.9223 70.0408C32.1133 70.8403 32.3368 71.7486 32.5743 72.7231ZM31.587 68.6595L29.715 67.86L31.2052 67.0606C31.2843 67.3917 31.4147 67.9452 31.587 68.6595ZM30.8652 66.8855L29.3378 67.6992L27.4285 66.8855H30.8652ZM28.9746 67.8932L27.4425 68.7115C27.368 68.1391 27.2981 67.6188 27.2376 67.1505L28.9746 67.8932ZM27.0606 68.8298L25.2678 67.9215L26.8371 67.1126C26.8976 67.6188 26.9722 68.2006 27.0606 68.8298ZM26.4739 68.8913H23.3864L24.9138 68.106L26.4739 68.8913ZM26.5996 66.8761L24.9138 67.7465L23.1955 66.8761H26.5996ZM23.0092 67.141L24.5646 67.9263L22.7903 68.8393C22.8695 68.2196 22.944 67.6424 23.0092 67.141ZM9.06212 101.007L13.2579 98.1736L15.3721 101.007H9.06212ZM14.7201 101.598L10.2729 104.763L8.76408 101.598H14.7201ZM11.6187 95.0845H16.8064L13.3603 97.4119L11.6187 95.0845ZM11.8189 94.4932L15.5164 91.8346L17.5468 94.4932H11.8189ZM15.9588 91.5176L19.2698 89.1382C19.0603 90.0086 18.6411 91.6737 17.924 94.0911L15.9588 91.5176ZM21.7985 69.7854L19.796 71.0863L18.3198 69.809L21.7985 69.7854ZM18.5294 68.8913L20.462 68.0635L22.0034 68.8913H18.5294ZM21.2909 72.9501H17.7284L19.7634 71.6303L21.2909 72.9501ZM21.221 73.4137L18.9951 75.0978L17.5049 73.4137H21.221ZM20.7553 77.7233H16.2615L18.9532 75.6844L20.7553 77.7233ZM20.8205 78.1822L18.0404 80.4055L16.2708 78.1822H20.8205ZM19.9264 83.4567H14.9297L17.9799 81.011L19.9264 83.4567ZM19.8473 88.9016L21.6727 91.1155L18.5154 93.8924C19.2884 91.2527 19.6982 89.5686 19.8473 88.9016ZM20.2198 88.4995H24.6484L22.0825 90.756L20.2198 88.4995ZM18.3105 80.7509L20.9556 78.6316C20.6389 80.713 20.3781 82.4207 20.2571 83.1966L18.3105 80.7509ZM19.2884 75.429L21.7053 73.5982C21.5144 74.9181 21.3141 76.2568 21.1232 77.5057L19.2884 75.429ZM20.1453 71.3843L22.2222 70.0361C22.1011 70.9207 21.9661 71.8668 21.8217 72.8319L20.1453 71.3843ZM20.8392 67.9074L22.6041 67.1552C22.5435 67.6283 22.4737 68.1628 22.3945 68.7399L20.8392 67.9074ZM22.4178 66.8855L20.4759 67.7134L18.9252 66.8855H22.4178ZM18.6318 67.0842L20.0987 67.8695L18.2546 68.6595C18.4223 67.9641 18.5527 67.4201 18.6318 67.0842ZM17.924 70.0408L19.4188 71.3323L17.272 72.7231C17.5095 71.7486 17.7284 70.8403 17.924 70.0408ZM17.0672 73.5557L18.6598 75.3533L16.1544 77.2502C16.4711 75.9966 16.7784 74.743 17.0672 73.5557ZM15.875 78.3666L17.7098 80.6704L14.6503 83.1209C15.0275 81.7017 15.4512 80.0555 15.875 78.3666ZM18.7809 88.7976L15.6142 91.073L13.8772 88.7976H18.7809ZM13.3929 89.053L15.1765 91.3852L11.5116 94.0154C12.5268 91.4798 13.1322 89.8004 13.3929 89.053ZM9.5278 98.7885C10.0959 97.4687 10.5942 96.2719 11.0319 95.198L12.9133 97.7147L8.75943 100.525C9.01555 99.957 9.27168 99.3751 9.5278 98.7885ZM8.2239 101.679L9.8398 105.071L4.63351 108.78C5.40188 107.375 6.79426 104.749 8.2239 101.679ZM4.72664 109.409L10.0913 105.591L11.9074 109.409H4.72664ZM14.301 109.409H12.7829C13.0949 108.784 13.7003 107.521 14.464 105.69C14.2218 107.417 14.2638 108.798 14.301 109.409ZM12.3452 109.115L10.5197 105.284L15.4233 101.792C14.0263 105.638 12.8202 108.165 12.3452 109.115ZM15.8145 100.7L13.7003 97.8708L17.5794 95.2501C17.2395 96.3665 16.8483 97.6154 16.3919 98.9967C16.1963 99.588 16.0054 100.151 15.8145 100.7ZM16.9414 98.973C17.4118 97.5302 17.8169 96.234 18.1662 95.0845H21.7659C19.4794 95.9502 17.91 97.6059 16.9414 98.973ZM18.6784 94.4932L22.0313 91.546L24.4621 94.4932H18.6784ZM24.8161 94.0722L22.4318 91.1865L24.8161 89.0909V94.0722ZM20.5551 83.8588L20.5737 83.7311C20.5877 83.627 21.8869 75.3012 22.6553 69.7759L24.9232 69.7617L27.191 69.7759C27.9594 75.3012 29.254 83.627 29.2726 83.7311L29.2912 83.8588H20.5551ZM25.3236 89.1003L27.6893 91.2102L25.3236 94.0769V89.1003ZM28.0898 91.5697L31.3635 94.4932H25.6822L28.0898 91.5697ZM28.2109 95.0845H31.8106C32.1552 96.234 32.5603 97.5302 33.0353 98.973C32.0667 97.6059 30.4973 95.9502 28.2109 95.0845ZM33.5848 98.9967C33.1331 97.6154 32.7373 96.3665 32.3973 95.2501L36.2764 97.8708L34.1622 100.7C33.9713 100.151 33.7804 99.588 33.5848 98.9967ZM35.671 109.409C35.7083 108.798 35.7502 107.417 35.5127 105.69C36.2718 107.521 36.8818 108.784 37.1938 109.409H35.671ZM34.5534 101.792L39.457 105.284L37.6316 109.115C37.1519 108.165 35.9505 105.638 34.5534 101.792ZM38.0693 109.409L39.8854 105.591L45.2454 109.409H38.0693ZM40.1323 105.071L41.7482 101.679C43.1825 104.749 44.5748 107.375 45.3386 108.78L40.1323 105.071Z" fill="#FFC000"/>
<path d="M31.8571 69.8091L31.8761 69.8377C31.8761 69.8281 31.8714 69.8186 31.8666 69.8091H31.8571Z" fill="#FFC000"/>
<path d="M17.9706 69.8377L17.9896 69.8091H17.9801C17.9801 69.8186 17.9753 69.8281 17.9706 69.8377Z" fill="#FFC000"/>
<path d="M25.3842 88.1306H24.8021V94.7392H25.3842V88.1306Z" fill="#FFD143"/>
<path d="M11.2322 88.3482C11.2182 88.386 9.86775 91.9434 6.61265 98.4763C3.72544 104.285 0.339946 109.442 0.302692 109.494L0 109.957H10.543L10.6315 109.82C10.6547 109.782 13.0437 105.918 15.6142 99.167C18.2407 92.2556 19.1394 88.5658 19.1487 88.5279L19.2372 88.159H11.3067L11.2322 88.3482ZM18.4875 88.7503C18.1988 89.8336 17.2115 93.3153 15.0694 98.9494C12.7922 104.934 10.6641 108.623 10.2217 109.361H1.08969C1.98379 107.961 4.7313 103.576 7.13887 98.7412C9.98417 93.0267 11.3859 89.5687 11.7072 88.7503H18.4875Z" fill="#FFD143"/>
<path d="M27.3555 66.6658L27.244 66.977L32.9728 69.0936L33.0842 68.7823L27.3555 66.6658Z" fill="#FFD143"/>
<path d="M32.1516 66.6703L27.6098 68.7749L27.7451 69.0761L32.2869 66.9716L32.1516 66.6703Z" fill="#FFD143"/>
<path d="M22.5844 66.6826L22.4555 66.9868L27.6096 69.2407L27.7385 68.9365L22.5844 66.6826Z" fill="#FFD143"/>
<path d="M27.1955 66.6772L22.1462 68.9391L22.2778 69.2421L27.327 66.9802L27.1955 66.6772Z" fill="#FFD143"/>
<path d="M32.5324 66.5402L32.4858 66.3699H27.0374L27.0746 66.6348C27.7079 71.2377 29.9246 83.5608 29.9478 83.6838L29.9804 83.8731H37.5198L37.4267 83.5703C35.5639 77.605 32.5603 66.6538 32.5324 66.5402ZM30.3623 83.4142C30.0829 81.8626 28.1922 71.2897 27.5636 66.8383H32.1365C32.5184 68.229 35.1541 77.799 36.8958 83.4142H30.3623Z" fill="#FFD143"/>
<path d="M33.8555 73.0125L29.1917 77.5726L29.505 77.9033L34.1687 73.3431L33.8555 73.0125Z" fill="#FFD143"/>
<path d="M28.5504 72.9448L28.3029 73.3343L35.3174 77.9348L35.565 77.5454L28.5504 72.9448Z" fill="#FFD143"/>
<path d="M32.8034 69.5773L28.2957 72.9486L28.5663 73.322L33.0739 69.9507L32.8034 69.5773Z" fill="#FFD143"/>
<path d="M27.9148 69.3921L27.696 69.7936L33.9059 73.2844L34.1246 72.8829L27.9148 69.3921Z" fill="#FFD143"/>
<path d="M34.1716 72.9076H28.4297V73.3664H34.1716V72.9076Z" fill="#FFD143"/>
<path d="M35.5732 77.676H29.1562V78.1396H35.5732V77.676Z" fill="#FFD143"/>
<path d="M35.2787 77.751L30.0005 83.4816L30.3338 83.7983L35.6119 78.0677L35.2787 77.751Z" fill="#FFD143"/>
<path d="M29.0584 78.2768L37.0774 83.8352L37.3335 83.452L29.3145 77.8936L29.0584 78.2768Z" fill="#FFD143"/>
<path d="M24.532 68.8488V69.7145L33.4125 69.7665L33.1564 68.8488H24.532Z" fill="#FFC000"/>
<path d="M17.3186 66.5402C17.2907 66.649 14.287 77.6003 12.4243 83.5703L12.3312 83.8731H19.8705L19.9031 83.6838C19.9264 83.5608 22.1431 71.2377 22.7764 66.6348L22.8136 66.3699H17.3652L17.3186 66.5402ZM22.2874 66.8383C21.6588 71.285 19.7634 81.8626 19.4887 83.4142H12.9552C14.6922 77.799 17.3326 68.229 17.7144 66.8383H22.2874Z" fill="#FFD143"/>
<path d="M15.9953 73.0135L15.682 73.3441L20.3458 77.9043L20.659 77.5736L15.9953 73.0135Z" fill="#FFD143"/>
<path d="M21.2989 72.9502L14.2777 77.5406L14.5222 77.9265L21.5434 73.3361L21.2989 72.9502Z" fill="#FFD143"/>
<path d="M17.0511 69.5797L16.7804 69.9529L21.2863 73.3265L21.5571 72.9533L17.0511 69.5797Z" fill="#FFD143"/>
<path d="M21.934 69.3868L15.727 72.8819L15.946 73.2832L22.153 69.7881L21.934 69.3868Z" fill="#FFD143"/>
<path d="M21.4213 72.9076H15.6794V73.3664H21.4213V72.9076Z" fill="#FFD143"/>
<path d="M20.6948 77.676H14.2731V78.1396H20.6948V77.676Z" fill="#FFD143"/>
<path d="M14.571 77.7538L14.2408 78.0669L19.5127 83.8038L19.8429 83.4907L14.571 77.7538Z" fill="#FFD143"/>
<path d="M20.5322 77.8894L12.5142 83.4512L12.7715 83.8341L20.7896 78.2722L20.5322 77.8894Z" fill="#FFD143"/>
<path d="M17.0392 94.4459H8.90845V95.0372H17.0392V94.4459Z" fill="#FFD143"/>
<path d="M11.7261 88.2553L11.2928 88.6502L16.6448 94.7106L17.0781 94.3157L11.7261 88.2553Z" fill="#FFD143"/>
<path d="M18.7076 88.2024L8.59026 94.4906L8.89405 94.995L19.0114 88.7068L18.7076 88.2024Z" fill="#FFD143"/>
<path d="M19.292 88.248L18.8737 88.6592L24.7869 94.8665L25.2052 94.4553L19.292 88.248Z" fill="#FFD143"/>
<path d="M24.9184 88.2142L16.9413 94.2891L17.2904 94.7622L25.2676 88.6873L24.9184 88.2142Z" fill="#FFD143"/>
<path d="M30.8975 88.2413L24.9885 94.4529L25.4071 94.8638L31.316 88.6522L30.8975 88.2413Z" fill="#FFD143"/>
<path d="M25.2733 88.2143L24.9209 88.685L32.782 94.7593L33.1344 94.2886L25.2733 88.2143Z" fill="#FFD143"/>
<path d="M14.5152 100.96H5.50433V101.551H14.5152V100.96Z" fill="#FFD143"/>
<path d="M9.13204 94.551L8.69424 94.9408L14.1146 101.224L14.5524 100.834L9.13204 94.551Z" fill="#FFD143"/>
<path d="M16.4931 94.4959L5.35248 100.997L5.64242 101.51L16.783 95.0086L16.4931 94.4959Z" fill="#FFD143"/>
<path d="M6.01646 101.114L5.50829 101.402L10.131 109.806L10.6391 109.518L6.01646 101.114Z" fill="#FFD143"/>
<path d="M14.0196 100.987L0.400299 109.419L0.703223 109.923L14.3225 101.492L14.0196 100.987Z" fill="#FFD143"/>
<path d="M43.3827 98.4763C40.1323 91.9481 38.7771 88.386 38.7632 88.3482L38.6933 88.159H30.7628L30.8513 88.5279C30.8606 88.5658 31.7593 92.2556 34.3858 99.167C36.9563 105.922 39.3453 109.782 39.3685 109.82L39.4524 109.957H49.4505H49.9953L49.6927 109.494C49.6601 109.442 46.2746 104.285 43.3827 98.4763ZM39.7783 109.361C39.3359 108.619 37.2078 104.934 34.9306 98.9494C32.7885 93.3105 31.8013 89.8336 31.5125 88.7503H38.2975C38.6188 89.5734 40.0205 93.0267 42.8658 98.7412C45.2734 103.576 48.0209 107.966 48.915 109.361H39.7783Z" fill="#FFD143"/>
<path d="M41.0869 94.4459H32.9561V95.0372H41.0869V94.4459Z" fill="#FFD143"/>
<path d="M38.2742 88.256L32.9246 94.3181L33.358 94.7128L38.7076 88.6507L38.2742 88.256Z" fill="#FFD143"/>
<path d="M31.2913 88.2044L30.9875 88.7088L41.1048 94.9982L41.4086 94.4939L31.2913 88.2044Z" fill="#FFD143"/>
<path d="M44.491 100.96H35.4801V101.551H44.491V100.96Z" fill="#FFD143"/>
<path d="M40.8696 94.5572L35.4377 100.83L35.8748 101.22L41.3067 94.9478L40.8696 94.5572Z" fill="#FFD143"/>
<path d="M33.5087 94.4905L33.2182 95.003L44.3523 101.517L44.6428 101.005L33.5087 94.4905Z" fill="#FFD143"/>
<path d="M43.9804 101.11L39.3682 109.52L39.8767 109.808L44.489 101.398L43.9804 101.11Z" fill="#FFD143"/>
<path d="M35.9657 101.004L35.6638 101.51L49.2951 109.911L49.597 109.406L35.9657 101.004Z" fill="#FFD143"/>
<path d="M22.4647 66.681L16.7359 68.7975L16.8473 69.1087L22.5761 66.9922L22.4647 66.681Z" fill="#FFD143"/>
<path d="M17.6654 66.6771L17.5303 66.9785L22.0731 69.081L22.2082 68.7797L17.6654 66.6771Z" fill="#FFD143"/>
<path d="M33.0679 64.1229H16.4851V65.0927H33.0679V64.1229Z" fill="#FFD143"/>
<path d="M32.5277 65.0974H17.2115V66.8335H32.5277V65.0974Z" fill="#FFD143"/>
<path d="M17.2115 66.8335H17.598L18.3478 65.6698L32.5277 65.4569V65.0974H17.2115V66.8335Z" fill="#FFC000"/>
<path d="M38.6607 83.8116H11.2834V86.1343H38.6607V83.8116Z" fill="#FFD143"/>
<path d="M38.6607 86.1343H11.2834V88.457H38.6607V86.1343Z" fill="#FFD143"/>
<path d="M16.4338 69.7665L25.319 69.7145V68.8488H16.6946L16.4338 69.7665Z" fill="#FFC000"/>
<path d="M11.6327 85.964H11.968L12.8202 84.9185L38.2276 84.3367V84.1332H11.6327V85.964Z" fill="#FFC000"/>
<path d="M11.6327 88.1306H11.968L12.8202 87.0851L38.2276 86.4985V86.2998H11.6327V88.1306Z" fill="#FFC000"/>
<path d="M38.6607 85.964H11.2834V86.2998H38.6607V85.964Z" fill="#FFC000"/>
<path d="M33.3566 94.4459H16.6387V95.0372H33.3566V94.4459Z" fill="#FFD143"/>
<path d="M14.2498 101.135L14.7807 101.381C14.8086 101.319 17.7144 95.0419 25.0955 95.0372V94.4459C17.3326 94.4459 14.2824 101.069 14.2498 101.135Z" fill="#FFD143"/>
<path d="M24.9045 94.4459V95.0372C32.2856 95.0419 35.1867 101.319 35.2147 101.381L35.7456 101.135C35.7176 101.069 32.6674 94.4459 24.9045 94.4459Z" fill="#FFD143"/>
<path d="M14.2591 101.125C12.4895 104.725 12.578 108.273 12.6572 109.366H10.3846V109.957H13.3091L13.2672 109.622C13.2625 109.579 12.7782 105.463 14.7807 101.386L14.2591 101.125Z" fill="#FFD143"/>
<path d="M35.7409 101.125L35.2193 101.39C37.2171 105.459 36.7374 109.584 36.7328 109.626L36.6909 109.962H39.6153V109.371H37.3428C37.4267 108.273 37.5151 104.725 35.7409 101.125Z" fill="#FFD143"/>
<path d="M29.5427 49.6048L29.4961 49.5575C28.3506 40.6072 27.2003 28.005 27.028 12.7158L27.0234 12.4603H22.5622L22.5575 12.7158C22.2036 44.1741 17.7098 64.3027 17.6632 64.5014L18.1615 64.6196C18.1662 64.6054 18.2034 64.4399 18.2593 64.1608L20.6669 62.576L22.5901 64.1702C22.5715 64.3973 22.5668 64.5203 22.5622 64.5392L23.0698 64.5771C23.0698 64.5581 23.0837 64.3926 23.1024 64.0993L24.8067 62.4861L26.4925 64.1986C26.5111 64.4304 26.5204 64.5629 26.5204 64.5771L27.028 64.5345C27.028 64.5203 27.0187 64.4257 27.0094 64.2648L29.0025 62.5334L31.3263 64.0993C31.3914 64.4162 31.4334 64.596 31.438 64.6149L31.9316 64.4966C31.9084 64.3926 30.7116 59.047 29.5054 49.6379L29.5427 49.6048ZM29.403 52.6986L27.9687 51.3788L29.0584 50.1488C29.1702 51.0382 29.2866 51.8849 29.403 52.6986ZM28.4856 58.503L26.9116 57.2541H29.8314L28.4856 58.503ZM28.5042 58.9855L30.2878 60.4047H26.9768L28.5042 58.9855ZM26.7905 56.7953L28.1131 55.3619L29.7942 56.7953H26.7905ZM28.0805 54.8557L26.5624 53.5596H29.2773L28.0805 54.8557ZM26.4413 53.0959L27.7452 51.6247L29.3425 53.0959H26.4413ZM19.8333 56.7953L21.4958 55.343L22.8462 56.7953H19.8333ZM22.8788 57.2541L21.235 58.5077L19.8286 57.2541H22.8788ZM20.3316 53.5596H22.9813L21.519 54.8368L20.3316 53.5596ZM20.3502 53.0959L21.8637 51.6342L23.107 53.0959H20.3502ZM24.4389 15.9184L23.7636 17.1105L23.1676 15.9184H24.4389ZM23.0744 15.4548L23.759 14.3384L24.4342 15.4548H23.0744ZM25.8126 17.1625L25.1187 15.9136H26.4692L25.8126 17.1625ZM25.8173 17.5315L26.4878 18.7331H25.1886L25.8173 17.5315ZM25.0442 15.4548L25.7754 14.3005L26.553 15.4548H25.0442ZM25.7195 17.347L25.007 18.7C24.9977 17.8106 24.9884 16.9213 24.9884 16.0319L25.7195 17.347ZM25.0116 19.1872H25.0163H25.0116C25.0116 19.1919 25.0116 19.1919 25.0116 19.1872ZM26.2131 49.3777L27.368 47.8781L28.8488 49.3777H26.2131ZM28.8861 49.8413L27.7219 51.1517L26.3016 49.8413H28.8861ZM23.7031 56.7953L24.7928 55.3051L25.9244 56.7953H23.7031ZM25.8778 57.2541L24.858 58.3847L23.908 57.2541H25.8778ZM24.3411 41.6716L24.7555 40.1058L25.156 41.7C25.1607 41.7473 25.1607 41.7946 25.1607 41.8466H24.3318C24.3364 41.7899 24.3364 41.7284 24.3411 41.6716ZM23.6984 24.6747L24.3783 23.5204C24.3643 24.3151 24.3504 25.1099 24.3318 25.8999L23.6984 24.6747ZM25.1839 42.3102C25.1839 42.3339 25.1886 42.3576 25.1886 42.3765L24.7509 43.4598L24.3085 42.3765C24.3085 42.3528 24.3131 42.3292 24.3131 42.3055H25.1839V42.3102ZM25.2119 42.8968C25.2398 43.5497 25.2724 44.1883 25.305 44.8222L24.8673 43.7483L25.2119 42.8968ZM24.7509 44.0416L25.333 45.4797C25.3376 45.527 25.3376 45.5791 25.3423 45.6264H24.1641C24.1641 45.5791 24.1688 45.527 24.1734 45.4797L24.7509 44.0416ZM25.3935 46.6387C25.4261 47.2868 25.4587 47.9207 25.4913 48.5404L24.9511 47.5044L25.3935 46.6387ZM24.7648 47.1449L24.2107 46.0852H25.3004L24.7648 47.1449ZM24.5786 47.5091L24.0197 48.6114C24.0523 47.9633 24.0849 47.301 24.1175 46.6245L24.5786 47.5091ZM24.7695 47.8734L25.5379 49.3446C25.5379 49.3541 25.5379 49.3683 25.5379 49.3777H24.0058L24.7695 47.8734ZM25.5891 50.2907C25.631 51.0571 25.6729 51.8045 25.7148 52.5283L24.9558 51.2936L25.5891 50.2907ZM25.5472 38.9421L26.5996 40.1815L25.6589 41.5344C25.6217 40.6782 25.5844 39.8172 25.5472 38.9421ZM25.7055 42.6083L26.865 43.8903L25.8359 45.2952C25.794 44.4201 25.7474 43.5213 25.7055 42.6083ZM25.4773 49.8413L24.7602 50.9814L24.057 49.8413H25.4773ZM25.6776 53.0959H23.8148L24.7555 51.6058L25.6776 53.0959ZM25.6217 53.5596L24.7881 54.6949L23.922 53.5596H25.6217ZM24.5646 55.0024L23.6006 56.3175C23.6472 55.5606 23.6938 54.7611 23.7403 53.9191L24.5646 55.0024ZM25.0163 54.9976L25.7986 53.9285C25.8452 54.728 25.8964 55.4896 25.9383 56.2087L25.0163 54.9976ZM25.8918 46.3785L27.1351 47.6416L26.0315 49.075C25.9849 48.1998 25.9383 47.3057 25.8918 46.3785ZM27.34 47.3767L26.0687 46.0852H28.3366L27.34 47.3767ZM25.9523 45.6217L27.0606 44.1079L28.4251 45.6217H25.9523ZM27.042 43.6537L25.8266 42.3102H28.0246L27.042 43.6537ZM25.7334 41.8466L26.7626 40.3707L28.0199 41.8466H25.7334ZM26.744 39.9686L25.6263 38.6535H27.6614L26.744 39.9686ZM25.5099 37.9818C25.468 36.9742 25.4308 35.9524 25.3935 34.9164L26.4413 36.3545L25.5099 37.9818ZM25.3516 33.7999C25.319 32.9011 25.291 31.9881 25.2631 31.0704L26.1945 32.4044L25.3516 33.7999ZM25.2445 30.2567L26.1293 28.7051L27.0699 30.2567H25.2445ZM25.2259 29.8499C25.1979 28.9369 25.1746 28.0192 25.1513 27.092L26.0035 28.4922L25.2259 29.8499ZM25.1281 26.0418C25.1094 25.1666 25.0908 24.282 25.0722 23.3974L25.8452 24.7267L25.1281 26.0418ZM25.9756 24.949L26.8092 26.3824H25.1933L25.9756 24.949ZM25.9709 24.5091L25.1653 23.123H26.7347L25.9709 24.5091ZM25.1327 22.6594L25.9197 21.0794L26.7579 22.6594H25.1327ZM25.0536 22.4229C25.0349 21.4106 25.021 20.3888 25.0116 19.367L25.8173 20.8902L25.0536 22.4229ZM25.0396 39.0367C25.0675 39.6942 25.0955 40.3423 25.1234 40.9857L24.83 39.822L25.0396 39.0367ZM24.7602 39.5334L24.5413 38.6535H24.9977L24.7602 39.5334ZM24.6857 39.8172L24.369 41.0046C24.3969 40.3092 24.4249 39.6044 24.4528 38.8948L24.6857 39.8172ZM24.4063 22.0445L23.8335 20.8334L24.4342 19.7076C24.4249 20.4881 24.4156 21.2687 24.4063 22.0445ZM24.4482 18.4776L23.8614 17.2997L24.4668 16.2306C24.4575 16.978 24.4528 17.7302 24.4482 18.4776ZM24.3783 18.7283H23.0511L23.7543 17.4795L24.3783 18.7283ZM24.4389 19.1872C24.4389 19.2345 24.4389 19.2865 24.4389 19.3338L23.7403 20.6395L23.0558 19.1919H24.4389V19.1872ZM24.3969 22.4371C24.3969 22.5128 24.3923 22.5838 24.3923 22.6594H22.8509L23.7264 21.0274L24.3969 22.4371ZM24.3597 23.1183L23.5774 24.4429L22.8881 23.1183H24.3597ZM24.3224 26.3493C24.3224 26.3588 24.3224 26.3729 24.3224 26.3824H22.6926L23.568 24.897L24.3224 26.3493ZM24.2898 42.8968L24.6344 43.7483L24.2014 44.8222C24.2293 44.193 24.2572 43.5497 24.2898 42.8968ZM24.2386 29.8168L23.4935 28.4402L24.3085 27.1015C24.2852 28.0145 24.2666 28.918 24.2386 29.8168ZM24.1175 33.9324L23.3538 32.4092L24.206 31.1035C24.1781 32.0591 24.1501 33.0005 24.1175 33.9324ZM23.2421 32.1821L22.5063 30.7156H24.2014L23.2421 32.1821ZM23.9825 34.1453H22.2222L23.2141 32.622L23.9825 34.1453ZM24.071 34.6041L23.0372 36.0943L22.1989 34.6041H24.071ZM24.0849 34.9637C24.0523 35.9145 24.0197 36.8559 23.9871 37.7831L23.1582 36.3071L24.0849 34.9637ZM24.5599 51.2936L23.8195 52.4668C23.8568 51.7619 23.8987 51.0334 23.9359 50.2813L24.5599 51.2936ZM23.8381 41.5202L22.9254 40.1909L23.9452 38.9515C23.908 39.822 23.8707 40.6782 23.8381 41.5202ZM22.7764 39.9781L21.8637 38.6488H23.8707L22.7764 39.9781ZM23.7636 41.8466H21.561L22.7624 40.3896L23.7636 41.8466ZM23.6705 42.3102L22.4923 43.6206L21.5563 42.3102H23.6705ZM23.7916 42.6083C23.7543 43.5165 23.7124 44.4106 23.6705 45.281L22.66 43.8619L23.7916 42.6083ZM23.4982 48.8432L22.4923 47.5943C22.8136 47.2537 23.1862 46.8611 23.6193 46.4022C23.582 47.2348 23.5401 48.0484 23.4982 48.8432ZM22.2781 47.3246L21.2769 46.0852H23.4516C23.0884 46.4731 22.6832 46.9036 22.2781 47.3246ZM23.4749 49.3399C23.4749 49.3541 23.4749 49.3635 23.4749 49.3777H20.7414C21.0021 49.1365 21.4585 48.6776 22.2641 47.8308L23.4749 49.3399ZM23.2421 49.8413L21.8869 51.147L20.7786 49.8413H23.2421ZM22.1058 51.4024L23.4376 50.1157C23.3911 51.0476 23.3399 51.9417 23.2933 52.8027L22.1058 51.4024ZM23.5401 57.3771L24.6158 58.6638L23.3771 60.0404C23.4237 59.241 23.4796 58.3516 23.5401 57.3771ZM24.8487 58.9429L26.0687 60.4047H23.5308L24.8487 58.9429ZM25.0955 58.6686L26.0315 57.6278C26.0874 58.4793 26.1386 59.2646 26.1852 59.9742L25.0955 58.6686ZM26.0874 50.0968L27.503 51.3977L26.2457 52.8168C26.1898 51.9512 26.1386 51.0429 26.0874 50.0968ZM28.9047 48.9614L27.5775 47.618L28.5881 46.3076C28.6905 47.2206 28.7976 48.1052 28.9047 48.9614ZM28.4623 45.229L27.2376 43.8713L28.1829 42.5893C28.2714 43.4929 28.3692 44.3775 28.4623 45.229ZM28.0758 41.5344L26.907 40.1626L27.8197 38.8522C27.9035 39.7699 27.9873 40.6593 28.0758 41.5344ZM27.7638 38.1899H25.6403L26.581 36.5437L27.7638 38.1663C27.7638 38.1757 27.7638 38.1852 27.7638 38.1899ZM27.7266 37.75L26.6974 36.3403L27.4937 34.9495C27.5682 35.9003 27.6474 36.837 27.7266 37.75ZM26.5577 36.1463L25.4354 34.6041H27.4425L26.5577 36.1463ZM25.3982 34.1453L26.3295 32.6031L27.4052 34.1453H25.3982ZM27.4052 33.7621L26.4506 32.395L27.219 31.1224C27.2795 32.0165 27.34 32.8964 27.4052 33.7621ZM27.1957 30.744L26.3155 32.201L25.2817 30.7156H27.1957C27.1957 30.7251 27.1957 30.7345 27.1957 30.744ZM27.1445 29.954L26.255 28.4875L26.9861 27.2103C27.0373 28.1422 27.0886 29.0552 27.1445 29.954ZM26.1293 28.2794L25.2585 26.846H26.9535L26.1293 28.2794ZM26.9349 26.1648L26.0967 24.7267L26.8092 23.4305C26.8464 24.353 26.8883 25.266 26.9349 26.1648ZM26.7579 22.2905L26.0129 20.8855L26.6601 19.5846C26.6927 20.5023 26.7253 21.4011 26.7579 22.2905ZM26.6508 19.225L25.9151 20.701L25.1141 19.1919H26.6508C26.6508 19.2014 26.6508 19.2109 26.6508 19.225ZM26.6369 18.6385L25.9151 17.347L26.5717 16.0981C26.5903 16.9496 26.6089 17.8011 26.6369 18.6385ZM26.5577 15.152L25.8778 14.1397L26.5251 13.1179C26.5298 13.8038 26.5437 14.4803 26.5577 15.152ZM26.4087 12.976L25.7707 13.9836L25.0908 12.976H26.4087ZM25.6682 14.1444L24.9837 15.2277C24.979 14.5276 24.979 13.8227 24.979 13.1226L25.6682 14.1444ZM24.7229 30.7156H24.7415C24.7741 31.8699 24.8114 33.0147 24.8533 34.1405H24.6205C24.6577 33.0147 24.6903 31.8746 24.7229 30.7156ZM24.6065 34.6041H24.8719C24.9138 35.8199 24.9604 37.0167 25.007 38.1899H24.4808C24.5227 37.0167 24.5646 35.8199 24.6065 34.6041ZM24.4668 15.1804L23.8614 14.1728L24.4715 13.1794C24.4715 13.8417 24.4668 14.5134 24.4668 15.1804ZM24.3876 12.976L23.759 14.0025L23.1443 12.976H24.3876ZM23.0604 13.1746L23.6565 14.1681L23.0278 15.1946C23.0418 14.5276 23.0511 13.8558 23.0604 13.1746ZM23.0139 15.9893L23.6612 17.2902L22.9487 18.5486C22.9766 17.7065 22.9953 16.855 23.0139 15.9893ZM22.9347 19.1872H22.958L22.9301 19.2014C22.9301 19.1967 22.9301 19.1919 22.9347 19.1872ZM22.9301 19.3291L23.6379 20.8287L22.8229 22.3472C22.8602 21.3538 22.8975 20.3509 22.9301 19.3291ZM22.781 23.3738L23.4516 24.6652L22.66 26.0134C22.7019 25.1477 22.7438 24.2678 22.781 23.3738ZM24.2107 26.8413L23.3725 28.2179L22.6227 26.8413H24.2107ZM22.5948 27.2386L23.2421 28.4355L22.4504 29.7364C22.5016 28.918 22.5529 28.0854 22.5948 27.2386ZM22.4225 30.2047L23.3631 28.6531L24.2293 30.2473C24.2293 30.2473 24.2293 30.2473 24.2293 30.252H22.4225C22.4225 30.2378 22.4225 30.2236 22.4225 30.2047ZM22.3759 30.9427L23.1024 32.395L22.1757 33.8141C22.2455 32.8775 22.3107 31.9172 22.3759 30.9427ZM22.0965 34.8691L22.8975 36.293L21.859 37.7925C21.9382 36.8417 22.022 35.8672 22.0965 34.8691ZM23.0185 36.5058L23.9685 38.1899H21.8543L23.0185 36.5058ZM21.7565 38.9326L22.6134 40.1768L21.5144 41.5155C21.5982 40.6735 21.6774 39.8172 21.7565 38.9326ZM21.4026 42.5988L22.2874 43.8382L21.1325 45.1202C21.2257 44.3065 21.3188 43.4598 21.4026 42.5988ZM21.0813 45.6217L22.4644 44.0842L23.5634 45.6264L21.0813 45.6217ZM21.0068 46.2745L22.0499 47.5706C21.5097 48.1336 21.0115 48.6492 20.6855 48.9756C20.7879 48.1052 20.8997 47.2017 21.0068 46.2745ZM20.5411 50.0778L21.6494 51.3788L20.1779 52.8027C20.2943 51.937 20.42 51.0287 20.5411 50.0778ZM20.0382 53.7772L21.249 55.0781L19.633 56.4925C19.7588 55.6457 19.8985 54.7375 20.0382 53.7772ZM19.4794 57.4292L20.9416 58.7301L19.0137 60.1965C19.1581 59.3829 19.3117 58.4604 19.4794 57.4292ZM18.3617 63.6546C18.4828 63.0633 18.6505 62.1928 18.8554 61.0764L20.3688 62.3348L18.3617 63.6546ZM19.172 60.8636H22.6087L20.6901 62.1219L19.172 60.8636ZM22.6181 63.7256L20.9835 62.3679L22.7904 61.1805C22.7158 62.2922 22.66 63.1532 22.6181 63.7256ZM19.349 60.4047L21.2164 58.9808L22.8136 60.4047H19.349ZM22.8695 59.9647L21.5097 58.7537L23.0139 57.6089C22.9627 58.4652 22.9161 59.2504 22.8695 59.9647ZM23.0791 56.5162L21.7659 55.1064L23.2327 53.8245C23.1815 54.7706 23.1303 55.6694 23.0791 56.5162ZM23.1396 63.5647C23.1815 62.9545 23.2421 62.0793 23.3166 60.9724L24.5506 62.2307L23.1396 63.5647ZM23.7171 60.8636H25.9896L24.8114 61.98L23.7171 60.8636ZM25.0675 62.2402L26.2597 61.1095C26.3342 62.1976 26.3994 63.0538 26.4413 63.6404L25.0675 62.2402ZM26.4739 56.6013C26.418 55.7309 26.3621 54.799 26.3016 53.815L27.8337 55.1254L26.4739 56.6013ZM26.5251 57.4102L28.2155 58.7537L26.7067 60.154C26.6508 59.3403 26.5903 58.4226 26.5251 57.4102ZM26.9675 63.8154C26.9209 63.2241 26.8511 62.278 26.7673 61.0339L28.6859 62.3253L26.9675 63.8154ZM28.9699 62.0793L27.1677 60.8636H30.367L28.9699 62.0793ZM31.2191 63.5931L29.2866 62.2875L30.7302 61.0291C30.9258 62.1313 31.0981 62.9923 31.2191 63.5931ZM30.5719 60.1634L28.7697 58.7348L30.1155 57.4812C30.2831 58.4746 30.4321 59.3687 30.5719 60.1634ZM29.5567 53.7913C29.6917 54.7327 29.8268 55.6268 29.9572 56.4547L28.3599 55.0923L29.5567 53.7913Z" fill="#FFD143"/>
<path d="M22.8835 11.0128H21.3421L22.5668 12.7205H22.9114H26.6741H27.0187L28.2388 11.0128H26.7021H22.8835Z" fill="#FFD143"/>
<path opacity="0.4" d="M24.3085 12.2475C23.2141 12.1387 22.1337 11.869 21.4259 11.0128H21.3467L22.5715 12.7158H27.0187L27.6614 11.8217C27.4891 11.9211 27.3028 12.0109 27.1072 12.0724C26.1945 12.3468 25.2445 12.3421 24.3085 12.2475Z" fill="#FFC000"/>
<path d="M21.5423 11.2872C21.6727 11.2635 22.2362 11.1831 23.3585 11.1925C24.8161 11.2067 26.092 11.0979 26.8138 11.8643C27.1538 12.2238 26.6136 12.7158 26.6136 12.7158H27.0187L28.2435 11.0128H21.3421L21.5423 11.2872Z" fill="#FFC000"/>
<path d="M22.8369 8.9313H21.3421V11.0128H22.8369H26.7486H28.2388V8.9313H26.7486H22.8369Z" fill="#FFD143"/>
<path d="M21.5563 10.3978C21.4818 10.3931 21.4119 10.3836 21.3421 10.3741V11.0128H28.2388V9.62198C26.1106 10.3316 23.7543 10.5208 21.5563 10.3978Z" fill="#FFC000"/>
<path d="M26.2317 5.96997H24.9138H24.667H23.3492C22.4457 6.35788 22.3107 7.45064 22.3107 7.45064H24.6717H24.9185H27.2795C27.2702 7.45064 27.1351 6.35788 26.2317 5.96997Z" fill="#FFD143"/>
<path d="M22.3945 7.08168C22.3247 7.29456 22.3014 7.45066 22.3014 7.45066H27.2702C27.2702 7.45066 27.2376 7.19048 27.0979 6.87354C25.7148 7.29456 23.8335 7.59258 22.3945 7.08168Z" fill="#FFC000"/>
</g>
<defs>
<clipPath id="clip0_1_52">
<rect width="50" height="110" fill="white"/>
</clipPath>
</defs>
</svg>
