<svg width="54" height="88" viewBox="0 0 54 88" fill="none" xmlns="http://www.w3.org/2000/svg">
<g clip-path="url(#clip0_1_212)">
<path d="M52.65 30.36H0.459999V75.77H52.65V30.36Z" fill="#ABB2B6"/>
<path d="M8.88 77.68C8.11 77.68 7.49 78.31 7.49 79.07V86.67C7.49 87.09 7.84 87.44 8.26 87.44H9.51C9.93 87.44 10.28 87.09 10.28 86.67V79.07C10.28 78.31 9.65 77.68 8.88 77.68Z" fill="#142023"/>
<path d="M44.01 77.68C43.24 77.68 42.62 78.31 42.62 79.07V86.67C42.62 87.09 42.97 87.44 43.39 87.44H44.64C45.06 87.44 45.41 87.09 45.41 86.67V79.07C45.4 78.31 44.78 77.68 44.01 77.68Z" fill="#142023"/>
<path d="M26.56 19.92C12.15 19.92 0.470001 24.55 0.470001 30.25C0.470001 30.29 0.480001 30.32 0.480001 30.36H52.65C52.65 30.32 52.66 30.29 52.66 30.25C52.65 24.54 40.97 19.92 26.56 19.92Z" fill="#5E6B73"/>
<path d="M47.73 30.25H5.26V78.87H47.73V30.25Z" fill="#E0E0D6"/>
<path d="M47.73 56.14H5.26V75.77H47.73V56.14Z" fill="#F9AB2C"/>
<path d="M47.73 75.66H5.26V79.67H47.73V75.66Z" fill="#2E0000"/>
<path d="M12.07 33.71C8.84 33.71 6.22 34.14 6.22 34.68V55.09H17.92V34.68C17.92 34.14 15.3 33.71 12.07 33.71Z" fill="#142023"/>
<path d="M40.95 33.76C37.82 33.76 35.28 34.17 35.12 34.68H35.1V55.09H46.8V34.68H46.78C46.63 34.17 44.08 33.76 40.95 33.76Z" fill="#142023"/>
<path d="M26.82 33.76C22.97 33.76 19.84 34.17 19.64 34.68H19.62V55.09H34.02V34.68H34C33.81 34.17 30.67 33.76 26.82 33.76Z" fill="#142023"/>
<path d="M15.46 79.43L10.99 85.23H42L37.76 79.43H15.46Z" fill="#2E0000"/>
<path d="M38.34 79.64H14.65V80.42H38.34V79.64Z" fill="#6A2700"/>
<path d="M39.33 81.24H13.66V82.02H39.33V81.24Z" fill="#6A2700"/>
<path d="M40.62 82.85H12.37V83.63H40.62V82.85Z" fill="#6A2700"/>
<path d="M42 84.45H10.99V85.23H42V84.45Z" fill="#6A2700"/>
<path d="M5.26 53.89H0.459999V75.77H5.26V53.89Z" fill="#CD7C00"/>
<path d="M52.53 53.89H47.73V75.77H52.53V53.89Z" fill="#CD7C00"/>
<path d="M53.1 29.82H0V30.36H53.1V29.82Z" fill="#142023"/>
<path d="M47.74 71.28H5.26V75.66H47.74V71.28Z" fill="#FAC438"/>
<path opacity="0.2" d="M29.76 33.84L19.63 43.98V51.77L34.03 37.37V34.68H34C33.86 34.3 32.16 33.99 29.76 33.84Z" fill="white"/>
<path opacity="0.2" d="M19.63 55.09H21.29L34.02 42.35V40.08L19.63 54.47V55.09Z" fill="white"/>
<path opacity="0.2" d="M16.17 33.99L6.22 43.94V49.07L17.92 37.37V34.68C17.92 34.41 17.25 34.16 16.17 33.99Z" fill="white"/>
<path opacity="0.2" d="M6.22 55.05H7.88L17.92 45.01V39.19L6.22 50.88V55.05Z" fill="white"/>
<path opacity="0.2" d="M45.05 34.06L35.1 44V50.02L46.8 38.32V34.74C46.8 34.47 46.13 34.23 45.05 34.06Z" fill="white"/>
<path opacity="0.2" d="M35.1 55.12H36.76L46.8 45.08V42.8L35.1 54.5V55.12Z" fill="white"/>
<path d="M47.74 75.66H49.66V33.44L52.65 30.36H47.74V75.66Z" fill="#DBDEE0"/>
<path d="M3.39 33.44V75.66H5.31V30.36H0.410004L3.39 33.44Z" fill="#DBDEE0"/>
<path d="M27.15 64.62C25.28 64.62 23.77 66.13 23.77 68C23.77 69.87 25.28 71.38 27.15 71.38C29.02 71.38 30.53 69.87 30.53 68C30.53 66.13 29.01 64.62 27.15 64.62Z" fill="#2E0000"/>
<path d="M27.15 65.29C25.68 65.29 24.49 66.48 24.49 67.95C24.49 69.42 25.68 70.61 27.15 70.61C28.62 70.61 29.81 69.42 29.81 67.95C29.81 66.48 28.62 65.29 27.15 65.29Z" fill="#E0E0D6"/>
<path d="M11.54 72.28H9.71C9.25 72.28 8.88 72.65 8.88 73.11C8.88 73.57 9.25 73.94 9.71 73.94H11.53C11.99 73.94 12.36 73.57 12.36 73.11C12.37 72.65 11.99 72.28 11.54 72.28Z" fill="#B20009"/>
<path d="M43.18 72.28H41.36C40.9 72.28 40.53 72.65 40.53 73.11C40.53 73.57 40.9 73.94 41.36 73.94H43.18C43.64 73.94 44.01 73.57 44.01 73.11C44.01 72.65 43.64 72.28 43.18 72.28Z" fill="#B20009"/>
<path d="M0.459999 30.25C0.459999 30.29 0.469999 30.32 0.469999 30.36H7.64C7.64 30.32 7.63 30.29 7.63 30.25C7.63 25.03 17.43 20.71 30.14 20.02C28.97 19.96 27.77 19.92 26.56 19.92C12.14 19.92 0.459999 24.54 0.459999 30.25Z" fill="#DBDEE0"/>
<path opacity="0.2" d="M26.51 19.92C25.29 19.92 24.1 19.96 22.93 20.02C35.64 20.71 45.44 25.03 45.44 30.25C45.44 30.29 45.43 30.32 45.43 30.36H52.6C52.6 30.32 52.61 30.29 52.61 30.25C52.6 24.54 40.92 19.92 26.51 19.92Z" fill="white"/>
<path d="M31.65 8.32001H21.17V10.43H31.65V8.32001Z" fill="#142023"/>
<path d="M14.4502 0.262815L13.7335 0.988647L22.3225 9.46903L23.0392 8.7432L14.4502 0.262815Z" fill="#142023"/>
<path d="M38.3975 0.265664L29.8109 8.74725L30.5276 9.47288L39.1142 0.991292L38.3975 0.265664Z" fill="#142023"/>
<path d="M41.42 0L40 0.01V0H12.09H10.86C10.52 0 10.2 0.07 9.9 0.2L5.67 2.09L6.1 3.02L10 1.24C10.3 1.1 10.64 1.03 10.97 1.03H12.56V1.02H39.81L41.13 1.03C41.46 1.03 41.78 1.11 42.08 1.24L46 3.03L46.43 2.1L42.44 0.23C42.11 0.08 41.77 0 41.42 0Z" fill="#142023"/>
<path d="M27.46 9.37H25.59V15.6H27.46V9.37Z" fill="#142023"/>
<path d="M41.89 13.94H11.68V21.84H41.89V13.94Z" fill="#5E6B73"/>
<path d="M30.53 15.57H13.49V20H30.53V15.57Z" fill="#142023"/>
<path d="M40.23 15.57H31.87V20H40.23V15.57Z" fill="#142023"/>
<path opacity="0.2" d="M37.76 30.26H15V75.49H37.76V30.26Z" fill="white"/>
</g>
<defs>
<clipPath id="clip0_1_212">
<rect width="53.1" height="87.44" fill="white"/>
</clipPath>
</defs>
</svg>
